<?xml version="1.0" encoding="UTF-8" standalone="no"?>
<svg xmlns="http://www.w3.org/2000/svg" xmlns:xlink="http://www.w3.org/1999/xlink" contentScriptType="application/ecmascript" contentStyleType="text/css" height="676px" preserveAspectRatio="none" style="width:833px;height:676px;" version="1.1" viewBox="0 0 833 676" width="833px" zoomAndPan="magnify"><defs><filter height="300%" id="f1wpazyw3bg57p" width="300%" x="-1" y="-1"><feGaussianBlur result="blurOut" stdDeviation="2.0"/><feColorMatrix in="blurOut" result="blurOut2" type="matrix" values="0 0 0 0 0 0 0 0 0 0 0 0 0 0 0 0 0 0 .4 0"/><feOffset dx="4.0" dy="4.0" in="blurOut2" result="blurOut3"/><feBlend in="SourceGraphic" in2="blurOut3" mode="normal"/></filter></defs><g><!--cluster EVM--><polygon fill="#FFFFFF" filter="url(#f1wpazyw3bg57p)" points="22,24,61,24,68,46.2969,811,46.2969,811,664,22,664,22,24" style="stroke: #000000; stroke-width: 1.5;"/><line style="stroke: #000000; stroke-width: 1.5;" x1="22" x2="68" y1="46.2969" y2="46.2969"/><text fill="#000000" font-family="sans-serif" font-size="14" font-weight="bold" lengthAdjust="spacingAndGlyphs" textLength="33" x="26" y="38.9951">EVM</text><!--class EVM.MachineCode--><rect fill="#FEFECE" filter="url(#f1wpazyw3bg57p)" height="48" id="EVM.MachineCode" style="stroke: #A80036; stroke-width: 1.5;" width="116" x="66" y="402.5"/><ellipse cx="81" cy="418.5" fill="#ADD1B2" rx="11" ry="11" style="stroke: #A80036; stroke-width: 1.0;"/><path d="M83.3438,414.1719 L83.5156,414.25 C83.7344,413.9375 83.9375,413.8438 84.2344,413.8438 C84.5313,413.8438 84.8125,413.9844 84.9688,414.25 C85.0625,414.4063 85.0781,414.5313 85.0781,414.9688 L85.0781,416.3906 C85.0781,416.8125 85.0469,417 84.9375,417.1563 C84.7656,417.375 84.5,417.5156 84.2344,417.5156 C84.0156,417.5156 83.7813,417.4063 83.6406,417.2656 C83.5,417.1406 83.4688,417.0156 83.4063,416.6094 C83.3125,416.2031 83.1406,415.9844 82.6563,415.7031 C82.1875,415.4531 81.5781,415.2969 81,415.2969 C79.2656,415.2969 78.0156,416.6094 78.0156,418.3906 L78.0156,419.4844 C78.0156,421.1875 79.3125,422.2813 81.3594,422.2813 C82.125,422.2813 82.8125,422.1563 83.2344,421.8906 C83.4219,421.7969 83.4219,421.7969 83.875,421.3125 C84.0625,421.125 84.2656,421.0469 84.4844,421.0469 C84.9531,421.0469 85.3438,421.4375 85.3438,421.8906 C85.3438,422.2813 85.0156,422.7344 84.4375,423.1406 C83.6875,423.6875 82.5313,423.9844 81.3125,423.9844 C78.4219,423.9844 76.3125,422.0938 76.3125,419.5156 L76.3125,418.3906 C76.3125,415.6719 78.3125,413.5938 80.9375,413.5938 C81.8125,413.5938 82.4063,413.7344 83.3438,414.1719 Z "/><text fill="#000000" font-family="sans-serif" font-size="12" lengthAdjust="spacingAndGlyphs" textLength="84" x="95" y="422.6543">MachineCode</text><line style="stroke: #A80036; stroke-width: 1.5;" x1="67" x2="181" y1="434.5" y2="434.5"/><line style="stroke: #A80036; stroke-width: 1.5;" x1="67" x2="181" y1="442.5" y2="442.5"/><!--class EVM.Opcode--><rect fill="#FEFECE" filter="url(#f1wpazyw3bg57p)" height="112.0234" id="EVM.Opcode" style="stroke: #A80036; stroke-width: 1.5;" width="80" x="84" y="536"/><ellipse cx="99" cy="552" fill="#EB937F" rx="11" ry="11" style="stroke: #A80036; stroke-width: 1.0;"/><path d="M97.2969,552.875 L97.2969,555.2969 L101.6563,555.2969 L101.6563,554.4219 C101.6563,553.9375 101.6875,553.7969 101.7969,553.6406 C101.9688,553.3906 102.2344,553.2813 102.5,553.2813 C102.7813,553.2813 103.0625,553.4375 103.2344,553.6875 C103.3125,553.8438 103.3438,553.9844 103.3438,554.4219 L103.3438,557 L95.3438,557 C94.9531,557 94.7188,556.9531 94.5781,556.8281 C94.3594,556.6719 94.2188,556.4219 94.2188,556.1563 C94.2188,555.8594 94.375,555.5938 94.625,555.4219 C94.7813,555.3125 94.9375,555.2969 95.3438,555.2969 L95.5938,555.2969 L95.5938,548.7813 L95.3438,548.7813 C94.9219,548.7813 94.7344,548.75 94.5781,548.6406 C94.3594,548.4688 94.2188,548.2188 94.2188,547.9375 C94.2188,547.6563 94.375,547.3594 94.625,547.2031 C94.7813,547.1094 94.9063,547.0938 95.3438,547.0938 L102.9688,547.0938 L102.9688,549.6406 C102.9688,550.1094 102.9375,550.25 102.8281,550.4219 C102.6563,550.6406 102.3906,550.7813 102.125,550.7813 C101.8438,550.7813 101.5625,550.625 101.3906,550.375 C101.3125,550.2188 101.2813,550.0469 101.2813,549.6406 L101.2813,548.7813 L97.2969,548.7813 L97.2969,551.1875 L98.75,551.1875 L98.75,551.0625 C98.75,550.6094 98.7813,550.4531 98.8906,550.2813 C99.0625,550.0625 99.3281,549.9219 99.5781,549.9219 C100.0313,549.9219 100.3438,550.2344 100.4063,550.7031 C100.4219,550.8594 100.4219,550.9063 100.4219,551.0625 L100.4219,552.9844 C100.4219,553.4375 100.3906,553.5938 100.2656,553.75 C100.1094,553.9688 99.8438,554.1094 99.5938,554.1094 C99.2969,554.1094 99.0156,553.9531 98.8594,553.7031 C98.7813,553.5469 98.75,553.3906 98.75,552.9844 L98.75,552.875 Z "/><text fill="#000000" font-family="sans-serif" font-size="12" lengthAdjust="spacingAndGlyphs" textLength="48" x="113" y="556.1543">Opcode</text><line style="stroke: #A80036; stroke-width: 1.5;" x1="85" x2="163" y1="568" y2="568"/><text fill="#000000" font-family="sans-serif" font-size="11" lengthAdjust="spacingAndGlyphs" textLength="31" x="90" y="582.2104">STOP</text><text fill="#000000" font-family="sans-serif" font-size="11" lengthAdjust="spacingAndGlyphs" textLength="23" x="90" y="595.0151">ADD</text><text fill="#000000" font-family="sans-serif" font-size="11" lengthAdjust="spacingAndGlyphs" textLength="23" x="90" y="607.8198">MUL</text><text fill="#000000" font-family="sans-serif" font-size="11" lengthAdjust="spacingAndGlyphs" textLength="24" x="90" y="620.6245">SUB</text><text fill="#000000" font-family="sans-serif" font-size="11" lengthAdjust="spacingAndGlyphs" textLength="12" x="90" y="633.4292">...</text><line style="stroke: #A80036; stroke-width: 1.5;" x1="85" x2="163" y1="640.0234" y2="640.0234"/><!--class EVM.ExecutionEnvironment--><rect fill="#FEFECE" filter="url(#f1wpazyw3bg57p)" height="150.4375" id="EVM.ExecutionEnvironment" style="stroke: #A80036; stroke-width: 1.5;" width="172" x="38" y="167"/><ellipse cx="53.45" cy="183" fill="#ADD1B2" rx="11" ry="11" style="stroke: #A80036; stroke-width: 1.0;"/><path d="M55.7938,178.6719 L55.9656,178.75 C56.1844,178.4375 56.3875,178.3438 56.6844,178.3438 C56.9813,178.3438 57.2625,178.4844 57.4188,178.75 C57.5125,178.9063 57.5281,179.0313 57.5281,179.4688 L57.5281,180.8906 C57.5281,181.3125 57.4969,181.5 57.3875,181.6563 C57.2156,181.875 56.95,182.0156 56.6844,182.0156 C56.4656,182.0156 56.2313,181.9063 56.0906,181.7656 C55.95,181.6406 55.9188,181.5156 55.8563,181.1094 C55.7625,180.7031 55.5906,180.4844 55.1063,180.2031 C54.6375,179.9531 54.0281,179.7969 53.45,179.7969 C51.7156,179.7969 50.4656,181.1094 50.4656,182.8906 L50.4656,183.9844 C50.4656,185.6875 51.7625,186.7813 53.8094,186.7813 C54.575,186.7813 55.2625,186.6563 55.6844,186.3906 C55.8719,186.2969 55.8719,186.2969 56.325,185.8125 C56.5125,185.625 56.7156,185.5469 56.9344,185.5469 C57.4031,185.5469 57.7938,185.9375 57.7938,186.3906 C57.7938,186.7813 57.4656,187.2344 56.8875,187.6406 C56.1375,188.1875 54.9813,188.4844 53.7625,188.4844 C50.8719,188.4844 48.7625,186.5938 48.7625,184.0156 L48.7625,182.8906 C48.7625,180.1719 50.7625,178.0938 53.3875,178.0938 C54.2625,178.0938 54.8563,178.2344 55.7938,178.6719 Z "/><text fill="#000000" font-family="sans-serif" font-size="12" lengthAdjust="spacingAndGlyphs" textLength="139" x="67.55" y="187.1543">ExecutionEnvironment</text><line style="stroke: #A80036; stroke-width: 1.5;" x1="39" x2="209" y1="199" y2="199"/><text fill="#000000" font-family="sans-serif" font-size="11" lengthAdjust="spacingAndGlyphs" textLength="115" x="44" y="213.2104">address codeOwner</text><text fill="#000000" font-family="sans-serif" font-size="11" lengthAdjust="spacingAndGlyphs" textLength="91" x="44" y="226.0151">address sender</text><text fill="#000000" font-family="sans-serif" font-size="11" lengthAdjust="spacingAndGlyphs" textLength="67" x="44" y="238.8198">int gasPrice</text><text fill="#000000" font-family="sans-serif" font-size="11" lengthAdjust="spacingAndGlyphs" textLength="90" x="44" y="251.6245">byte[] inputData</text><text fill="#000000" font-family="sans-serif" font-size="11" lengthAdjust="spacingAndGlyphs" textLength="90" x="44" y="264.4292">address causer</text><text fill="#000000" font-family="sans-serif" font-size="11" lengthAdjust="spacingAndGlyphs" textLength="48" x="44" y="277.2339">int value</text><text fill="#000000" font-family="sans-serif" font-size="11" lengthAdjust="spacingAndGlyphs" textLength="125" x="44" y="290.0386">int messageCallDepth</text><text fill="#000000" font-family="sans-serif" font-size="11" lengthAdjust="spacingAndGlyphs" textLength="160" x="44" y="302.8433">BlockHeader presentHeader</text><line style="stroke: #A80036; stroke-width: 1.5;" x1="39" x2="209" y1="309.4375" y2="309.4375"/><!--class EVM.WorldState--><rect fill="#FEFECE" filter="url(#f1wpazyw3bg57p)" height="60.8047" id="EVM.WorldState" style="stroke: #A80036; stroke-width: 1.5;" width="101" x="245.5" y="211.5"/><ellipse cx="260.5" cy="227.5" fill="#ADD1B2" rx="11" ry="11" style="stroke: #A80036; stroke-width: 1.0;"/><path d="M262.8438,223.1719 L263.0156,223.25 C263.2344,222.9375 263.4375,222.8438 263.7344,222.8438 C264.0313,222.8438 264.3125,222.9844 264.4688,223.25 C264.5625,223.4063 264.5781,223.5313 264.5781,223.9688 L264.5781,225.3906 C264.5781,225.8125 264.5469,226 264.4375,226.1563 C264.2656,226.375 264,226.5156 263.7344,226.5156 C263.5156,226.5156 263.2813,226.4063 263.1406,226.2656 C263,226.1406 262.9688,226.0156 262.9063,225.6094 C262.8125,225.2031 262.6406,224.9844 262.1563,224.7031 C261.6875,224.4531 261.0781,224.2969 260.5,224.2969 C258.7656,224.2969 257.5156,225.6094 257.5156,227.3906 L257.5156,228.4844 C257.5156,230.1875 258.8125,231.2813 260.8594,231.2813 C261.625,231.2813 262.3125,231.1563 262.7344,230.8906 C262.9219,230.7969 262.9219,230.7969 263.375,230.3125 C263.5625,230.125 263.7656,230.0469 263.9844,230.0469 C264.4531,230.0469 264.8438,230.4375 264.8438,230.8906 C264.8438,231.2813 264.5156,231.7344 263.9375,232.1406 C263.1875,232.6875 262.0313,232.9844 260.8125,232.9844 C257.9219,232.9844 255.8125,231.0938 255.8125,228.5156 L255.8125,227.3906 C255.8125,224.6719 257.8125,222.5938 260.4375,222.5938 C261.3125,222.5938 261.9063,222.7344 262.8438,223.1719 Z "/><text fill="#000000" font-family="sans-serif" font-size="12" lengthAdjust="spacingAndGlyphs" textLength="69" x="274.5" y="231.6543">WorldState</text><line style="stroke: #A80036; stroke-width: 1.5;" x1="246.5" x2="345.5" y1="243.5" y2="243.5"/><text fill="#000000" font-family="sans-serif" font-size="11" lengthAdjust="spacingAndGlyphs" textLength="85" x="251.5" y="257.7104">address[] addr</text><line style="stroke: #A80036; stroke-width: 1.5;" x1="246.5" x2="345.5" y1="264.3047" y2="264.3047"/><!--class EVM.AccountState--><rect fill="#FEFECE" filter="url(#f1wpazyw3bg57p)" height="99.2188" id="EVM.AccountState" style="stroke: #A80036; stroke-width: 1.5;" width="119" x="236.5" y="377"/><ellipse cx="252.4" cy="393" fill="#ADD1B2" rx="11" ry="11" style="stroke: #A80036; stroke-width: 1.0;"/><path d="M254.7438,388.6719 L254.9156,388.75 C255.1344,388.4375 255.3375,388.3438 255.6344,388.3438 C255.9313,388.3438 256.2125,388.4844 256.3688,388.75 C256.4625,388.9063 256.4781,389.0313 256.4781,389.4688 L256.4781,390.8906 C256.4781,391.3125 256.4469,391.5 256.3375,391.6563 C256.1656,391.875 255.9,392.0156 255.6344,392.0156 C255.4156,392.0156 255.1813,391.9063 255.0406,391.7656 C254.9,391.6406 254.8688,391.5156 254.8063,391.1094 C254.7125,390.7031 254.5406,390.4844 254.0563,390.2031 C253.5875,389.9531 252.9781,389.7969 252.4,389.7969 C250.6656,389.7969 249.4156,391.1094 249.4156,392.8906 L249.4156,393.9844 C249.4156,395.6875 250.7125,396.7813 252.7594,396.7813 C253.525,396.7813 254.2125,396.6563 254.6344,396.3906 C254.8219,396.2969 254.8219,396.2969 255.275,395.8125 C255.4625,395.625 255.6656,395.5469 255.8844,395.5469 C256.3531,395.5469 256.7438,395.9375 256.7438,396.3906 C256.7438,396.7813 256.4156,397.2344 255.8375,397.6406 C255.0875,398.1875 253.9313,398.4844 252.7125,398.4844 C249.8219,398.4844 247.7125,396.5938 247.7125,394.0156 L247.7125,392.8906 C247.7125,390.1719 249.7125,388.0938 252.3375,388.0938 C253.2125,388.0938 253.8063,388.2344 254.7438,388.6719 Z "/><text fill="#000000" font-family="sans-serif" font-size="12" lengthAdjust="spacingAndGlyphs" textLength="85" x="266.6" y="397.1543">AccountState</text><line style="stroke: #A80036; stroke-width: 1.5;" x1="237.5" x2="354.5" y1="409" y2="409"/><text fill="#000000" font-family="sans-serif" font-size="11" lengthAdjust="spacingAndGlyphs" textLength="52" x="242.5" y="423.2104">int nonce</text><text fill="#000000" font-family="sans-serif" font-size="11" lengthAdjust="spacingAndGlyphs" textLength="62" x="242.5" y="436.0151">int balance</text><text fill="#000000" font-family="sans-serif" font-size="11" lengthAdjust="spacingAndGlyphs" textLength="107" x="242.5" y="448.8198">String storageRoot</text><text fill="#000000" font-family="sans-serif" font-size="11" lengthAdjust="spacingAndGlyphs" textLength="94" x="242.5" y="461.6245">String codeHash</text><line style="stroke: #A80036; stroke-width: 1.5;" x1="237.5" x2="354.5" y1="468.2188" y2="468.2188"/><!--class EVM.MachineState--><rect fill="#FEFECE" filter="url(#f1wpazyw3bg57p)" height="112.0234" id="EVM.MachineState" style="stroke: #A80036; stroke-width: 1.5;" width="210" x="382" y="186"/><ellipse cx="439.75" cy="202" fill="#ADD1B2" rx="11" ry="11" style="stroke: #A80036; stroke-width: 1.0;"/><path d="M442.0938,197.6719 L442.2656,197.75 C442.4844,197.4375 442.6875,197.3438 442.9844,197.3438 C443.2813,197.3438 443.5625,197.4844 443.7188,197.75 C443.8125,197.9063 443.8281,198.0313 443.8281,198.4688 L443.8281,199.8906 C443.8281,200.3125 443.7969,200.5 443.6875,200.6563 C443.5156,200.875 443.25,201.0156 442.9844,201.0156 C442.7656,201.0156 442.5313,200.9063 442.3906,200.7656 C442.25,200.6406 442.2188,200.5156 442.1563,200.1094 C442.0625,199.7031 441.8906,199.4844 441.4063,199.2031 C440.9375,198.9531 440.3281,198.7969 439.75,198.7969 C438.0156,198.7969 436.7656,200.1094 436.7656,201.8906 L436.7656,202.9844 C436.7656,204.6875 438.0625,205.7813 440.1094,205.7813 C440.875,205.7813 441.5625,205.6563 441.9844,205.3906 C442.1719,205.2969 442.1719,205.2969 442.625,204.8125 C442.8125,204.625 443.0156,204.5469 443.2344,204.5469 C443.7031,204.5469 444.0938,204.9375 444.0938,205.3906 C444.0938,205.7813 443.7656,206.2344 443.1875,206.6406 C442.4375,207.1875 441.2813,207.4844 440.0625,207.4844 C437.1719,207.4844 435.0625,205.5938 435.0625,203.0156 L435.0625,201.8906 C435.0625,199.1719 437.0625,197.0938 439.6875,197.0938 C440.5625,197.0938 441.1563,197.2344 442.0938,197.6719 Z "/><text fill="#000000" font-family="sans-serif" font-size="12" lengthAdjust="spacingAndGlyphs" textLength="86" x="460.25" y="206.1543">MachineState</text><line style="stroke: #A80036; stroke-width: 1.5;" x1="383" x2="591" y1="218" y2="218"/><text fill="#000000" font-family="sans-serif" font-size="11" lengthAdjust="spacingAndGlyphs" textLength="91" x="388" y="232.2104">int availableGas</text><text fill="#000000" font-family="sans-serif" font-size="11" lengthAdjust="spacingAndGlyphs" textLength="112" x="388" y="245.0151">int programCounter</text><text fill="#000000" font-family="sans-serif" font-size="11" lengthAdjust="spacingAndGlyphs" textLength="134" x="388" y="257.8198">byte[] memoryContents</text><text fill="#000000" font-family="sans-serif" font-size="11" lengthAdjust="spacingAndGlyphs" textLength="198" x="388" y="270.6245">int numberOfActiveWordsInMemory</text><text fill="#000000" font-family="sans-serif" font-size="11" lengthAdjust="spacingAndGlyphs" textLength="117" x="388" y="283.4292">byte[] stackContents</text><line style="stroke: #A80036; stroke-width: 1.5;" x1="383" x2="591" y1="290.0234" y2="290.0234"/><!--class EVM.SubState--><rect fill="#FEFECE" filter="url(#f1wpazyw3bg57p)" height="99.2188" id="EVM.SubState" style="stroke: #A80036; stroke-width: 1.5;" width="167" x="627.5" y="192.5"/><ellipse cx="677.75" cy="208.5" fill="#ADD1B2" rx="11" ry="11" style="stroke: #A80036; stroke-width: 1.0;"/><path d="M680.0938,204.1719 L680.2656,204.25 C680.4844,203.9375 680.6875,203.8438 680.9844,203.8438 C681.2813,203.8438 681.5625,203.9844 681.7188,204.25 C681.8125,204.4063 681.8281,204.5313 681.8281,204.9688 L681.8281,206.3906 C681.8281,206.8125 681.7969,207 681.6875,207.1563 C681.5156,207.375 681.25,207.5156 680.9844,207.5156 C680.7656,207.5156 680.5313,207.4063 680.3906,207.2656 C680.25,207.1406 680.2188,207.0156 680.1563,206.6094 C680.0625,206.2031 679.8906,205.9844 679.4063,205.7031 C678.9375,205.4531 678.3281,205.2969 677.75,205.2969 C676.0156,205.2969 674.7656,206.6094 674.7656,208.3906 L674.7656,209.4844 C674.7656,211.1875 676.0625,212.2813 678.1094,212.2813 C678.875,212.2813 679.5625,212.1563 679.9844,211.8906 C680.1719,211.7969 680.1719,211.7969 680.625,211.3125 C680.8125,211.125 681.0156,211.0469 681.2344,211.0469 C681.7031,211.0469 682.0938,211.4375 682.0938,211.8906 C682.0938,212.2813 681.7656,212.7344 681.1875,213.1406 C680.4375,213.6875 679.2813,213.9844 678.0625,213.9844 C675.1719,213.9844 673.0625,212.0938 673.0625,209.5156 L673.0625,208.3906 C673.0625,205.6719 675.0625,203.5938 677.6875,203.5938 C678.5625,203.5938 679.1563,203.7344 680.0938,204.1719 Z "/><text fill="#000000" font-family="sans-serif" font-size="12" lengthAdjust="spacingAndGlyphs" textLength="58" x="698.25" y="212.6543">SubState</text><line style="stroke: #A80036; stroke-width: 1.5;" x1="628.5" x2="793.5" y1="224.5" y2="224.5"/><text fill="#000000" font-family="sans-serif" font-size="11" lengthAdjust="spacingAndGlyphs" textLength="146" x="633.5" y="238.7104">address[] selfdestructSet</text><text fill="#000000" font-family="sans-serif" font-size="11" lengthAdjust="spacingAndGlyphs" textLength="97" x="633.5" y="251.5151">bytes[] logSeries</text><text fill="#000000" font-family="sans-serif" font-size="11" lengthAdjust="spacingAndGlyphs" textLength="155" x="633.5" y="264.3198">address[] touchedAccounts</text><text fill="#000000" font-family="sans-serif" font-size="11" lengthAdjust="spacingAndGlyphs" textLength="125" x="633.5" y="277.1245">bytes[] refundBalance</text><line style="stroke: #A80036; stroke-width: 1.5;" x1="628.5" x2="793.5" y1="283.7188" y2="283.7188"/><!--class EVM.IteratorFunction--><rect fill="#FEFECE" filter="url(#f1wpazyw3bg57p)" height="48" id="EVM.IteratorFunction" style="stroke: #A80036; stroke-width: 1.5;" width="133" x="324.5" y="59"/><ellipse cx="339.5" cy="75" fill="#ADD1B2" rx="11" ry="11" style="stroke: #A80036; stroke-width: 1.0;"/><path d="M341.8438,70.6719 L342.0156,70.75 C342.2344,70.4375 342.4375,70.3438 342.7344,70.3438 C343.0313,70.3438 343.3125,70.4844 343.4688,70.75 C343.5625,70.9063 343.5781,71.0313 343.5781,71.4688 L343.5781,72.8906 C343.5781,73.3125 343.5469,73.5 343.4375,73.6563 C343.2656,73.875 343,74.0156 342.7344,74.0156 C342.5156,74.0156 342.2813,73.9063 342.1406,73.7656 C342,73.6406 341.9688,73.5156 341.9063,73.1094 C341.8125,72.7031 341.6406,72.4844 341.1563,72.2031 C340.6875,71.9531 340.0781,71.7969 339.5,71.7969 C337.7656,71.7969 336.5156,73.1094 336.5156,74.8906 L336.5156,75.9844 C336.5156,77.6875 337.8125,78.7813 339.8594,78.7813 C340.625,78.7813 341.3125,78.6563 341.7344,78.3906 C341.9219,78.2969 341.9219,78.2969 342.375,77.8125 C342.5625,77.625 342.7656,77.5469 342.9844,77.5469 C343.4531,77.5469 343.8438,77.9375 343.8438,78.3906 C343.8438,78.7813 343.5156,79.2344 342.9375,79.6406 C342.1875,80.1875 341.0313,80.4844 339.8125,80.4844 C336.9219,80.4844 334.8125,78.5938 334.8125,76.0156 L334.8125,74.8906 C334.8125,72.1719 336.8125,70.0938 339.4375,70.0938 C340.3125,70.0938 340.9063,70.2344 341.8438,70.6719 Z "/><text fill="#000000" font-family="sans-serif" font-size="12" lengthAdjust="spacingAndGlyphs" textLength="101" x="353.5" y="79.1543">IteratorFunction</text><line style="stroke: #A80036; stroke-width: 1.5;" x1="325.5" x2="456.5" y1="91" y2="91"/><line style="stroke: #A80036; stroke-width: 1.5;" x1="325.5" x2="456.5" y1="99" y2="99"/><!--link EVM.IteratorFunction to EVM.WorldState--><path d="M370.224,118.335 C353.414,146.115 329.985,184.836 313.973,211.296 " fill="none" id="EVM.IteratorFunction-EVM.WorldState" style="stroke: #A80036; stroke-width: 1.0;"/><polygon fill="#A80036" points="376.982,107.166,370.4536,110.2288,370.7699,117.4329,377.2983,114.3702,376.982,107.166" style="stroke: #A80036; stroke-width: 1.0;"/><text fill="#000000" font-family="sans-serif" font-size="13" lengthAdjust="spacingAndGlyphs" textLength="8" x="308.8549" y="200.5172">1</text><!--link EVM.IteratorFunction to EVM.MachineState--><path d="M412.021,118.378 C424.091,138.117 439.531,163.368 453.259,185.82 " fill="none" id="EVM.IteratorFunction-EVM.MachineState" style="stroke: #A80036; stroke-width: 1.0;"/><polygon fill="#A80036" points="405.165,107.166,404.8821,114.3716,411.4246,117.404,411.7075,110.1985,405.165,107.166" style="stroke: #A80036; stroke-width: 1.0;"/><text fill="#000000" font-family="sans-serif" font-size="13" lengthAdjust="spacingAndGlyphs" textLength="8" x="440.6593" y="175.1326">1</text><!--link EVM.IteratorFunction to EVM.SubState--><path d="M470.319,108.271 C512.948,122.733 565.699,142.954 610,167 C623.564,174.363 637.373,183.333 650.248,192.454 " fill="none" id="EVM.IteratorFunction-EVM.SubState" style="stroke: #A80036; stroke-width: 1.0;"/><polygon fill="#A80036" points="457.723,104.065,462.1472,109.7594,469.1052,107.8657,464.681,102.1713,457.723,104.065" style="stroke: #A80036; stroke-width: 1.0;"/><text fill="#000000" font-family="sans-serif" font-size="13" lengthAdjust="spacingAndGlyphs" textLength="8" x="633.1423" y="181.4928">1</text><!--link EVM.IteratorFunction to EVM.ExecutionEnvironment--><path d="M329.171,112.81 C298.206,127.906 260.49,147.316 228,167 C222.125,170.56 216.147,174.342 210.179,178.242 " fill="none" id="EVM.IteratorFunction-EVM.ExecutionEnvironment" style="stroke: #A80036; stroke-width: 1.0;"/><polygon fill="#A80036" points="341.117,107.037,333.9742,106.0467,330.3128,112.2591,337.4556,113.2494,341.117,107.037" style="stroke: #A80036; stroke-width: 1.0;"/><text fill="#000000" font-family="sans-serif" font-size="13" lengthAdjust="spacingAndGlyphs" textLength="8" x="217.9288" y="169.1721">1</text><!--link EVM.WorldState to EVM.AccountState--><path d="M296,285.791 C296,313.087 296,348.531 296,376.888 " fill="none" id="EVM.WorldState-EVM.AccountState" style="stroke: #A80036; stroke-width: 1.0;"/><polygon fill="#A80036" points="296,272.728,292,278.728,296,284.728,300,278.728,296,272.728" style="stroke: #A80036; stroke-width: 1.0;"/><text fill="#000000" font-family="sans-serif" font-size="13" lengthAdjust="spacingAndGlyphs" textLength="7" x="288.5078" y="365.9175">*</text><!--link EVM.ExecutionEnvironment to EVM.MachineCode--><path d="M124,330.53 C124,356.924 124,383.735 124,402.108 " fill="none" id="EVM.ExecutionEnvironment-EVM.MachineCode" style="stroke: #A80036; stroke-width: 1.0;"/><polygon fill="#A80036" points="124,317.23,120,323.23,124,329.23,128,323.23,124,317.23" style="stroke: #A80036; stroke-width: 1.0;"/><text fill="#000000" font-family="sans-serif" font-size="13" lengthAdjust="spacingAndGlyphs" textLength="8" x="115.025" y="391.4174">1</text><!--link EVM.MachineCode to EVM.Opcode--><path d="M124,463.864 C124,485.052 124,512.196 124,535.957 " fill="none" id="EVM.MachineCode-EVM.Opcode" style="stroke: #A80036; stroke-width: 1.0;"/><polygon fill="#A80036" points="124,450.579,120,456.579,124,462.579,128,456.579,124,450.579" style="stroke: #A80036; stroke-width: 1.0;"/><text fill="#000000" font-family="sans-serif" font-size="13" lengthAdjust="spacingAndGlyphs" textLength="7" x="116.5516" y="524.8895">*</text><!--
@startuml
skinparam classAttributeIconSize 0

namespace EVM {

  class MachineCode {
  }

  enum Opcode {
    STOP
    ADD
    MUL
    SUB
    ...
  }

  class ExecutionEnvironment {
    address codeOwner
    address sender
    int gasPrice
    byte[] inputData
    address causer
    int value
    int messageCallDepth
    BlockHeader presentHeader
  }

  class WorldState {
    address[] addr
  }

  class AccountState {
    int nonce
    int balance
    String storageRoot
    String codeHash
  }

  class MachineState {
    int availableGas
    int programCounter
    byte[] memoryContents
    int numberOfActiveWordsInMemory
    byte[] stackContents
  }

  class SubState {
    address[] selfdestructSet
    bytes[] logSeries
    address[] touchedAccounts
    bytes[] refundBalance
  }

  class IteratorFunction {
  }

  IteratorFunction *- - "1" WorldState
  IteratorFunction *- - "1" MachineState
  IteratorFunction *- - "1" SubState
  IteratorFunction *- - "1" ExecutionEnvironment
  WorldState *- - "*" AccountState
  ExecutionEnvironment *- - "1" MachineCode
  MachineCode *- - "*" Opcode
}
@enduml

PlantUML version 1.2018.13beta10(Unknown compile time)
(GPL source distribution)
Java Runtime: Java(TM) SE Runtime Environment
JVM: Java HotSpot(TM) 64-Bit Server VM
Java Version: 1.7.0_25-b15
Operating System: Linux
Default Encoding: UTF-8
Language: en
Country: US
--></g></svg>