<?xml version="1.0" encoding="UTF-8" standalone="no"?>
<svg xmlns="http://www.w3.org/2000/svg" xmlns:xlink="http://www.w3.org/1999/xlink" contentScriptType="application/ecmascript" contentStyleType="text/css" height="435px" preserveAspectRatio="none" style="width:502px;height:435px;" version="1.1" viewBox="0 0 502 435" width="502px" zoomAndPan="magnify"><defs><filter height="300%" id="fa8b7optxs1s9" width="300%" x="-1" y="-1"><feGaussianBlur result="blurOut" stdDeviation="2.0"/><feColorMatrix in="blurOut" result="blurOut2" type="matrix" values="0 0 0 0 0 0 0 0 0 0 0 0 0 0 0 0 0 0 .4 0"/><feOffset dx="4.0" dy="4.0" in="blurOut2" result="blurOut3"/><feBlend in="SourceGraphic" in2="blurOut3" mode="normal"/></filter></defs><g><!--cluster Ledger--><polygon fill="#FFFFFF" filter="url(#fa8b7optxs1s9)" points="22,24,84,24,91,46.2969,480,46.2969,480,423,22,423,22,24" style="stroke: #000000; stroke-width: 1.5;"/><line style="stroke: #000000; stroke-width: 1.5;" x1="22" x2="91" y1="46.2969" y2="46.2969"/><text fill="#000000" font-family="sans-serif" font-size="14" font-weight="bold" lengthAdjust="spacingAndGlyphs" textLength="56" x="26" y="38.9951">Ledger</text><!--class Ledger.Block--><rect fill="#FEFECE" filter="url(#fa8b7optxs1s9)" height="48" id="Ledger.Block" style="stroke: #A80036; stroke-width: 1.5;" width="65" x="239.5" y="59"/><ellipse cx="254.5" cy="75" fill="#ADD1B2" rx="11" ry="11" style="stroke: #A80036; stroke-width: 1.0;"/><path d="M256.8438,70.6719 L257.0156,70.75 C257.2344,70.4375 257.4375,70.3438 257.7344,70.3438 C258.0313,70.3438 258.3125,70.4844 258.4688,70.75 C258.5625,70.9063 258.5781,71.0313 258.5781,71.4688 L258.5781,72.8906 C258.5781,73.3125 258.5469,73.5 258.4375,73.6563 C258.2656,73.875 258,74.0156 257.7344,74.0156 C257.5156,74.0156 257.2813,73.9063 257.1406,73.7656 C257,73.6406 256.9688,73.5156 256.9063,73.1094 C256.8125,72.7031 256.6406,72.4844 256.1563,72.2031 C255.6875,71.9531 255.0781,71.7969 254.5,71.7969 C252.7656,71.7969 251.5156,73.1094 251.5156,74.8906 L251.5156,75.9844 C251.5156,77.6875 252.8125,78.7813 254.8594,78.7813 C255.625,78.7813 256.3125,78.6563 256.7344,78.3906 C256.9219,78.2969 256.9219,78.2969 257.375,77.8125 C257.5625,77.625 257.7656,77.5469 257.9844,77.5469 C258.4531,77.5469 258.8438,77.9375 258.8438,78.3906 C258.8438,78.7813 258.5156,79.2344 257.9375,79.6406 C257.1875,80.1875 256.0313,80.4844 254.8125,80.4844 C251.9219,80.4844 249.8125,78.5938 249.8125,76.0156 L249.8125,74.8906 C249.8125,72.1719 251.8125,70.0938 254.4375,70.0938 C255.3125,70.0938 255.9063,70.2344 256.8438,70.6719 Z "/><text fill="#000000" font-family="sans-serif" font-size="12" lengthAdjust="spacingAndGlyphs" textLength="33" x="268.5" y="79.1543">Block</text><line style="stroke: #A80036; stroke-width: 1.5;" x1="240.5" x2="303.5" y1="91" y2="91"/><line style="stroke: #A80036; stroke-width: 1.5;" x1="240.5" x2="303.5" y1="99" y2="99"/><!--class Ledger.BlockHeader--><rect fill="#FEFECE" filter="url(#fa8b7optxs1s9)" height="240.0703" id="Ledger.BlockHeader" style="stroke: #A80036; stroke-width: 1.5;" width="146" x="38" y="167"/><ellipse cx="68.75" cy="183" fill="#ADD1B2" rx="11" ry="11" style="stroke: #A80036; stroke-width: 1.0;"/><path d="M71.0938,178.6719 L71.2656,178.75 C71.4844,178.4375 71.6875,178.3438 71.9844,178.3438 C72.2813,178.3438 72.5625,178.4844 72.7188,178.75 C72.8125,178.9063 72.8281,179.0313 72.8281,179.4688 L72.8281,180.8906 C72.8281,181.3125 72.7969,181.5 72.6875,181.6563 C72.5156,181.875 72.25,182.0156 71.9844,182.0156 C71.7656,182.0156 71.5313,181.9063 71.3906,181.7656 C71.25,181.6406 71.2188,181.5156 71.1563,181.1094 C71.0625,180.7031 70.8906,180.4844 70.4063,180.2031 C69.9375,179.9531 69.3281,179.7969 68.75,179.7969 C67.0156,179.7969 65.7656,181.1094 65.7656,182.8906 L65.7656,183.9844 C65.7656,185.6875 67.0625,186.7813 69.1094,186.7813 C69.875,186.7813 70.5625,186.6563 70.9844,186.3906 C71.1719,186.2969 71.1719,186.2969 71.625,185.8125 C71.8125,185.625 72.0156,185.5469 72.2344,185.5469 C72.7031,185.5469 73.0938,185.9375 73.0938,186.3906 C73.0938,186.7813 72.7656,187.2344 72.1875,187.6406 C71.4375,188.1875 70.2813,188.4844 69.0625,188.4844 C66.1719,188.4844 64.0625,186.5938 64.0625,184.0156 L64.0625,182.8906 C64.0625,180.1719 66.0625,178.0938 68.6875,178.0938 C69.5625,178.0938 70.1563,178.2344 71.0938,178.6719 Z "/><text fill="#000000" font-family="sans-serif" font-size="12" lengthAdjust="spacingAndGlyphs" textLength="79" x="86.25" y="187.1543">BlockHeader</text><line style="stroke: #A80036; stroke-width: 1.5;" x1="39" x2="183" y1="199" y2="199"/><text fill="#000000" font-family="sans-serif" font-size="11" lengthAdjust="spacingAndGlyphs" textLength="104" x="44" y="213.2104">String parentHash</text><text fill="#000000" font-family="sans-serif" font-size="11" lengthAdjust="spacingAndGlyphs" textLength="115" x="44" y="226.0151">String ommersHash</text><text fill="#000000" font-family="sans-serif" font-size="11" lengthAdjust="spacingAndGlyphs" textLength="113" x="44" y="238.8198">address beneficiary</text><text fill="#000000" font-family="sans-serif" font-size="11" lengthAdjust="spacingAndGlyphs" textLength="92" x="44" y="251.6245">String stateRoot</text><text fill="#000000" font-family="sans-serif" font-size="11" lengthAdjust="spacingAndGlyphs" textLength="134" x="44" y="264.4292">String transactionsRoot</text><text fill="#000000" font-family="sans-serif" font-size="11" lengthAdjust="spacingAndGlyphs" textLength="109" x="44" y="277.2339">String receiptsRoot</text><text fill="#000000" font-family="sans-serif" font-size="11" lengthAdjust="spacingAndGlyphs" textLength="103" x="44" y="290.0386">bytes[] logsBloom</text><text fill="#000000" font-family="sans-serif" font-size="11" lengthAdjust="spacingAndGlyphs" textLength="65" x="44" y="302.8433">int difficulty</text><text fill="#000000" font-family="sans-serif" font-size="11" lengthAdjust="spacingAndGlyphs" textLength="92" x="44" y="315.6479">int blockNumber</text><text fill="#000000" font-family="sans-serif" font-size="11" lengthAdjust="spacingAndGlyphs" textLength="66" x="44" y="328.4526">int gasLimit</text><text fill="#000000" font-family="sans-serif" font-size="11" lengthAdjust="spacingAndGlyphs" textLength="68" x="44" y="341.2573">int gasUsed</text><text fill="#000000" font-family="sans-serif" font-size="11" lengthAdjust="spacingAndGlyphs" textLength="99" x="44" y="354.062">String timestamp</text><text fill="#000000" font-family="sans-serif" font-size="11" lengthAdjust="spacingAndGlyphs" textLength="91" x="44" y="366.8667">byte[] extraData</text><text fill="#000000" font-family="sans-serif" font-size="11" lengthAdjust="spacingAndGlyphs" textLength="87" x="44" y="379.6714">String mixHash</text><text fill="#000000" font-family="sans-serif" font-size="11" lengthAdjust="spacingAndGlyphs" textLength="52" x="44" y="392.4761">int nonce</text><line style="stroke: #A80036; stroke-width: 1.5;" x1="39" x2="183" y1="399.0703" y2="399.0703"/><!--class Ledger.Transaction--><rect fill="#FEFECE" filter="url(#fa8b7optxs1s9)" height="176.0469" id="Ledger.Transaction" style="stroke: #A80036; stroke-width: 1.5;" width="106" x="219" y="199"/><ellipse cx="234" cy="215" fill="#ADD1B2" rx="11" ry="11" style="stroke: #A80036; stroke-width: 1.0;"/><path d="M236.3438,210.6719 L236.5156,210.75 C236.7344,210.4375 236.9375,210.3438 237.2344,210.3438 C237.5313,210.3438 237.8125,210.4844 237.9688,210.75 C238.0625,210.9063 238.0781,211.0313 238.0781,211.4688 L238.0781,212.8906 C238.0781,213.3125 238.0469,213.5 237.9375,213.6563 C237.7656,213.875 237.5,214.0156 237.2344,214.0156 C237.0156,214.0156 236.7813,213.9063 236.6406,213.7656 C236.5,213.6406 236.4688,213.5156 236.4063,213.1094 C236.3125,212.7031 236.1406,212.4844 235.6563,212.2031 C235.1875,211.9531 234.5781,211.7969 234,211.7969 C232.2656,211.7969 231.0156,213.1094 231.0156,214.8906 L231.0156,215.9844 C231.0156,217.6875 232.3125,218.7813 234.3594,218.7813 C235.125,218.7813 235.8125,218.6563 236.2344,218.3906 C236.4219,218.2969 236.4219,218.2969 236.875,217.8125 C237.0625,217.625 237.2656,217.5469 237.4844,217.5469 C237.9531,217.5469 238.3438,217.9375 238.3438,218.3906 C238.3438,218.7813 238.0156,219.2344 237.4375,219.6406 C236.6875,220.1875 235.5313,220.4844 234.3125,220.4844 C231.4219,220.4844 229.3125,218.5938 229.3125,216.0156 L229.3125,214.8906 C229.3125,212.1719 231.3125,210.0938 233.9375,210.0938 C234.8125,210.0938 235.4063,210.2344 236.3438,210.6719 Z "/><text fill="#000000" font-family="sans-serif" font-size="12" lengthAdjust="spacingAndGlyphs" textLength="74" x="248" y="219.1543">Transaction</text><line style="stroke: #A80036; stroke-width: 1.5;" x1="220" x2="324" y1="231" y2="231"/><text fill="#000000" font-family="sans-serif" font-size="11" lengthAdjust="spacingAndGlyphs" textLength="52" x="225" y="245.2104">int nonce</text><text fill="#000000" font-family="sans-serif" font-size="11" lengthAdjust="spacingAndGlyphs" textLength="67" x="225" y="258.0151">int gasPrice</text><text fill="#000000" font-family="sans-serif" font-size="11" lengthAdjust="spacingAndGlyphs" textLength="66" x="225" y="270.8198">int gasLimit</text><text fill="#000000" font-family="sans-serif" font-size="11" lengthAdjust="spacingAndGlyphs" textLength="62" x="225" y="283.6245">address to</text><text fill="#000000" font-family="sans-serif" font-size="11" lengthAdjust="spacingAndGlyphs" textLength="48" x="225" y="296.4292">int value</text><text fill="#000000" font-family="sans-serif" font-size="11" lengthAdjust="spacingAndGlyphs" textLength="42" x="225" y="309.2339">byte[] v</text><text fill="#000000" font-family="sans-serif" font-size="11" lengthAdjust="spacingAndGlyphs" textLength="41" x="225" y="322.0386">byte[] r</text><text fill="#000000" font-family="sans-serif" font-size="11" lengthAdjust="spacingAndGlyphs" textLength="43" x="225" y="334.8433">byte[] s</text><text fill="#000000" font-family="sans-serif" font-size="11" lengthAdjust="spacingAndGlyphs" textLength="53" x="225" y="347.6479">byte[] init</text><text fill="#000000" font-family="sans-serif" font-size="11" lengthAdjust="spacingAndGlyphs" textLength="61" x="225" y="360.4526">byte[] data</text><line style="stroke: #A80036; stroke-width: 1.5;" x1="220" x2="324" y1="367.0469" y2="367.0469"/><!--class Ledger.OmmersList--><rect fill="#FEFECE" filter="url(#fa8b7optxs1s9)" height="48" id="Ledger.OmmersList" style="stroke: #A80036; stroke-width: 1.5;" width="104" x="360" y="263"/><ellipse cx="375" cy="279" fill="#ADD1B2" rx="11" ry="11" style="stroke: #A80036; stroke-width: 1.0;"/><path d="M377.3438,274.6719 L377.5156,274.75 C377.7344,274.4375 377.9375,274.3438 378.2344,274.3438 C378.5313,274.3438 378.8125,274.4844 378.9688,274.75 C379.0625,274.9063 379.0781,275.0313 379.0781,275.4688 L379.0781,276.8906 C379.0781,277.3125 379.0469,277.5 378.9375,277.6563 C378.7656,277.875 378.5,278.0156 378.2344,278.0156 C378.0156,278.0156 377.7813,277.9063 377.6406,277.7656 C377.5,277.6406 377.4688,277.5156 377.4063,277.1094 C377.3125,276.7031 377.1406,276.4844 376.6563,276.2031 C376.1875,275.9531 375.5781,275.7969 375,275.7969 C373.2656,275.7969 372.0156,277.1094 372.0156,278.8906 L372.0156,279.9844 C372.0156,281.6875 373.3125,282.7813 375.3594,282.7813 C376.125,282.7813 376.8125,282.6563 377.2344,282.3906 C377.4219,282.2969 377.4219,282.2969 377.875,281.8125 C378.0625,281.625 378.2656,281.5469 378.4844,281.5469 C378.9531,281.5469 379.3438,281.9375 379.3438,282.3906 C379.3438,282.7813 379.0156,283.2344 378.4375,283.6406 C377.6875,284.1875 376.5313,284.4844 375.3125,284.4844 C372.4219,284.4844 370.3125,282.5938 370.3125,280.0156 L370.3125,278.8906 C370.3125,276.1719 372.3125,274.0938 374.9375,274.0938 C375.8125,274.0938 376.4063,274.2344 377.3438,274.6719 Z "/><text fill="#000000" font-family="sans-serif" font-size="12" lengthAdjust="spacingAndGlyphs" textLength="72" x="389" y="283.1543">OmmersList</text><line style="stroke: #A80036; stroke-width: 1.5;" x1="361" x2="463" y1="295" y2="295"/><line style="stroke: #A80036; stroke-width: 1.5;" x1="361" x2="463" y1="303" y2="303"/><!--link Ledger.Block to Ledger.BlockHeader--><path d="M243.618,116.917 C230.744,132.035 215.428,150.283 202,167 C196.136,174.299 190.122,181.899 184.116,189.571 " fill="none" id="Ledger.Block-Ledger.BlockHeader" style="stroke: #A80036; stroke-width: 1.0;"/><polygon fill="#A80036" points="252.088,107.008,245.1491,108.9706,244.292,116.1306,251.2309,114.168,252.088,107.008" style="stroke: #A80036; stroke-width: 1.0;"/><text fill="#000000" font-family="sans-serif" font-size="13" lengthAdjust="spacingAndGlyphs" textLength="8" x="192.0686" y="175.8203">1</text><!--link Ledger.Block to Ledger.Transaction--><path d="M272,120.472 C272,142.369 272,171.228 272,198.708 " fill="none" id="Ledger.Block-Ledger.Transaction" style="stroke: #A80036; stroke-width: 1.0;"/><polygon fill="#A80036" points="272,107.172,268,113.172,272,119.172,276,113.172,272,107.172" style="stroke: #A80036; stroke-width: 1.0;"/><text fill="#000000" font-family="sans-serif" font-size="13" lengthAdjust="spacingAndGlyphs" textLength="7" x="264.7102" y="187.8457">*</text><!--link Ledger.Block to Ledger.OmmersList--><path d="M302.421,116.743 C315.561,131.579 330.706,149.653 343,167 C365.508,198.76 387.327,238.319 400.209,262.87 " fill="none" id="Ledger.Block-Ledger.OmmersList" style="stroke: #A80036; stroke-width: 1.0;"/><polygon fill="#A80036" points="293.704,107.038,294.7376,114.1746,301.7228,115.9654,300.6892,108.8288,293.704,107.038" style="stroke: #A80036; stroke-width: 1.0;"/><text fill="#000000" font-family="sans-serif" font-size="13" lengthAdjust="spacingAndGlyphs" textLength="8" x="388.1626" y="251.8487">1</text><!--
@startuml
skinparam classAttributeIconSize 0

namespace Ledger {

  class Block {
  }

  class BlockHeader {
    String parentHash
    String ommersHash
    address beneficiary
    String stateRoot
    String transactionsRoot
    String receiptsRoot
    bytes[] logsBloom
    int difficulty
    int blockNumber
    int gasLimit
    int gasUsed
    String timestamp
    byte[] extraData
    String mixHash
    int nonce
  }

  class Transaction {
    int nonce
    int gasPrice
    int gasLimit
    address to
    int value
    byte[] v
    byte[] r
    byte[] s
    byte[] init
    byte[] data
  }

  Block *- - "1" BlockHeader
  Block *- - "*" Transaction
  Block *- - "1" OmmersList
}
@enduml

PlantUML version 1.2018.13beta10(Unknown compile time)
(GPL source distribution)
Java Runtime: Java(TM) SE Runtime Environment
JVM: Java HotSpot(TM) 64-Bit Server VM
Java Version: 1.7.0_25-b15
Operating System: Linux
Default Encoding: UTF-8
Language: en
Country: US
--></g></svg>