<?xml version="1.0" encoding="UTF-8" standalone="no"?>
<svg xmlns="http://www.w3.org/2000/svg" xmlns:xlink="http://www.w3.org/1999/xlink" contentScriptType="application/ecmascript" contentStyleType="text/css" height="882px" preserveAspectRatio="none" style="width:884px;height:882px;" version="1.1" viewBox="0 0 884 882" width="884px" zoomAndPan="magnify"><defs><filter height="300%" id="f1laol3mntpyea" width="300%" x="-1" y="-1"><feGaussianBlur result="blurOut" stdDeviation="2.0"/><feColorMatrix in="blurOut" result="blurOut2" type="matrix" values="0 0 0 0 0 0 0 0 0 0 0 0 0 0 0 0 0 0 .4 0"/><feOffset dx="4.0" dy="4.0" in="blurOut2" result="blurOut3"/><feBlend in="SourceGraphic" in2="blurOut3" mode="normal"/></filter></defs><g><!--cluster Source--><polygon fill="#FFFFFF" filter="url(#f1laol3mntpyea)" points="22,24,84,24,91,46.2969,862,46.2969,862,870,22,870,22,24" style="stroke: #000000; stroke-width: 1.5;"/><line style="stroke: #000000; stroke-width: 1.5;" x1="22" x2="91" y1="46.2969" y2="46.2969"/><text fill="#000000" font-family="sans-serif" font-size="14" font-weight="bold" lengthAdjust="spacingAndGlyphs" textLength="56" x="26" y="38.9951">Source</text><!--class Source.Contract--><rect fill="#FEFECE" filter="url(#f1laol3mntpyea)" height="73.6094" id="Source.Contract" style="stroke: #A80036; stroke-width: 1.5;" width="124" x="505" y="168"/><ellipse cx="537.1" cy="184" fill="#ADD1B2" rx="11" ry="11" style="stroke: #A80036; stroke-width: 1.0;"/><path d="M539.4438,179.6719 L539.6156,179.75 C539.8344,179.4375 540.0375,179.3438 540.3344,179.3438 C540.6313,179.3438 540.9125,179.4844 541.0688,179.75 C541.1625,179.9063 541.1781,180.0313 541.1781,180.4688 L541.1781,181.8906 C541.1781,182.3125 541.1469,182.5 541.0375,182.6563 C540.8656,182.875 540.6,183.0156 540.3344,183.0156 C540.1156,183.0156 539.8813,182.9063 539.7406,182.7656 C539.6,182.6406 539.5688,182.5156 539.5063,182.1094 C539.4125,181.7031 539.2406,181.4844 538.7563,181.2031 C538.2875,180.9531 537.6781,180.7969 537.1,180.7969 C535.3656,180.7969 534.1156,182.1094 534.1156,183.8906 L534.1156,184.9844 C534.1156,186.6875 535.4125,187.7813 537.4594,187.7813 C538.225,187.7813 538.9125,187.6563 539.3344,187.3906 C539.5219,187.2969 539.5219,187.2969 539.975,186.8125 C540.1625,186.625 540.3656,186.5469 540.5844,186.5469 C541.0531,186.5469 541.4438,186.9375 541.4438,187.3906 C541.4438,187.7813 541.1156,188.2344 540.5375,188.6406 C539.7875,189.1875 538.6313,189.4844 537.4125,189.4844 C534.5219,189.4844 532.4125,187.5938 532.4125,185.0156 L532.4125,183.8906 C532.4125,181.1719 534.4125,179.0938 537.0375,179.0938 C537.9125,179.0938 538.5063,179.2344 539.4438,179.6719 Z "/><text fill="#000000" font-family="sans-serif" font-size="12" lengthAdjust="spacingAndGlyphs" textLength="54" x="554.9" y="188.1543">Contract</text><line style="stroke: #A80036; stroke-width: 1.5;" x1="506" x2="628" y1="200" y2="200"/><text fill="#000000" font-family="sans-serif" font-size="11" lengthAdjust="spacingAndGlyphs" textLength="70" x="511" y="214.2104">String name</text><text fill="#000000" font-family="sans-serif" font-size="11" lengthAdjust="spacingAndGlyphs" textLength="112" x="511" y="227.0151">boolean is_abstract</text><line style="stroke: #A80036; stroke-width: 1.5;" x1="506" x2="628" y1="233.6094" y2="233.6094"/><!--class Source.Library--><rect fill="#FEFECE" filter="url(#f1laol3mntpyea)" height="60.8047" id="Source.Library" style="stroke: #A80036; stroke-width: 1.5;" width="82" x="764" y="338"/><ellipse cx="783.05" cy="354" fill="#ADD1B2" rx="11" ry="11" style="stroke: #A80036; stroke-width: 1.0;"/><path d="M785.3938,349.6719 L785.5656,349.75 C785.7844,349.4375 785.9875,349.3438 786.2844,349.3438 C786.5813,349.3438 786.8625,349.4844 787.0188,349.75 C787.1125,349.9063 787.1281,350.0313 787.1281,350.4688 L787.1281,351.8906 C787.1281,352.3125 787.0969,352.5 786.9875,352.6563 C786.8156,352.875 786.55,353.0156 786.2844,353.0156 C786.0656,353.0156 785.8313,352.9063 785.6906,352.7656 C785.55,352.6406 785.5188,352.5156 785.4563,352.1094 C785.3625,351.7031 785.1906,351.4844 784.7063,351.2031 C784.2375,350.9531 783.6281,350.7969 783.05,350.7969 C781.3156,350.7969 780.0656,352.1094 780.0656,353.8906 L780.0656,354.9844 C780.0656,356.6875 781.3625,357.7813 783.4094,357.7813 C784.175,357.7813 784.8625,357.6563 785.2844,357.3906 C785.4719,357.2969 785.4719,357.2969 785.925,356.8125 C786.1125,356.625 786.3156,356.5469 786.5344,356.5469 C787.0031,356.5469 787.3938,356.9375 787.3938,357.3906 C787.3938,357.7813 787.0656,358.2344 786.4875,358.6406 C785.7375,359.1875 784.5813,359.4844 783.3625,359.4844 C780.4719,359.4844 778.3625,357.5938 778.3625,355.0156 L778.3625,353.8906 C778.3625,351.1719 780.3625,349.0938 782.9875,349.0938 C783.8625,349.0938 784.4563,349.2344 785.3938,349.6719 Z "/><text fill="#000000" font-family="sans-serif" font-size="12" lengthAdjust="spacingAndGlyphs" textLength="41" x="797.95" y="358.1543">Library</text><line style="stroke: #A80036; stroke-width: 1.5;" x1="765" x2="845" y1="370" y2="370"/><text fill="#000000" font-family="sans-serif" font-size="11" lengthAdjust="spacingAndGlyphs" textLength="70" x="770" y="384.2104">String name</text><line style="stroke: #A80036; stroke-width: 1.5;" x1="765" x2="845" y1="390.8047" y2="390.8047"/><!--class Source.Variable--><rect fill="#FEFECE" filter="url(#f1laol3mntpyea)" height="60.8047" id="Source.Variable" style="stroke: #A80036; stroke-width: 1.5;" width="83" x="38.5" y="338"/><ellipse cx="53.5" cy="354" fill="#ADD1B2" rx="11" ry="11" style="stroke: #A80036; stroke-width: 1.0;"/><path d="M55.8438,349.6719 L56.0156,349.75 C56.2344,349.4375 56.4375,349.3438 56.7344,349.3438 C57.0313,349.3438 57.3125,349.4844 57.4688,349.75 C57.5625,349.9063 57.5781,350.0313 57.5781,350.4688 L57.5781,351.8906 C57.5781,352.3125 57.5469,352.5 57.4375,352.6563 C57.2656,352.875 57,353.0156 56.7344,353.0156 C56.5156,353.0156 56.2813,352.9063 56.1406,352.7656 C56,352.6406 55.9688,352.5156 55.9063,352.1094 C55.8125,351.7031 55.6406,351.4844 55.1563,351.2031 C54.6875,350.9531 54.0781,350.7969 53.5,350.7969 C51.7656,350.7969 50.5156,352.1094 50.5156,353.8906 L50.5156,354.9844 C50.5156,356.6875 51.8125,357.7813 53.8594,357.7813 C54.625,357.7813 55.3125,357.6563 55.7344,357.3906 C55.9219,357.2969 55.9219,357.2969 56.375,356.8125 C56.5625,356.625 56.7656,356.5469 56.9844,356.5469 C57.4531,356.5469 57.8438,356.9375 57.8438,357.3906 C57.8438,357.7813 57.5156,358.2344 56.9375,358.6406 C56.1875,359.1875 55.0313,359.4844 53.8125,359.4844 C50.9219,359.4844 48.8125,357.5938 48.8125,355.0156 L48.8125,353.8906 C48.8125,351.1719 50.8125,349.0938 53.4375,349.0938 C54.3125,349.0938 54.9063,349.2344 55.8438,349.6719 Z "/><text fill="#000000" font-family="sans-serif" font-size="12" lengthAdjust="spacingAndGlyphs" textLength="51" x="67.5" y="358.1543">Variable</text><line style="stroke: #A80036; stroke-width: 1.5;" x1="39.5" x2="120.5" y1="370" y2="370"/><text fill="#000000" font-family="sans-serif" font-size="11" lengthAdjust="spacingAndGlyphs" textLength="70" x="44.5" y="384.2104">String name</text><line style="stroke: #A80036; stroke-width: 1.5;" x1="39.5" x2="120.5" y1="390.8047" y2="390.8047"/><!--class Source.Type--><rect fill="#FEFECE" filter="url(#f1laol3mntpyea)" height="53.9375" id="Source.Type" style="stroke: #A80036; stroke-width: 1.5;" width="94" x="83" y="601"/><ellipse cx="98" cy="619.9688" fill="#ADD1B2" rx="11" ry="11" style="stroke: #A80036; stroke-width: 1.0;"/><path d="M100.3438,615.6406 L100.5156,615.7188 C100.7344,615.4063 100.9375,615.3125 101.2344,615.3125 C101.5313,615.3125 101.8125,615.4531 101.9688,615.7188 C102.0625,615.875 102.0781,616 102.0781,616.4375 L102.0781,617.8594 C102.0781,618.2813 102.0469,618.4688 101.9375,618.625 C101.7656,618.8438 101.5,618.9844 101.2344,618.9844 C101.0156,618.9844 100.7813,618.875 100.6406,618.7344 C100.5,618.6094 100.4688,618.4844 100.4063,618.0781 C100.3125,617.6719 100.1406,617.4531 99.6563,617.1719 C99.1875,616.9219 98.5781,616.7656 98,616.7656 C96.2656,616.7656 95.0156,618.0781 95.0156,619.8594 L95.0156,620.9531 C95.0156,622.6563 96.3125,623.75 98.3594,623.75 C99.125,623.75 99.8125,623.625 100.2344,623.3594 C100.4219,623.2656 100.4219,623.2656 100.875,622.7813 C101.0625,622.5938 101.2656,622.5156 101.4844,622.5156 C101.9531,622.5156 102.3438,622.9063 102.3438,623.3594 C102.3438,623.75 102.0156,624.2031 101.4375,624.6094 C100.6875,625.1563 99.5313,625.4531 98.3125,625.4531 C95.4219,625.4531 93.3125,623.5625 93.3125,620.9844 L93.3125,619.8594 C93.3125,617.1406 95.3125,615.0625 97.9375,615.0625 C98.8125,615.0625 99.4063,615.2031 100.3438,615.6406 Z "/><text fill="#000000" font-family="sans-serif" font-size="12" font-style="italic" lengthAdjust="spacingAndGlyphs" textLength="66" x="110" y="617.1387">«abstract»</text><text fill="#000000" font-family="sans-serif" font-size="12" lengthAdjust="spacingAndGlyphs" textLength="29" x="128.5" y="631.1074">Type</text><line style="stroke: #A80036; stroke-width: 1.5;" x1="84" x2="176" y1="638.9375" y2="638.9375"/><line style="stroke: #A80036; stroke-width: 1.5;" x1="84" x2="176" y1="646.9375" y2="646.9375"/><!--class Source.DataType--><rect fill="#FEFECE" filter="url(#f1laol3mntpyea)" height="137.6328" id="Source.DataType" style="stroke: #A80036; stroke-width: 1.5;" width="91" x="49.5" y="716"/><ellipse cx="64.5" cy="732" fill="#EB937F" rx="11" ry="11" style="stroke: #A80036; stroke-width: 1.0;"/><path d="M62.7969,732.875 L62.7969,735.2969 L67.1563,735.2969 L67.1563,734.4219 C67.1563,733.9375 67.1875,733.7969 67.2969,733.6406 C67.4688,733.3906 67.7344,733.2813 68,733.2813 C68.2813,733.2813 68.5625,733.4375 68.7344,733.6875 C68.8125,733.8438 68.8438,733.9844 68.8438,734.4219 L68.8438,737 L60.8438,737 C60.4531,737 60.2188,736.9531 60.0781,736.8281 C59.8594,736.6719 59.7188,736.4219 59.7188,736.1563 C59.7188,735.8594 59.875,735.5938 60.125,735.4219 C60.2813,735.3125 60.4375,735.2969 60.8438,735.2969 L61.0938,735.2969 L61.0938,728.7813 L60.8438,728.7813 C60.4219,728.7813 60.2344,728.75 60.0781,728.6406 C59.8594,728.4688 59.7188,728.2188 59.7188,727.9375 C59.7188,727.6563 59.875,727.3594 60.125,727.2031 C60.2813,727.1094 60.4063,727.0938 60.8438,727.0938 L68.4688,727.0938 L68.4688,729.6406 C68.4688,730.1094 68.4375,730.25 68.3281,730.4219 C68.1563,730.6406 67.8906,730.7813 67.625,730.7813 C67.3438,730.7813 67.0625,730.625 66.8906,730.375 C66.8125,730.2188 66.7813,730.0469 66.7813,729.6406 L66.7813,728.7813 L62.7969,728.7813 L62.7969,731.1875 L64.25,731.1875 L64.25,731.0625 C64.25,730.6094 64.2813,730.4531 64.3906,730.2813 C64.5625,730.0625 64.8281,729.9219 65.0781,729.9219 C65.5313,729.9219 65.8438,730.2344 65.9063,730.7031 C65.9219,730.8594 65.9219,730.9063 65.9219,731.0625 L65.9219,732.9844 C65.9219,733.4375 65.8906,733.5938 65.7656,733.75 C65.6094,733.9688 65.3438,734.1094 65.0938,734.1094 C64.7969,734.1094 64.5156,733.9531 64.3594,733.7031 C64.2813,733.5469 64.25,733.3906 64.25,732.9844 L64.25,732.875 Z "/><text fill="#000000" font-family="sans-serif" font-size="12" lengthAdjust="spacingAndGlyphs" textLength="59" x="78.5" y="736.1543">DataType</text><line style="stroke: #A80036; stroke-width: 1.5;" x1="50.5" x2="139.5" y1="748" y2="748"/><text fill="#000000" font-family="sans-serif" font-size="11" lengthAdjust="spacingAndGlyphs" textLength="18" x="55.5" y="762.2104">INT</text><text fill="#000000" font-family="sans-serif" font-size="11" lengthAdjust="spacingAndGlyphs" textLength="26" x="55.5" y="775.0151">UINT</text><text fill="#000000" font-family="sans-serif" font-size="11" lengthAdjust="spacingAndGlyphs" textLength="32" x="55.5" y="787.8198">BOOL</text><text fill="#000000" font-family="sans-serif" font-size="11" lengthAdjust="spacingAndGlyphs" textLength="35" x="55.5" y="800.6245">ARRAY</text><text fill="#000000" font-family="sans-serif" font-size="11" lengthAdjust="spacingAndGlyphs" textLength="45" x="55.5" y="813.4292">STRUCT</text><text fill="#000000" font-family="sans-serif" font-size="11" lengthAdjust="spacingAndGlyphs" textLength="32" x="55.5" y="826.2339">ENUM</text><text fill="#000000" font-family="sans-serif" font-size="11" lengthAdjust="spacingAndGlyphs" textLength="50" x="55.5" y="839.0386">MAPPING</text><line style="stroke: #A80036; stroke-width: 1.5;" x1="50.5" x2="139.5" y1="845.6328" y2="845.6328"/><!--class Source.ObjectType--><rect fill="#FEFECE" filter="url(#f1laol3mntpyea)" height="99.2188" id="Source.ObjectType" style="stroke: #A80036; stroke-width: 1.5;" width="101" x="175.5" y="735.5"/><ellipse cx="190.5" cy="751.5" fill="#EB937F" rx="11" ry="11" style="stroke: #A80036; stroke-width: 1.0;"/><path d="M188.7969,752.375 L188.7969,754.7969 L193.1563,754.7969 L193.1563,753.9219 C193.1563,753.4375 193.1875,753.2969 193.2969,753.1406 C193.4688,752.8906 193.7344,752.7813 194,752.7813 C194.2813,752.7813 194.5625,752.9375 194.7344,753.1875 C194.8125,753.3438 194.8438,753.4844 194.8438,753.9219 L194.8438,756.5 L186.8438,756.5 C186.4531,756.5 186.2188,756.4531 186.0781,756.3281 C185.8594,756.1719 185.7188,755.9219 185.7188,755.6563 C185.7188,755.3594 185.875,755.0938 186.125,754.9219 C186.2813,754.8125 186.4375,754.7969 186.8438,754.7969 L187.0938,754.7969 L187.0938,748.2813 L186.8438,748.2813 C186.4219,748.2813 186.2344,748.25 186.0781,748.1406 C185.8594,747.9688 185.7188,747.7188 185.7188,747.4375 C185.7188,747.1563 185.875,746.8594 186.125,746.7031 C186.2813,746.6094 186.4063,746.5938 186.8438,746.5938 L194.4688,746.5938 L194.4688,749.1406 C194.4688,749.6094 194.4375,749.75 194.3281,749.9219 C194.1563,750.1406 193.8906,750.2813 193.625,750.2813 C193.3438,750.2813 193.0625,750.125 192.8906,749.875 C192.8125,749.7188 192.7813,749.5469 192.7813,749.1406 L192.7813,748.2813 L188.7969,748.2813 L188.7969,750.6875 L190.25,750.6875 L190.25,750.5625 C190.25,750.1094 190.2813,749.9531 190.3906,749.7813 C190.5625,749.5625 190.8281,749.4219 191.0781,749.4219 C191.5313,749.4219 191.8438,749.7344 191.9063,750.2031 C191.9219,750.3594 191.9219,750.4063 191.9219,750.5625 L191.9219,752.4844 C191.9219,752.9375 191.8906,753.0938 191.7656,753.25 C191.6094,753.4688 191.3438,753.6094 191.0938,753.6094 C190.7969,753.6094 190.5156,753.4531 190.3594,753.2031 C190.2813,753.0469 190.25,752.8906 190.25,752.4844 L190.25,752.375 Z "/><text fill="#000000" font-family="sans-serif" font-size="12" lengthAdjust="spacingAndGlyphs" textLength="69" x="204.5" y="755.6543">ObjectType</text><line style="stroke: #A80036; stroke-width: 1.5;" x1="176.5" x2="275.5" y1="767.5" y2="767.5"/><text fill="#000000" font-family="sans-serif" font-size="11" lengthAdjust="spacingAndGlyphs" textLength="38" x="181.5" y="781.7104">BLOCK</text><text fill="#000000" font-family="sans-serif" font-size="11" lengthAdjust="spacingAndGlyphs" textLength="26" x="181.5" y="794.5151">MSG</text><text fill="#000000" font-family="sans-serif" font-size="11" lengthAdjust="spacingAndGlyphs" textLength="14" x="181.5" y="807.3198">TX</text><text fill="#000000" font-family="sans-serif" font-size="11" lengthAdjust="spacingAndGlyphs" textLength="53" x="181.5" y="820.1245">ADDRESS</text><line style="stroke: #A80036; stroke-width: 1.5;" x1="176.5" x2="275.5" y1="826.7188" y2="826.7188"/><!--class Source.Function--><rect fill="#FEFECE" filter="url(#f1laol3mntpyea)" height="73.6094" id="Source.Function" style="stroke: #A80036; stroke-width: 1.5;" width="124" x="317" y="331.5"/><ellipse cx="349.1" cy="347.5" fill="#ADD1B2" rx="11" ry="11" style="stroke: #A80036; stroke-width: 1.0;"/><path d="M351.4438,343.1719 L351.6156,343.25 C351.8344,342.9375 352.0375,342.8438 352.3344,342.8438 C352.6313,342.8438 352.9125,342.9844 353.0688,343.25 C353.1625,343.4063 353.1781,343.5313 353.1781,343.9688 L353.1781,345.3906 C353.1781,345.8125 353.1469,346 353.0375,346.1563 C352.8656,346.375 352.6,346.5156 352.3344,346.5156 C352.1156,346.5156 351.8813,346.4063 351.7406,346.2656 C351.6,346.1406 351.5688,346.0156 351.5063,345.6094 C351.4125,345.2031 351.2406,344.9844 350.7563,344.7031 C350.2875,344.4531 349.6781,344.2969 349.1,344.2969 C347.3656,344.2969 346.1156,345.6094 346.1156,347.3906 L346.1156,348.4844 C346.1156,350.1875 347.4125,351.2813 349.4594,351.2813 C350.225,351.2813 350.9125,351.1563 351.3344,350.8906 C351.5219,350.7969 351.5219,350.7969 351.975,350.3125 C352.1625,350.125 352.3656,350.0469 352.5844,350.0469 C353.0531,350.0469 353.4438,350.4375 353.4438,350.8906 C353.4438,351.2813 353.1156,351.7344 352.5375,352.1406 C351.7875,352.6875 350.6313,352.9844 349.4125,352.9844 C346.5219,352.9844 344.4125,351.0938 344.4125,348.5156 L344.4125,347.3906 C344.4125,344.6719 346.4125,342.5938 349.0375,342.5938 C349.9125,342.5938 350.5063,342.7344 351.4438,343.1719 Z "/><text fill="#000000" font-family="sans-serif" font-size="12" lengthAdjust="spacingAndGlyphs" textLength="54" x="366.9" y="351.6543">Function</text><line style="stroke: #A80036; stroke-width: 1.5;" x1="318" x2="440" y1="363.5" y2="363.5"/><text fill="#000000" font-family="sans-serif" font-size="11" lengthAdjust="spacingAndGlyphs" textLength="70" x="323" y="377.7104">String name</text><text fill="#000000" font-family="sans-serif" font-size="11" lengthAdjust="spacingAndGlyphs" textLength="112" x="323" y="390.5151">boolean is_abstract</text><line style="stroke: #A80036; stroke-width: 1.5;" x1="318" x2="440" y1="397.1094" y2="397.1094"/><!--class Source.Event--><rect fill="#FEFECE" filter="url(#f1laol3mntpyea)" height="60.8047" id="Source.Event" style="stroke: #A80036; stroke-width: 1.5;" width="82" x="647" y="338"/><ellipse cx="668.75" cy="354" fill="#ADD1B2" rx="11" ry="11" style="stroke: #A80036; stroke-width: 1.0;"/><path d="M671.0938,349.6719 L671.2656,349.75 C671.4844,349.4375 671.6875,349.3438 671.9844,349.3438 C672.2813,349.3438 672.5625,349.4844 672.7188,349.75 C672.8125,349.9063 672.8281,350.0313 672.8281,350.4688 L672.8281,351.8906 C672.8281,352.3125 672.7969,352.5 672.6875,352.6563 C672.5156,352.875 672.25,353.0156 671.9844,353.0156 C671.7656,353.0156 671.5313,352.9063 671.3906,352.7656 C671.25,352.6406 671.2188,352.5156 671.1563,352.1094 C671.0625,351.7031 670.8906,351.4844 670.4063,351.2031 C669.9375,350.9531 669.3281,350.7969 668.75,350.7969 C667.0156,350.7969 665.7656,352.1094 665.7656,353.8906 L665.7656,354.9844 C665.7656,356.6875 667.0625,357.7813 669.1094,357.7813 C669.875,357.7813 670.5625,357.6563 670.9844,357.3906 C671.1719,357.2969 671.1719,357.2969 671.625,356.8125 C671.8125,356.625 672.0156,356.5469 672.2344,356.5469 C672.7031,356.5469 673.0938,356.9375 673.0938,357.3906 C673.0938,357.7813 672.7656,358.2344 672.1875,358.6406 C671.4375,359.1875 670.2813,359.4844 669.0625,359.4844 C666.1719,359.4844 664.0625,357.5938 664.0625,355.0156 L664.0625,353.8906 C664.0625,351.1719 666.0625,349.0938 668.6875,349.0938 C669.5625,349.0938 670.1563,349.2344 671.0938,349.6719 Z "/><text fill="#000000" font-family="sans-serif" font-size="12" lengthAdjust="spacingAndGlyphs" textLength="35" x="684.25" y="358.1543">Event</text><line style="stroke: #A80036; stroke-width: 1.5;" x1="648" x2="728" y1="370" y2="370"/><text fill="#000000" font-family="sans-serif" font-size="11" lengthAdjust="spacingAndGlyphs" textLength="70" x="653" y="384.2104">String name</text><line style="stroke: #A80036; stroke-width: 1.5;" x1="648" x2="728" y1="390.8047" y2="390.8047"/><!--class Source.Statement--><rect fill="#FEFECE" filter="url(#f1laol3mntpyea)" height="48" id="Source.Statement" style="stroke: #A80036; stroke-width: 1.5;" width="98" x="534" y="485.5"/><ellipse cx="549" cy="501.5" fill="#ADD1B2" rx="11" ry="11" style="stroke: #A80036; stroke-width: 1.0;"/><path d="M551.3438,497.1719 L551.5156,497.25 C551.7344,496.9375 551.9375,496.8438 552.2344,496.8438 C552.5313,496.8438 552.8125,496.9844 552.9688,497.25 C553.0625,497.4063 553.0781,497.5313 553.0781,497.9688 L553.0781,499.3906 C553.0781,499.8125 553.0469,500 552.9375,500.1563 C552.7656,500.375 552.5,500.5156 552.2344,500.5156 C552.0156,500.5156 551.7813,500.4063 551.6406,500.2656 C551.5,500.1406 551.4688,500.0156 551.4063,499.6094 C551.3125,499.2031 551.1406,498.9844 550.6563,498.7031 C550.1875,498.4531 549.5781,498.2969 549,498.2969 C547.2656,498.2969 546.0156,499.6094 546.0156,501.3906 L546.0156,502.4844 C546.0156,504.1875 547.3125,505.2813 549.3594,505.2813 C550.125,505.2813 550.8125,505.1563 551.2344,504.8906 C551.4219,504.7969 551.4219,504.7969 551.875,504.3125 C552.0625,504.125 552.2656,504.0469 552.4844,504.0469 C552.9531,504.0469 553.3438,504.4375 553.3438,504.8906 C553.3438,505.2813 553.0156,505.7344 552.4375,506.1406 C551.6875,506.6875 550.5313,506.9844 549.3125,506.9844 C546.4219,506.9844 544.3125,505.0938 544.3125,502.5156 L544.3125,501.3906 C544.3125,498.6719 546.3125,496.5938 548.9375,496.5938 C549.8125,496.5938 550.4063,496.7344 551.3438,497.1719 Z "/><text fill="#000000" font-family="sans-serif" font-size="12" lengthAdjust="spacingAndGlyphs" textLength="66" x="563" y="505.6543">Statement</text><line style="stroke: #A80036; stroke-width: 1.5;" x1="535" x2="631" y1="517.5" y2="517.5"/><line style="stroke: #A80036; stroke-width: 1.5;" x1="535" x2="631" y1="525.5" y2="525.5"/><!--class Source.FunctionArgument--><rect fill="#FEFECE" filter="url(#f1laol3mntpyea)" height="60.8047" id="Source.FunctionArgument" style="stroke: #A80036; stroke-width: 1.5;" width="147" x="667.5" y="479"/><ellipse cx="682.5" cy="495" fill="#ADD1B2" rx="11" ry="11" style="stroke: #A80036; stroke-width: 1.0;"/><path d="M684.8438,490.6719 L685.0156,490.75 C685.2344,490.4375 685.4375,490.3438 685.7344,490.3438 C686.0313,490.3438 686.3125,490.4844 686.4688,490.75 C686.5625,490.9063 686.5781,491.0313 686.5781,491.4688 L686.5781,492.8906 C686.5781,493.3125 686.5469,493.5 686.4375,493.6563 C686.2656,493.875 686,494.0156 685.7344,494.0156 C685.5156,494.0156 685.2813,493.9063 685.1406,493.7656 C685,493.6406 684.9688,493.5156 684.9063,493.1094 C684.8125,492.7031 684.6406,492.4844 684.1563,492.2031 C683.6875,491.9531 683.0781,491.7969 682.5,491.7969 C680.7656,491.7969 679.5156,493.1094 679.5156,494.8906 L679.5156,495.9844 C679.5156,497.6875 680.8125,498.7813 682.8594,498.7813 C683.625,498.7813 684.3125,498.6563 684.7344,498.3906 C684.9219,498.2969 684.9219,498.2969 685.375,497.8125 C685.5625,497.625 685.7656,497.5469 685.9844,497.5469 C686.4531,497.5469 686.8438,497.9375 686.8438,498.3906 C686.8438,498.7813 686.5156,499.2344 685.9375,499.6406 C685.1875,500.1875 684.0313,500.4844 682.8125,500.4844 C679.9219,500.4844 677.8125,498.5938 677.8125,496.0156 L677.8125,494.8906 C677.8125,492.1719 679.8125,490.0938 682.4375,490.0938 C683.3125,490.0938 683.9063,490.2344 684.8438,490.6719 Z "/><text fill="#000000" font-family="sans-serif" font-size="12" lengthAdjust="spacingAndGlyphs" textLength="115" x="696.5" y="499.1543">FunctionArgument</text><line style="stroke: #A80036; stroke-width: 1.5;" x1="668.5" x2="813.5" y1="511" y2="511"/><text fill="#000000" font-family="sans-serif" font-size="11" lengthAdjust="spacingAndGlyphs" textLength="70" x="673.5" y="525.2104">String name</text><line style="stroke: #A80036; stroke-width: 1.5;" x1="668.5" x2="813.5" y1="531.8047" y2="531.8047"/><!--class Source.ReturnValue--><rect fill="#FEFECE" filter="url(#f1laol3mntpyea)" height="60.8047" id="Source.ReturnValue" style="stroke: #A80036; stroke-width: 1.5;" width="109" x="75.5" y="479"/><ellipse cx="90.5" cy="495" fill="#ADD1B2" rx="11" ry="11" style="stroke: #A80036; stroke-width: 1.0;"/><path d="M92.8438,490.6719 L93.0156,490.75 C93.2344,490.4375 93.4375,490.3438 93.7344,490.3438 C94.0313,490.3438 94.3125,490.4844 94.4688,490.75 C94.5625,490.9063 94.5781,491.0313 94.5781,491.4688 L94.5781,492.8906 C94.5781,493.3125 94.5469,493.5 94.4375,493.6563 C94.2656,493.875 94,494.0156 93.7344,494.0156 C93.5156,494.0156 93.2813,493.9063 93.1406,493.7656 C93,493.6406 92.9688,493.5156 92.9063,493.1094 C92.8125,492.7031 92.6406,492.4844 92.1563,492.2031 C91.6875,491.9531 91.0781,491.7969 90.5,491.7969 C88.7656,491.7969 87.5156,493.1094 87.5156,494.8906 L87.5156,495.9844 C87.5156,497.6875 88.8125,498.7813 90.8594,498.7813 C91.625,498.7813 92.3125,498.6563 92.7344,498.3906 C92.9219,498.2969 92.9219,498.2969 93.375,497.8125 C93.5625,497.625 93.7656,497.5469 93.9844,497.5469 C94.4531,497.5469 94.8438,497.9375 94.8438,498.3906 C94.8438,498.7813 94.5156,499.2344 93.9375,499.6406 C93.1875,500.1875 92.0313,500.4844 90.8125,500.4844 C87.9219,500.4844 85.8125,498.5938 85.8125,496.0156 L85.8125,494.8906 C85.8125,492.1719 87.8125,490.0938 90.4375,490.0938 C91.3125,490.0938 91.9063,490.2344 92.8438,490.6719 Z "/><text fill="#000000" font-family="sans-serif" font-size="12" lengthAdjust="spacingAndGlyphs" textLength="77" x="104.5" y="499.1543">ReturnValue</text><line style="stroke: #A80036; stroke-width: 1.5;" x1="76.5" x2="183.5" y1="511" y2="511"/><text fill="#000000" font-family="sans-serif" font-size="11" lengthAdjust="spacingAndGlyphs" textLength="70" x="81.5" y="525.2104">String name</text><line style="stroke: #A80036; stroke-width: 1.5;" x1="76.5" x2="183.5" y1="531.8047" y2="531.8047"/><!--class Source.FunctionModifier--><rect fill="#FEFECE" filter="url(#f1laol3mntpyea)" height="60.8047" id="Source.FunctionModifier" style="stroke: #A80036; stroke-width: 1.5;" width="135" x="476.5" y="338"/><ellipse cx="491.5" cy="354" fill="#ADD1B2" rx="11" ry="11" style="stroke: #A80036; stroke-width: 1.0;"/><path d="M493.8438,349.6719 L494.0156,349.75 C494.2344,349.4375 494.4375,349.3438 494.7344,349.3438 C495.0313,349.3438 495.3125,349.4844 495.4688,349.75 C495.5625,349.9063 495.5781,350.0313 495.5781,350.4688 L495.5781,351.8906 C495.5781,352.3125 495.5469,352.5 495.4375,352.6563 C495.2656,352.875 495,353.0156 494.7344,353.0156 C494.5156,353.0156 494.2813,352.9063 494.1406,352.7656 C494,352.6406 493.9688,352.5156 493.9063,352.1094 C493.8125,351.7031 493.6406,351.4844 493.1563,351.2031 C492.6875,350.9531 492.0781,350.7969 491.5,350.7969 C489.7656,350.7969 488.5156,352.1094 488.5156,353.8906 L488.5156,354.9844 C488.5156,356.6875 489.8125,357.7813 491.8594,357.7813 C492.625,357.7813 493.3125,357.6563 493.7344,357.3906 C493.9219,357.2969 493.9219,357.2969 494.375,356.8125 C494.5625,356.625 494.7656,356.5469 494.9844,356.5469 C495.4531,356.5469 495.8438,356.9375 495.8438,357.3906 C495.8438,357.7813 495.5156,358.2344 494.9375,358.6406 C494.1875,359.1875 493.0313,359.4844 491.8125,359.4844 C488.9219,359.4844 486.8125,357.5938 486.8125,355.0156 L486.8125,353.8906 C486.8125,351.1719 488.8125,349.0938 491.4375,349.0938 C492.3125,349.0938 492.9063,349.2344 493.8438,349.6719 Z "/><text fill="#000000" font-family="sans-serif" font-size="12" lengthAdjust="spacingAndGlyphs" textLength="103" x="505.5" y="358.1543">FunctionModifier</text><line style="stroke: #A80036; stroke-width: 1.5;" x1="477.5" x2="610.5" y1="370" y2="370"/><text fill="#000000" font-family="sans-serif" font-size="11" lengthAdjust="spacingAndGlyphs" textLength="70" x="482.5" y="384.2104">String name</text><line style="stroke: #A80036; stroke-width: 1.5;" x1="477.5" x2="610.5" y1="390.8047" y2="390.8047"/><!--class Source.AccessModifier--><rect fill="#FEFECE" filter="url(#f1laol3mntpyea)" height="99.2188" id="Source.AccessModifier" style="stroke: #A80036; stroke-width: 1.5;" width="125" x="156.5" y="319"/><ellipse cx="171.5" cy="335" fill="#EB937F" rx="11" ry="11" style="stroke: #A80036; stroke-width: 1.0;"/><path d="M169.7969,335.875 L169.7969,338.2969 L174.1563,338.2969 L174.1563,337.4219 C174.1563,336.9375 174.1875,336.7969 174.2969,336.6406 C174.4688,336.3906 174.7344,336.2813 175,336.2813 C175.2813,336.2813 175.5625,336.4375 175.7344,336.6875 C175.8125,336.8438 175.8438,336.9844 175.8438,337.4219 L175.8438,340 L167.8438,340 C167.4531,340 167.2188,339.9531 167.0781,339.8281 C166.8594,339.6719 166.7188,339.4219 166.7188,339.1563 C166.7188,338.8594 166.875,338.5938 167.125,338.4219 C167.2813,338.3125 167.4375,338.2969 167.8438,338.2969 L168.0938,338.2969 L168.0938,331.7813 L167.8438,331.7813 C167.4219,331.7813 167.2344,331.75 167.0781,331.6406 C166.8594,331.4688 166.7188,331.2188 166.7188,330.9375 C166.7188,330.6563 166.875,330.3594 167.125,330.2031 C167.2813,330.1094 167.4063,330.0938 167.8438,330.0938 L175.4688,330.0938 L175.4688,332.6406 C175.4688,333.1094 175.4375,333.25 175.3281,333.4219 C175.1563,333.6406 174.8906,333.7813 174.625,333.7813 C174.3438,333.7813 174.0625,333.625 173.8906,333.375 C173.8125,333.2188 173.7813,333.0469 173.7813,332.6406 L173.7813,331.7813 L169.7969,331.7813 L169.7969,334.1875 L171.25,334.1875 L171.25,334.0625 C171.25,333.6094 171.2813,333.4531 171.3906,333.2813 C171.5625,333.0625 171.8281,332.9219 172.0781,332.9219 C172.5313,332.9219 172.8438,333.2344 172.9063,333.7031 C172.9219,333.8594 172.9219,333.9063 172.9219,334.0625 L172.9219,335.9844 C172.9219,336.4375 172.8906,336.5938 172.7656,336.75 C172.6094,336.9688 172.3438,337.1094 172.0938,337.1094 C171.7969,337.1094 171.5156,336.9531 171.3594,336.7031 C171.2813,336.5469 171.25,336.3906 171.25,335.9844 L171.25,335.875 Z "/><text fill="#000000" font-family="sans-serif" font-size="12" lengthAdjust="spacingAndGlyphs" textLength="93" x="185.5" y="339.1543">AccessModifier</text><line style="stroke: #A80036; stroke-width: 1.5;" x1="157.5" x2="280.5" y1="351" y2="351"/><text fill="#000000" font-family="sans-serif" font-size="11" lengthAdjust="spacingAndGlyphs" textLength="40" x="162.5" y="365.2104">PUBLIC</text><text fill="#000000" font-family="sans-serif" font-size="11" lengthAdjust="spacingAndGlyphs" textLength="45" x="162.5" y="378.0151">PRIVATE</text><text fill="#000000" font-family="sans-serif" font-size="11" lengthAdjust="spacingAndGlyphs" textLength="53" x="162.5" y="390.8198">INTERNAL</text><text fill="#000000" font-family="sans-serif" font-size="11" lengthAdjust="spacingAndGlyphs" textLength="56" x="162.5" y="403.6245">EXTERNAL</text><line style="stroke: #A80036; stroke-width: 1.5;" x1="157.5" x2="280.5" y1="410.2188" y2="410.2188"/><!--class Source.Program--><rect fill="#FEFECE" filter="url(#f1laol3mntpyea)" height="48" id="Source.Program" style="stroke: #A80036; stroke-width: 1.5;" width="85" x="635.5" y="59"/><ellipse cx="650.5" cy="75" fill="#ADD1B2" rx="11" ry="11" style="stroke: #A80036; stroke-width: 1.0;"/><path d="M652.8438,70.6719 L653.0156,70.75 C653.2344,70.4375 653.4375,70.3438 653.7344,70.3438 C654.0313,70.3438 654.3125,70.4844 654.4688,70.75 C654.5625,70.9063 654.5781,71.0313 654.5781,71.4688 L654.5781,72.8906 C654.5781,73.3125 654.5469,73.5 654.4375,73.6563 C654.2656,73.875 654,74.0156 653.7344,74.0156 C653.5156,74.0156 653.2813,73.9063 653.1406,73.7656 C653,73.6406 652.9688,73.5156 652.9063,73.1094 C652.8125,72.7031 652.6406,72.4844 652.1563,72.2031 C651.6875,71.9531 651.0781,71.7969 650.5,71.7969 C648.7656,71.7969 647.5156,73.1094 647.5156,74.8906 L647.5156,75.9844 C647.5156,77.6875 648.8125,78.7813 650.8594,78.7813 C651.625,78.7813 652.3125,78.6563 652.7344,78.3906 C652.9219,78.2969 652.9219,78.2969 653.375,77.8125 C653.5625,77.625 653.7656,77.5469 653.9844,77.5469 C654.4531,77.5469 654.8438,77.9375 654.8438,78.3906 C654.8438,78.7813 654.5156,79.2344 653.9375,79.6406 C653.1875,80.1875 652.0313,80.4844 650.8125,80.4844 C647.9219,80.4844 645.8125,78.5938 645.8125,76.0156 L645.8125,74.8906 C645.8125,72.1719 647.8125,70.0938 650.4375,70.0938 C651.3125,70.0938 651.9063,70.2344 652.8438,70.6719 Z "/><text fill="#000000" font-family="sans-serif" font-size="12" lengthAdjust="spacingAndGlyphs" textLength="53" x="664.5" y="79.1543">Program</text><line style="stroke: #A80036; stroke-width: 1.5;" x1="636.5" x2="719.5" y1="91" y2="91"/><line style="stroke: #A80036; stroke-width: 1.5;" x1="636.5" x2="719.5" y1="99" y2="99"/><!--class Source.Constructor--><rect fill="#FEFECE" filter="url(#f1laol3mntpyea)" height="48" id="Source.Constructor" style="stroke: #A80036; stroke-width: 1.5;" width="106" x="220" y="485.5"/><ellipse cx="235" cy="501.5" fill="#ADD1B2" rx="11" ry="11" style="stroke: #A80036; stroke-width: 1.0;"/><path d="M237.3438,497.1719 L237.5156,497.25 C237.7344,496.9375 237.9375,496.8438 238.2344,496.8438 C238.5313,496.8438 238.8125,496.9844 238.9688,497.25 C239.0625,497.4063 239.0781,497.5313 239.0781,497.9688 L239.0781,499.3906 C239.0781,499.8125 239.0469,500 238.9375,500.1563 C238.7656,500.375 238.5,500.5156 238.2344,500.5156 C238.0156,500.5156 237.7813,500.4063 237.6406,500.2656 C237.5,500.1406 237.4688,500.0156 237.4063,499.6094 C237.3125,499.2031 237.1406,498.9844 236.6563,498.7031 C236.1875,498.4531 235.5781,498.2969 235,498.2969 C233.2656,498.2969 232.0156,499.6094 232.0156,501.3906 L232.0156,502.4844 C232.0156,504.1875 233.3125,505.2813 235.3594,505.2813 C236.125,505.2813 236.8125,505.1563 237.2344,504.8906 C237.4219,504.7969 237.4219,504.7969 237.875,504.3125 C238.0625,504.125 238.2656,504.0469 238.4844,504.0469 C238.9531,504.0469 239.3438,504.4375 239.3438,504.8906 C239.3438,505.2813 239.0156,505.7344 238.4375,506.1406 C237.6875,506.6875 236.5313,506.9844 235.3125,506.9844 C232.4219,506.9844 230.3125,505.0938 230.3125,502.5156 L230.3125,501.3906 C230.3125,498.6719 232.3125,496.5938 234.9375,496.5938 C235.8125,496.5938 236.4063,496.7344 237.3438,497.1719 Z "/><text fill="#000000" font-family="sans-serif" font-size="12" lengthAdjust="spacingAndGlyphs" textLength="74" x="249" y="505.6543">Constructor</text><line style="stroke: #A80036; stroke-width: 1.5;" x1="221" x2="325" y1="517.5" y2="517.5"/><line style="stroke: #A80036; stroke-width: 1.5;" x1="221" x2="325" y1="525.5" y2="525.5"/><!--class Source.FallbackFunction--><rect fill="#FEFECE" filter="url(#f1laol3mntpyea)" height="48" id="Source.FallbackFunction" style="stroke: #A80036; stroke-width: 1.5;" width="137" x="361.5" y="485.5"/><ellipse cx="376.5" cy="501.5" fill="#ADD1B2" rx="11" ry="11" style="stroke: #A80036; stroke-width: 1.0;"/><path d="M378.8438,497.1719 L379.0156,497.25 C379.2344,496.9375 379.4375,496.8438 379.7344,496.8438 C380.0313,496.8438 380.3125,496.9844 380.4688,497.25 C380.5625,497.4063 380.5781,497.5313 380.5781,497.9688 L380.5781,499.3906 C380.5781,499.8125 380.5469,500 380.4375,500.1563 C380.2656,500.375 380,500.5156 379.7344,500.5156 C379.5156,500.5156 379.2813,500.4063 379.1406,500.2656 C379,500.1406 378.9688,500.0156 378.9063,499.6094 C378.8125,499.2031 378.6406,498.9844 378.1563,498.7031 C377.6875,498.4531 377.0781,498.2969 376.5,498.2969 C374.7656,498.2969 373.5156,499.6094 373.5156,501.3906 L373.5156,502.4844 C373.5156,504.1875 374.8125,505.2813 376.8594,505.2813 C377.625,505.2813 378.3125,505.1563 378.7344,504.8906 C378.9219,504.7969 378.9219,504.7969 379.375,504.3125 C379.5625,504.125 379.7656,504.0469 379.9844,504.0469 C380.4531,504.0469 380.8438,504.4375 380.8438,504.8906 C380.8438,505.2813 380.5156,505.7344 379.9375,506.1406 C379.1875,506.6875 378.0313,506.9844 376.8125,506.9844 C373.9219,506.9844 371.8125,505.0938 371.8125,502.5156 L371.8125,501.3906 C371.8125,498.6719 373.8125,496.5938 376.4375,496.5938 C377.3125,496.5938 377.9063,496.7344 378.8438,497.1719 Z "/><text fill="#000000" font-family="sans-serif" font-size="12" lengthAdjust="spacingAndGlyphs" textLength="105" x="390.5" y="505.6543">FallbackFunction</text><line style="stroke: #A80036; stroke-width: 1.5;" x1="362.5" x2="497.5" y1="517.5" y2="517.5"/><line style="stroke: #A80036; stroke-width: 1.5;" x1="362.5" x2="497.5" y1="525.5" y2="525.5"/><!--link Source.Program to Source.Contract--><path d="M647.508,116.964 C632.954,132.698 615.499,151.569 600.567,167.711 " fill="none" id="Source.Program-Source.Contract" style="stroke: #A80036; stroke-width: 1.0;"/><polygon fill="#A80036" points="656.598,107.137,649.5875,108.826,648.4502,115.9468,655.4607,114.2578,656.598,107.137" style="stroke: #A80036; stroke-width: 1.0;"/><text fill="#000000" font-family="sans-serif" font-size="13" lengthAdjust="spacingAndGlyphs" textLength="7" x="598.9227" y="156.8465">*</text><!--link Source.Program to Source.Library--><path d="M718.417,116.15 C733.908,130.467 750.391,148.5 761,168 C791.001,223.146 800.55,297.405 803.587,337.985 " fill="none" id="Source.Program-Source.Library" style="stroke: #A80036; stroke-width: 1.0;"/><polygon fill="#A80036" points="708.453,107.3,710.2829,114.2751,717.4252,115.2687,715.5953,108.2936,708.453,107.3" style="stroke: #A80036; stroke-width: 1.0;"/><text fill="#000000" font-family="sans-serif" font-size="13" lengthAdjust="spacingAndGlyphs" textLength="7" x="795.5123" y="326.772">*</text><!--link Source.Contract to Source.Library--><path d="M629.18,242.175 C664.499,263.424 709.095,291.449 747,319 C755.069,324.865 763.459,331.522 771.269,337.985 " fill="none" id="Source.Contract-Source.Library" style="stroke: #A80036; stroke-width: 1.0;"/><text fill="#000000" font-family="sans-serif" font-size="13" lengthAdjust="spacingAndGlyphs" textLength="30" x="699" y="285.0669">uses</text><text fill="#000000" font-family="sans-serif" font-size="13" lengthAdjust="spacingAndGlyphs" textLength="8" x="630.8161" y="261.6845">1</text><text fill="#000000" font-family="sans-serif" font-size="13" lengthAdjust="spacingAndGlyphs" textLength="7" x="756.1247" y="326.772">*</text><!--link Source.Contract to Source.Contract--><path d="M629.039,192.632 C648.582,192.821 664,196.943 664,205 C664,213.057 648.582,217.179 629.039,217.368 " fill="none" id="Source.Contract-Source.Contract" style="stroke: #A80036; stroke-width: 1.0;"/><text fill="#000000" font-family="sans-serif" font-size="13" lengthAdjust="spacingAndGlyphs" textLength="84" x="670" y="209.5669">inherits_from</text><text fill="#000000" font-family="sans-serif" font-size="13" lengthAdjust="spacingAndGlyphs" textLength="7" x="637.0266" y="187.3094">*</text><text fill="#000000" font-family="sans-serif" font-size="13" lengthAdjust="spacingAndGlyphs" textLength="8" x="637.0875" y="215.0601">1</text><!--link Source.Contract to Source.Variable--><path d="M491.727,215.877 C403.391,229.677 254.338,259.965 139,319 C129.203,324.014 119.557,330.876 110.994,337.859 " fill="none" id="Source.Contract-Source.Variable" style="stroke: #A80036; stroke-width: 1.0;"/><polygon fill="#A80036" points="504.838,213.881,498.3042,210.8299,492.9748,215.6876,499.5086,218.7387,504.838,213.881" style="stroke: #A80036; stroke-width: 1.0;"/><text fill="#000000" font-family="sans-serif" font-size="13" lengthAdjust="spacingAndGlyphs" textLength="7" x="109.6643" y="327.0932">*</text><!--link Source.Variable to Source.Type--><path d="M63.8765,411.739 C52.9121,446.984 42.8905,498.044 58,540 C66.4365,563.427 84.2223,585.021 100.0048,600.836 " fill="none" id="Source.Variable-Source.Type" style="stroke: #A80036; stroke-width: 1.0;"/><polygon fill="#A80036" points="68.0745,399.057,62.3915,403.4958,64.3031,410.449,69.9861,406.0101,68.0745,399.057" style="stroke: #A80036; stroke-width: 1.0;"/><text fill="#000000" font-family="sans-serif" font-size="13" lengthAdjust="spacingAndGlyphs" textLength="8" x="84.1434" y="589.9094">1</text><!--link Source.FunctionArgument to Source.Type--><path d="M654.53,538.865 C653.011,539.255 651.5,539.634 650,540 C477.945,582.037 268.901,610.231 177.083,621.492 " fill="none" id="Source.FunctionArgument-Source.Type" style="stroke: #A80036; stroke-width: 1.0;"/><polygon fill="#A80036" points="667.263,535.412,660.4252,533.122,655.6814,538.553,662.5192,540.843,667.263,535.412" style="stroke: #A80036; stroke-width: 1.0;"/><text fill="#000000" font-family="sans-serif" font-size="13" lengthAdjust="spacingAndGlyphs" textLength="8" x="184.9051" y="616.4289">1</text><!--link Source.ReturnValue to Source.Type--><path d="M130,553.614 C130,569.499 130,586.999 130,600.924 " fill="none" id="Source.ReturnValue-Source.Type" style="stroke: #A80036; stroke-width: 1.0;"/><polygon fill="#A80036" points="130,540.199,126,546.199,130,552.199,134,546.199,130,540.199" style="stroke: #A80036; stroke-width: 1.0;"/><text fill="#000000" font-family="sans-serif" font-size="13" lengthAdjust="spacingAndGlyphs" textLength="8" x="121.075" y="590.0178">1</text><!--link Source.Contract to Source.Event--><path d="M602.059,252.794 C622.617,280.233 647.967,314.068 665.79,337.856 " fill="none" id="Source.Contract-Source.Event" style="stroke: #A80036; stroke-width: 1.0;"/><polygon fill="#A80036" points="594.155,242.244,594.5517,249.4442,601.3506,251.8473,600.9539,244.6471,594.155,242.244" style="stroke: #A80036; stroke-width: 1.0;"/><text fill="#000000" font-family="sans-serif" font-size="13" lengthAdjust="spacingAndGlyphs" textLength="7" x="653.4873" y="327.0895">*</text><!--link Source.Contract to Source.FunctionModifier--><path d="M559.97,255.362 C556.131,282.32 551.505,314.805 548.222,337.856 " fill="none" id="Source.Contract-Source.FunctionModifier" style="stroke: #A80036; stroke-width: 1.0;"/><polygon fill="#A80036" points="561.838,242.244,557.032,247.6201,560.1461,254.1241,564.9521,248.748,561.838,242.244" style="stroke: #A80036; stroke-width: 1.0;"/><text fill="#000000" font-family="sans-serif" font-size="13" lengthAdjust="spacingAndGlyphs" textLength="7" x="541.3709" y="327.0895">*</text><!--link Source.Contract to Source.Function--><path d="M514.674,250.95 C485.137,276.324 448.717,307.61 421.05,331.377 " fill="none" id="Source.Contract-Source.Function" style="stroke: #A80036; stroke-width: 1.0;"/><polygon fill="#A80036" points="524.809,242.244,517.6513,243.1196,515.7065,250.0635,522.8642,249.1879,524.809,242.244" style="stroke: #A80036; stroke-width: 1.0;"/><text fill="#000000" font-family="sans-serif" font-size="13" lengthAdjust="spacingAndGlyphs" textLength="7" x="420.9167" y="320.542">*</text><!--link Source.Function to Source.Constructor--><path d="M339.165,421.737 C322.503,443.586 303.988,467.865 290.791,485.171 " fill="none" id="Source.Function-Source.Constructor" style="stroke: #A80036; stroke-width: 1.0;"/><polygon fill="none" points="333.732,417.316,351.426,405.658,344.865,425.806,333.732,417.316" style="stroke: #A80036; stroke-width: 1.0;"/><!--link Source.Function to Source.FallbackFunction--><path d="M399.232,424.642 C406.964,445.715 415.371,468.629 421.44,485.171 " fill="none" id="Source.Function-Source.FallbackFunction" style="stroke: #A80036; stroke-width: 1.0;"/><polygon fill="none" points="392.584,426.845,392.267,405.658,405.727,422.023,392.584,426.845" style="stroke: #A80036; stroke-width: 1.0;"/><!--link Source.Function to Source.FunctionArgument--><path d="M446.558,411.94 C450.717,414.087 454.884,416.127 459,418 C540.109,454.911 565.17,451.704 650,479 C655.533,480.78 661.255,482.626 667.009,484.484 " fill="none" id="Source.Function-Source.FunctionArgument" style="stroke: #A80036; stroke-width: 1.0;"/><polygon fill="#A80036" points="434.912,405.651,438.291,412.0214,445.471,411.3525,442.092,404.982,434.912,405.651" style="stroke: #A80036; stroke-width: 1.0;"/><text fill="#000000" font-family="sans-serif" font-size="13" lengthAdjust="spacingAndGlyphs" textLength="7" x="652.381" y="478.3663">*</text><!--link Source.Function to Source.Statement--><path d="M443.187,413.235 C478.272,437.141 520.31,465.784 549.068,485.379 " fill="none" id="Source.Function-Source.Statement" style="stroke: #A80036; stroke-width: 1.0;"/><polygon fill="#A80036" points="432.066,405.658,434.772,412.3421,441.9827,412.4151,439.2767,405.731,432.066,405.658" style="stroke: #A80036; stroke-width: 1.0;"/><text fill="#000000" font-family="sans-serif" font-size="13" lengthAdjust="spacingAndGlyphs" textLength="7" x="532.4761" y="474.36">*</text><!--link Source.Function to Source.FunctionModifier--><path d="M454.299,368.5 C461.577,368.5 468.856,368.5 476.134,368.5 " fill="none" id="Source.Function-Source.FunctionModifier" style="stroke: #A80036; stroke-width: 1.0;"/><polygon fill="#A80036" points="441.197,368.5,447.197,372.5,453.197,368.5,447.197,364.5,441.197,368.5" style="stroke: #A80036; stroke-width: 1.0;"/><text fill="#000000" font-family="sans-serif" font-size="13" lengthAdjust="spacingAndGlyphs" textLength="7" x="461.3283" y="364.7645">*</text><!--link Source.FunctionModifier to Source.FunctionArgument--><path d="M597.215,407.048 C629.232,429.638 669.408,457.986 699.147,478.969 " fill="none" id="Source.FunctionModifier-Source.FunctionArgument" style="stroke: #A80036; stroke-width: 1.0;"/><polygon fill="#A80036" points="586.261,399.319,588.8572,406.0465,596.0658,406.2375,593.4696,399.51,586.261,399.319" style="stroke: #A80036; stroke-width: 1.0;"/><text fill="#000000" font-family="sans-serif" font-size="13" lengthAdjust="spacingAndGlyphs" textLength="7" x="682.226" y="467.7525">*</text><!--link Source.Function to Source.ReturnValue--><path d="M308.872,412.304 C305.544,414.245 302.241,416.152 299,418 C261.272,439.518 218.092,462.615 184.823,480.09 " fill="none" id="Source.Function-Source.ReturnValue" style="stroke: #A80036; stroke-width: 1.0;"/><polygon fill="#A80036" points="320.231,405.616,313.0312,405.2132,309.8901,411.7042,317.09,412.1071,320.231,405.616" style="stroke: #A80036; stroke-width: 1.0;"/><text fill="#000000" font-family="sans-serif" font-size="13" lengthAdjust="spacingAndGlyphs" textLength="20" x="192.3182" y="472.9081">0,1</text><!--link Source.Variable to Source.AccessModifier--><path d="M134.8,368.5 C141.927,368.5 149.055,368.5 156.182,368.5 " fill="none" id="Source.Variable-Source.AccessModifier" style="stroke: #A80036; stroke-width: 1.0;"/><polygon fill="#A80036" points="121.537,368.5,127.537,372.5,133.537,368.5,127.537,364.5,121.537,368.5" style="stroke: #A80036; stroke-width: 1.0;"/><text fill="#000000" font-family="sans-serif" font-size="13" lengthAdjust="spacingAndGlyphs" textLength="8" x="140.4562" y="364.6947">1</text><!--link Source.AccessModifier to Source.Function--><path d="M281.812,368.5 C289.089,368.5 296.365,368.5 303.642,368.5 " fill="none" id="Source.AccessModifier-Source.Function" style="stroke: #A80036; stroke-width: 1.0;"/><polygon fill="#A80036" points="316.739,368.5,310.739,364.5,304.739,368.5,310.739,372.5,316.739,368.5" style="stroke: #A80036; stroke-width: 1.0;"/><text fill="#000000" font-family="sans-serif" font-size="13" lengthAdjust="spacingAndGlyphs" textLength="8" x="289.5371" y="364.6947">1</text><!--link Source.Type to Source.DataType--><path d="M119.574,675.172 C116.693,687.933 113.504,702.055 110.404,715.784 " fill="none" id="Source.Type-Source.DataType" style="stroke: #A80036; stroke-width: 1.0;"/><polygon fill="none" points="112.829,673.261,124.063,655.294,126.486,676.344,112.829,673.261" style="stroke: #A80036; stroke-width: 1.0;"/><!--link Source.Type to Source.ObjectType--><path d="M156.871,672.385 C168.987,691.948 183.348,715.134 195.832,735.291 " fill="none" id="Source.Type-Source.ObjectType" style="stroke: #A80036; stroke-width: 1.0;"/><polygon fill="none" points="150.865,675.982,146.285,655.294,162.767,668.611,150.865,675.982" style="stroke: #A80036; stroke-width: 1.0;"/><!--
@startuml
skinparam classAttributeIconSize 0

namespace Source {

  class Contract {
    String name
    boolean is_abstract
  }

  class Library {
    String name
  }

  class Variable {
    String name
  }

  class Type <<abstract>> {

  }

  enum DataType {
    INT
    UINT
    BOOL
    ARRAY
    STRUCT
    ENUM
    MAPPING
  }

  enum ObjectType {
    BLOCK
    MSG
    TX
    ADDRESS
  }

  class Function {
    String name
    boolean is_abstract
  }

  class Event {
    String name
  }

  class Statement {
  }

  class FunctionArgument {
    String name
  }

  class ReturnValue {
    String name
  }

  class FunctionModifier {
    String name
  }

  enum AccessModifier {
    PUBLIC
    PRIVATE
    INTERNAL
    EXTERNAL
  }

  Program *- - "*" Contract
  Program *- - "*" Library
  Contract "1" - - "*" Library : uses
  Contract "*" - - "1" Contract : inherits_from
  Contract *- - "*" Variable
  Variable *- - "1" Type
  FunctionArgument *- - "1" Type
  ReturnValue *- - "1" Type
  Contract *- - "*" Event
  Contract *- - "*" FunctionModifier
  Contract *- - "*" Function
  Function <|- - Constructor
  Function <|- - FallbackFunction
  Function *- - "*" FunctionArgument
  Function *- - "*" Statement
  Function *- "*" FunctionModifier
  FunctionModifier *- - "*" FunctionArgument
  Function *- - "0,1" ReturnValue
  Variable *- "1" AccessModifier
  AccessModifier "1" -* Function
  Type <|- - DataType
  Type <|- - ObjectType
}
@enduml

PlantUML version 1.2018.13beta10(Unknown compile time)
(GPL source distribution)
Java Runtime: Java(TM) SE Runtime Environment
JVM: Java HotSpot(TM) 64-Bit Server VM
Java Version: 1.7.0_25-b15
Operating System: Linux
Default Encoding: UTF-8
Language: en
Country: US
--></g></svg>