<?xml version="1.0" encoding="UTF-8" standalone="no"?><svg xmlns="http://www.w3.org/2000/svg" xmlns:xlink="http://www.w3.org/1999/xlink" contentScriptType="application/ecmascript" contentStyleType="text/css" height="560px" preserveAspectRatio="none" style="width:682px;height:560px;" version="1.1" viewBox="0 0 682 560" width="682px" zoomAndPan="magnify"><defs><filter height="300%" id="f10pf04qz982l9" width="300%" x="-1" y="-1"><feGaussianBlur result="blurOut" stdDeviation="2.0"/><feColorMatrix in="blurOut" result="blurOut2" type="matrix" values="0 0 0 0 0 0 0 0 0 0 0 0 0 0 0 0 0 0 .4 0"/><feOffset dx="4.0" dy="4.0" in="blurOut2" result="blurOut3"/><feBlend in="SourceGraphic" in2="blurOut3" mode="normal"/></filter></defs><g><!--cluster Storage--><polygon fill="#FFFFFF" filter="url(#f10pf04qz982l9)" points="22,24,90,24,97,46.2969,660,46.2969,660,548,22,548,22,24" style="stroke: #000000; stroke-width: 1.5;"/><line style="stroke: #000000; stroke-width: 1.5;" x1="22" x2="97" y1="46.2969" y2="46.2969"/><text fill="#000000" font-family="sans-serif" font-size="14" font-weight="bold" lengthAdjust="spacingAndGlyphs" textLength="62" x="26" y="38.9951">Storage</text><!--class Storage.TransactionReceipt--><rect fill="#FEFECE" filter="url(#f10pf04qz982l9)" height="86.4141" id="Storage.TransactionReceipt" style="stroke: #A80036; stroke-width: 1.5;" width="153" x="214.5" y="283"/><ellipse cx="229.5" cy="299" fill="#ADD1B2" rx="11" ry="11" style="stroke: #A80036; stroke-width: 1.0;"/><path d="M231.8438,294.6719 L232.0156,294.75 C232.2344,294.4375 232.4375,294.3438 232.7344,294.3438 C233.0313,294.3438 233.3125,294.4844 233.4688,294.75 C233.5625,294.9063 233.5781,295.0313 233.5781,295.4688 L233.5781,296.8906 C233.5781,297.3125 233.5469,297.5 233.4375,297.6563 C233.2656,297.875 233,298.0156 232.7344,298.0156 C232.5156,298.0156 232.2813,297.9063 232.1406,297.7656 C232,297.6406 231.9688,297.5156 231.9063,297.1094 C231.8125,296.7031 231.6406,296.4844 231.1563,296.2031 C230.6875,295.9531 230.0781,295.7969 229.5,295.7969 C227.7656,295.7969 226.5156,297.1094 226.5156,298.8906 L226.5156,299.9844 C226.5156,301.6875 227.8125,302.7813 229.8594,302.7813 C230.625,302.7813 231.3125,302.6563 231.7344,302.3906 C231.9219,302.2969 231.9219,302.2969 232.375,301.8125 C232.5625,301.625 232.7656,301.5469 232.9844,301.5469 C233.4531,301.5469 233.8438,301.9375 233.8438,302.3906 C233.8438,302.7813 233.5156,303.2344 232.9375,303.6406 C232.1875,304.1875 231.0313,304.4844 229.8125,304.4844 C226.9219,304.4844 224.8125,302.5938 224.8125,300.0156 L224.8125,298.8906 C224.8125,296.1719 226.8125,294.0938 229.4375,294.0938 C230.3125,294.0938 230.9063,294.2344 231.8438,294.6719 Z "/><text fill="#000000" font-family="sans-serif" font-size="12" lengthAdjust="spacingAndGlyphs" textLength="121" x="243.5" y="303.1543">TransactionReceipt</text><line style="stroke: #A80036; stroke-width: 1.5;" x1="215.5" x2="366.5" y1="315" y2="315"/><text fill="#000000" font-family="sans-serif" font-size="11" lengthAdjust="spacingAndGlyphs" textLength="131" x="220.5" y="329.2104">int cumulativeGasUsed</text><text fill="#000000" font-family="sans-serif" font-size="11" lengthAdjust="spacingAndGlyphs" textLength="124" x="220.5" y="342.0151">byte[] logsBloomFilter</text><text fill="#000000" font-family="sans-serif" font-size="11" lengthAdjust="spacingAndGlyphs" textLength="83" x="220.5" y="354.8198">int statusCode</text><line style="stroke: #A80036; stroke-width: 1.5;" x1="215.5" x2="366.5" y1="361.4141" y2="361.4141"/><!--class Storage.Log--><rect fill="#FEFECE" filter="url(#f10pf04qz982l9)" height="86.4141" id="Storage.Log" style="stroke: #A80036; stroke-width: 1.5;" width="103" x="239.5" y="446"/><ellipse cx="276.55" cy="462" fill="#ADD1B2" rx="11" ry="11" style="stroke: #A80036; stroke-width: 1.0;"/><path d="M278.8938,457.6719 L279.0656,457.75 C279.2844,457.4375 279.4875,457.3438 279.7844,457.3438 C280.0813,457.3438 280.3625,457.4844 280.5188,457.75 C280.6125,457.9063 280.6281,458.0313 280.6281,458.4688 L280.6281,459.8906 C280.6281,460.3125 280.5969,460.5 280.4875,460.6563 C280.3156,460.875 280.05,461.0156 279.7844,461.0156 C279.5656,461.0156 279.3313,460.9063 279.1906,460.7656 C279.05,460.6406 279.0188,460.5156 278.9563,460.1094 C278.8625,459.7031 278.6906,459.4844 278.2063,459.2031 C277.7375,458.9531 277.1281,458.7969 276.55,458.7969 C274.8156,458.7969 273.5656,460.1094 273.5656,461.8906 L273.5656,462.9844 C273.5656,464.6875 274.8625,465.7813 276.9094,465.7813 C277.675,465.7813 278.3625,465.6563 278.7844,465.3906 C278.9719,465.2969 278.9719,465.2969 279.425,464.8125 C279.6125,464.625 279.8156,464.5469 280.0344,464.5469 C280.5031,464.5469 280.8938,464.9375 280.8938,465.3906 C280.8938,465.7813 280.5656,466.2344 279.9875,466.6406 C279.2375,467.1875 278.0813,467.4844 276.8625,467.4844 C273.9719,467.4844 271.8625,465.5938 271.8625,463.0156 L271.8625,461.8906 C271.8625,459.1719 273.8625,457.0938 276.4875,457.0938 C277.3625,457.0938 277.9563,457.2344 278.8938,457.6719 Z "/><text fill="#000000" font-family="sans-serif" font-size="12" lengthAdjust="spacingAndGlyphs" textLength="22" x="295.45" y="466.1543">Log</text><line style="stroke: #A80036; stroke-width: 1.5;" x1="240.5" x2="341.5" y1="478" y2="478"/><text fill="#000000" font-family="sans-serif" font-size="11" lengthAdjust="spacingAndGlyphs" textLength="87" x="245.5" y="492.2104">address logger</text><text fill="#000000" font-family="sans-serif" font-size="11" lengthAdjust="spacingAndGlyphs" textLength="91" x="245.5" y="505.0151">bytes32[] topics</text><text fill="#000000" font-family="sans-serif" font-size="11" lengthAdjust="spacingAndGlyphs" textLength="68" x="245.5" y="517.8198">bytes[] data</text><line style="stroke: #A80036; stroke-width: 1.5;" x1="240.5" x2="341.5" y1="524.4141" y2="524.4141"/><!--class Storage.Trie--><rect fill="#FEFECE" filter="url(#f10pf04qz982l9)" height="53.9375" id="Storage.Trie" style="stroke: #A80036; stroke-width: 1.5;" width="94" x="328" y="59"/><ellipse cx="343" cy="77.9688" fill="#ADD1B2" rx="11" ry="11" style="stroke: #A80036; stroke-width: 1.0;"/><path d="M345.3438,73.6406 L345.5156,73.7188 C345.7344,73.4063 345.9375,73.3125 346.2344,73.3125 C346.5313,73.3125 346.8125,73.4531 346.9688,73.7188 C347.0625,73.875 347.0781,74 347.0781,74.4375 L347.0781,75.8594 C347.0781,76.2813 347.0469,76.4688 346.9375,76.625 C346.7656,76.8438 346.5,76.9844 346.2344,76.9844 C346.0156,76.9844 345.7813,76.875 345.6406,76.7344 C345.5,76.6094 345.4688,76.4844 345.4063,76.0781 C345.3125,75.6719 345.1406,75.4531 344.6563,75.1719 C344.1875,74.9219 343.5781,74.7656 343,74.7656 C341.2656,74.7656 340.0156,76.0781 340.0156,77.8594 L340.0156,78.9531 C340.0156,80.6563 341.3125,81.75 343.3594,81.75 C344.125,81.75 344.8125,81.625 345.2344,81.3594 C345.4219,81.2656 345.4219,81.2656 345.875,80.7813 C346.0625,80.5938 346.2656,80.5156 346.4844,80.5156 C346.9531,80.5156 347.3438,80.9063 347.3438,81.3594 C347.3438,81.75 347.0156,82.2031 346.4375,82.6094 C345.6875,83.1563 344.5313,83.4531 343.3125,83.4531 C340.4219,83.4531 338.3125,81.5625 338.3125,78.9844 L338.3125,77.8594 C338.3125,75.1406 340.3125,73.0625 342.9375,73.0625 C343.8125,73.0625 344.4063,73.2031 345.3438,73.6406 Z "/><text fill="#000000" font-family="sans-serif" font-size="12" font-style="italic" lengthAdjust="spacingAndGlyphs" textLength="66" x="355" y="75.1387">«abstract»</text><text fill="#000000" font-family="sans-serif" font-size="12" lengthAdjust="spacingAndGlyphs" textLength="23" x="376.5" y="89.1074">Trie</text><line style="stroke: #A80036; stroke-width: 1.5;" x1="329" x2="421" y1="96.9375" y2="96.9375"/><line style="stroke: #A80036; stroke-width: 1.5;" x1="329" x2="421" y1="104.9375" y2="104.9375"/><!--class Storage.TransactionTrie--><rect fill="#FEFECE" filter="url(#f10pf04qz982l9)" height="48" id="Storage.TransactionTrie" style="stroke: #A80036; stroke-width: 1.5;" width="129" x="38.5" y="174"/><ellipse cx="53.5" cy="190" fill="#ADD1B2" rx="11" ry="11" style="stroke: #A80036; stroke-width: 1.0;"/><path d="M55.8438,185.6719 L56.0156,185.75 C56.2344,185.4375 56.4375,185.3438 56.7344,185.3438 C57.0313,185.3438 57.3125,185.4844 57.4688,185.75 C57.5625,185.9063 57.5781,186.0313 57.5781,186.4688 L57.5781,187.8906 C57.5781,188.3125 57.5469,188.5 57.4375,188.6563 C57.2656,188.875 57,189.0156 56.7344,189.0156 C56.5156,189.0156 56.2813,188.9063 56.1406,188.7656 C56,188.6406 55.9688,188.5156 55.9063,188.1094 C55.8125,187.7031 55.6406,187.4844 55.1563,187.2031 C54.6875,186.9531 54.0781,186.7969 53.5,186.7969 C51.7656,186.7969 50.5156,188.1094 50.5156,189.8906 L50.5156,190.9844 C50.5156,192.6875 51.8125,193.7813 53.8594,193.7813 C54.625,193.7813 55.3125,193.6563 55.7344,193.3906 C55.9219,193.2969 55.9219,193.2969 56.375,192.8125 C56.5625,192.625 56.7656,192.5469 56.9844,192.5469 C57.4531,192.5469 57.8438,192.9375 57.8438,193.3906 C57.8438,193.7813 57.5156,194.2344 56.9375,194.6406 C56.1875,195.1875 55.0313,195.4844 53.8125,195.4844 C50.9219,195.4844 48.8125,193.5938 48.8125,191.0156 L48.8125,189.8906 C48.8125,187.1719 50.8125,185.0938 53.4375,185.0938 C54.3125,185.0938 54.9063,185.2344 55.8438,185.6719 Z "/><text fill="#000000" font-family="sans-serif" font-size="12" lengthAdjust="spacingAndGlyphs" textLength="97" x="67.5" y="194.1543">TransactionTrie</text><line style="stroke: #A80036; stroke-width: 1.5;" x1="39.5" x2="166.5" y1="206" y2="206"/><line style="stroke: #A80036; stroke-width: 1.5;" x1="39.5" x2="166.5" y1="214" y2="214"/><!--class Storage.TransactionReceiptTrie--><rect fill="#FEFECE" filter="url(#f10pf04qz982l9)" height="48" id="Storage.TransactionReceiptTrie" style="stroke: #A80036; stroke-width: 1.5;" width="176" x="203" y="174"/><ellipse cx="218" cy="190" fill="#ADD1B2" rx="11" ry="11" style="stroke: #A80036; stroke-width: 1.0;"/><path d="M220.3438,185.6719 L220.5156,185.75 C220.7344,185.4375 220.9375,185.3438 221.2344,185.3438 C221.5313,185.3438 221.8125,185.4844 221.9688,185.75 C222.0625,185.9063 222.0781,186.0313 222.0781,186.4688 L222.0781,187.8906 C222.0781,188.3125 222.0469,188.5 221.9375,188.6563 C221.7656,188.875 221.5,189.0156 221.2344,189.0156 C221.0156,189.0156 220.7813,188.9063 220.6406,188.7656 C220.5,188.6406 220.4688,188.5156 220.4063,188.1094 C220.3125,187.7031 220.1406,187.4844 219.6563,187.2031 C219.1875,186.9531 218.5781,186.7969 218,186.7969 C216.2656,186.7969 215.0156,188.1094 215.0156,189.8906 L215.0156,190.9844 C215.0156,192.6875 216.3125,193.7813 218.3594,193.7813 C219.125,193.7813 219.8125,193.6563 220.2344,193.3906 C220.4219,193.2969 220.4219,193.2969 220.875,192.8125 C221.0625,192.625 221.2656,192.5469 221.4844,192.5469 C221.9531,192.5469 222.3438,192.9375 222.3438,193.3906 C222.3438,193.7813 222.0156,194.2344 221.4375,194.6406 C220.6875,195.1875 219.5313,195.4844 218.3125,195.4844 C215.4219,195.4844 213.3125,193.5938 213.3125,191.0156 L213.3125,189.8906 C213.3125,187.1719 215.3125,185.0938 217.9375,185.0938 C218.8125,185.0938 219.4063,185.2344 220.3438,185.6719 Z "/><text fill="#000000" font-family="sans-serif" font-size="12" lengthAdjust="spacingAndGlyphs" textLength="144" x="232" y="194.1543">TransactionReceiptTrie</text><line style="stroke: #A80036; stroke-width: 1.5;" x1="204" x2="378" y1="206" y2="206"/><line style="stroke: #A80036; stroke-width: 1.5;" x1="204" x2="378" y1="214" y2="214"/><!--class Storage.StateTrie--><rect fill="#FEFECE" filter="url(#f10pf04qz982l9)" height="48" id="Storage.StateTrie" style="stroke: #A80036; stroke-width: 1.5;" width="89" x="414.5" y="174"/><ellipse cx="429.5" cy="190" fill="#ADD1B2" rx="11" ry="11" style="stroke: #A80036; stroke-width: 1.0;"/><path d="M431.8438,185.6719 L432.0156,185.75 C432.2344,185.4375 432.4375,185.3438 432.7344,185.3438 C433.0313,185.3438 433.3125,185.4844 433.4688,185.75 C433.5625,185.9063 433.5781,186.0313 433.5781,186.4688 L433.5781,187.8906 C433.5781,188.3125 433.5469,188.5 433.4375,188.6563 C433.2656,188.875 433,189.0156 432.7344,189.0156 C432.5156,189.0156 432.2813,188.9063 432.1406,188.7656 C432,188.6406 431.9688,188.5156 431.9063,188.1094 C431.8125,187.7031 431.6406,187.4844 431.1563,187.2031 C430.6875,186.9531 430.0781,186.7969 429.5,186.7969 C427.7656,186.7969 426.5156,188.1094 426.5156,189.8906 L426.5156,190.9844 C426.5156,192.6875 427.8125,193.7813 429.8594,193.7813 C430.625,193.7813 431.3125,193.6563 431.7344,193.3906 C431.9219,193.2969 431.9219,193.2969 432.375,192.8125 C432.5625,192.625 432.7656,192.5469 432.9844,192.5469 C433.4531,192.5469 433.8438,192.9375 433.8438,193.3906 C433.8438,193.7813 433.5156,194.2344 432.9375,194.6406 C432.1875,195.1875 431.0313,195.4844 429.8125,195.4844 C426.9219,195.4844 424.8125,193.5938 424.8125,191.0156 L424.8125,189.8906 C424.8125,187.1719 426.8125,185.0938 429.4375,185.0938 C430.3125,185.0938 430.9063,185.2344 431.8438,185.6719 Z "/><text fill="#000000" font-family="sans-serif" font-size="12" lengthAdjust="spacingAndGlyphs" textLength="57" x="443.5" y="194.1543">StateTrie</text><line style="stroke: #A80036; stroke-width: 1.5;" x1="415.5" x2="502.5" y1="206" y2="206"/><line style="stroke: #A80036; stroke-width: 1.5;" x1="415.5" x2="502.5" y1="214" y2="214"/><!--class Storage.StorageTrie--><rect fill="#FEFECE" filter="url(#f10pf04qz982l9)" height="48" id="Storage.StorageTrie" style="stroke: #A80036; stroke-width: 1.5;" width="105" x="538.5" y="174"/><ellipse cx="553.5" cy="190" fill="#ADD1B2" rx="11" ry="11" style="stroke: #A80036; stroke-width: 1.0;"/><path d="M555.8438,185.6719 L556.0156,185.75 C556.2344,185.4375 556.4375,185.3438 556.7344,185.3438 C557.0313,185.3438 557.3125,185.4844 557.4688,185.75 C557.5625,185.9063 557.5781,186.0313 557.5781,186.4688 L557.5781,187.8906 C557.5781,188.3125 557.5469,188.5 557.4375,188.6563 C557.2656,188.875 557,189.0156 556.7344,189.0156 C556.5156,189.0156 556.2813,188.9063 556.1406,188.7656 C556,188.6406 555.9688,188.5156 555.9063,188.1094 C555.8125,187.7031 555.6406,187.4844 555.1563,187.2031 C554.6875,186.9531 554.0781,186.7969 553.5,186.7969 C551.7656,186.7969 550.5156,188.1094 550.5156,189.8906 L550.5156,190.9844 C550.5156,192.6875 551.8125,193.7813 553.8594,193.7813 C554.625,193.7813 555.3125,193.6563 555.7344,193.3906 C555.9219,193.2969 555.9219,193.2969 556.375,192.8125 C556.5625,192.625 556.7656,192.5469 556.9844,192.5469 C557.4531,192.5469 557.8438,192.9375 557.8438,193.3906 C557.8438,193.7813 557.5156,194.2344 556.9375,194.6406 C556.1875,195.1875 555.0313,195.4844 553.8125,195.4844 C550.9219,195.4844 548.8125,193.5938 548.8125,191.0156 L548.8125,189.8906 C548.8125,187.1719 550.8125,185.0938 553.4375,185.0938 C554.3125,185.0938 554.9063,185.2344 555.8438,185.6719 Z "/><text fill="#000000" font-family="sans-serif" font-size="12" lengthAdjust="spacingAndGlyphs" textLength="73" x="567.5" y="194.1543">StorageTrie</text><line style="stroke: #A80036; stroke-width: 1.5;" x1="539.5" x2="642.5" y1="206" y2="206"/><line style="stroke: #A80036; stroke-width: 1.5;" x1="539.5" x2="642.5" y1="214" y2="214"/><!--link Storage.Trie to Storage.TransactionTrie--><path d="M309.11,113.647 C263.657,132.028 203.824,156.225 160.34,173.811 " fill="none" id="Storage.Trie-Storage.TransactionTrie" style="stroke: #A80036; stroke-width: 1.0;"/><polygon fill="none" points="306.766,107.044,327.932,106.035,312.015,120.023,306.766,107.044" style="stroke: #A80036; stroke-width: 1.0;"/><!--link Storage.Trie to Storage.TransactionReceiptTrie--><path d="M342.714,129.279 C331.184,144.378 318.621,160.83 308.764,173.737 " fill="none" id="Storage.Trie-Storage.TransactionReceiptTrie" style="stroke: #A80036; stroke-width: 1.0;"/><polygon fill="none" points="337.391,124.715,355.093,113.068,348.518,133.212,337.391,124.715" style="stroke: #A80036; stroke-width: 1.0;"/><!--link Storage.Trie to Storage.StateTrie--><path d="M407.286,129.279 C418.816,144.378 431.379,160.83 441.236,173.737 " fill="none" id="Storage.Trie-Storage.StateTrie" style="stroke: #A80036; stroke-width: 1.0;"/><polygon fill="none" points="401.482,133.212,394.907,113.068,412.609,124.715,401.482,133.212" style="stroke: #A80036; stroke-width: 1.0;"/><!--link Storage.Trie to Storage.StorageTrie--><path d="M440.272,120.241 C474.369,137.604 515.239,158.418 545.814,173.989 " fill="none" id="Storage.Trie-Storage.StorageTrie" style="stroke: #A80036; stroke-width: 1.0;"/><polygon fill="none" points="436.781,126.318,422.135,111.004,443.134,113.842,436.781,126.318" style="stroke: #A80036; stroke-width: 1.0;"/><!--link Storage.TransactionReceipt to Storage.Log--><path d="M291,382.546 C291,403.344 291,426.607 291,445.982 " fill="none" id="Storage.TransactionReceipt-Storage.Log" style="stroke: #A80036; stroke-width: 1.0;"/><polygon fill="#A80036" points="291,369.301,287,375.301,291,381.301,295,375.301,291,369.301" style="stroke: #A80036; stroke-width: 1.0;"/><text fill="#000000" font-family="sans-serif" font-size="13" lengthAdjust="spacingAndGlyphs" textLength="79" x="292" y="412.0669">createdLogs</text><text fill="#000000" font-family="sans-serif" font-size="13" lengthAdjust="spacingAndGlyphs" textLength="7" x="283.4422" y="434.9752">*</text><!--link Storage.TransactionReceiptTrie to Storage.TransactionReceipt--><path d="M291,235.463 C291,250.304 291,267.55 291,282.921 " fill="none" id="Storage.TransactionReceiptTrie-Storage.TransactionReceipt" style="stroke: #A80036; stroke-width: 1.0;"/><polygon fill="#A80036" points="291,222.11,287,228.11,291,234.11,295,228.11,291,222.11" style="stroke: #A80036; stroke-width: 1.0;"/><text fill="#000000" font-family="sans-serif" font-size="13" lengthAdjust="spacingAndGlyphs" textLength="7" x="283.4422" y="271.9045">*</text><!--
@startuml
skinparam classAttributeIconSize 0

namespace Storage {

  class TransactionReceipt {
    int cumulativeGasUsed
    byte[] logsBloomFilter
    int statusCode
  }

  class Log {
    address logger
    bytes32[] topics
    bytes[] data
  }

  class Trie <<abstract>> {
  }

  Trie <|- - TransactionTrie
  Trie <|- - TransactionReceiptTrie
  Trie <|- - StateTrie
  Trie <|- - StorageTrie

  TransactionReceipt *- - "*" Log : createdLogs
  TransactionReceiptTrie *- - "*" TransactionReceipt
}
@enduml

PlantUML version 1.2018.08(Sun Jun 24 12:31:00 UTC 2018)
(GPL source distribution)
Java Runtime: Java(TM) SE Runtime Environment
JVM: Java HotSpot(TM) 64-Bit Server VM
Java Version: 1.7.0_25-b15
Operating System: Linux
Default Encoding: UTF-8
Language: en
Country: US
--></g></svg>