<?xml version="1.0" encoding="UTF-8" standalone="no"?><svg xmlns="http://www.w3.org/2000/svg" xmlns:xlink="http://www.w3.org/1999/xlink" contentScriptType="application/ecmascript" contentStyleType="text/css" height="459px" preserveAspectRatio="none" style="width:1406px;height:459px;" version="1.1" viewBox="0 0 1406 459" width="1406px" zoomAndPan="magnify"><defs><filter height="300%" id="f12mogxvm18xxq" width="300%" x="-1" y="-1"><feGaussianBlur result="blurOut" stdDeviation="2.0"/><feColorMatrix in="blurOut" result="blurOut2" type="matrix" values="0 0 0 0 0 0 0 0 0 0 0 0 0 0 0 0 0 0 .4 0"/><feOffset dx="4.0" dy="4.0" in="blurOut2" result="blurOut3"/><feBlend in="SourceGraphic" in2="blurOut3" mode="normal"/></filter></defs><g><!--cluster DataType--><polygon fill="#FFFFFF" filter="url(#f12mogxvm18xxq)" points="22,24,102,24,109,46.2969,1384,46.2969,1384,447,22,447,22,24" style="stroke: #000000; stroke-width: 1.5;"/><line style="stroke: #000000; stroke-width: 1.5;" x1="22" x2="109" y1="46.2969" y2="46.2969"/><text fill="#000000" font-family="sans-serif" font-size="14" font-weight="bold" lengthAdjust="spacingAndGlyphs" textLength="74" x="26" y="38.9951">DataType</text><!--class DataType.DataType--><rect fill="#FEFECE" filter="url(#f12mogxvm18xxq)" height="53.9375" id="DataType.DataType" style="stroke: #A80036; stroke-width: 1.5;" width="94" x="383" y="59"/><ellipse cx="398" cy="77.9688" fill="#ADD1B2" rx="11" ry="11" style="stroke: #A80036; stroke-width: 1.0;"/><path d="M400.3438,73.6406 L400.5156,73.7188 C400.7344,73.4063 400.9375,73.3125 401.2344,73.3125 C401.5313,73.3125 401.8125,73.4531 401.9688,73.7188 C402.0625,73.875 402.0781,74 402.0781,74.4375 L402.0781,75.8594 C402.0781,76.2813 402.0469,76.4688 401.9375,76.625 C401.7656,76.8438 401.5,76.9844 401.2344,76.9844 C401.0156,76.9844 400.7813,76.875 400.6406,76.7344 C400.5,76.6094 400.4688,76.4844 400.4063,76.0781 C400.3125,75.6719 400.1406,75.4531 399.6563,75.1719 C399.1875,74.9219 398.5781,74.7656 398,74.7656 C396.2656,74.7656 395.0156,76.0781 395.0156,77.8594 L395.0156,78.9531 C395.0156,80.6563 396.3125,81.75 398.3594,81.75 C399.125,81.75 399.8125,81.625 400.2344,81.3594 C400.4219,81.2656 400.4219,81.2656 400.875,80.7813 C401.0625,80.5938 401.2656,80.5156 401.4844,80.5156 C401.9531,80.5156 402.3438,80.9063 402.3438,81.3594 C402.3438,81.75 402.0156,82.2031 401.4375,82.6094 C400.6875,83.1563 399.5313,83.4531 398.3125,83.4531 C395.4219,83.4531 393.3125,81.5625 393.3125,78.9844 L393.3125,77.8594 C393.3125,75.1406 395.3125,73.0625 397.9375,73.0625 C398.8125,73.0625 399.4063,73.2031 400.3438,73.6406 Z "/><text fill="#000000" font-family="sans-serif" font-size="12" font-style="italic" lengthAdjust="spacingAndGlyphs" textLength="66" x="410" y="75.1387">«abstract»</text><text fill="#000000" font-family="sans-serif" font-size="12" lengthAdjust="spacingAndGlyphs" textLength="59" x="413.5" y="89.1074">DataType</text><line style="stroke: #A80036; stroke-width: 1.5;" x1="384" x2="476" y1="96.9375" y2="96.9375"/><line style="stroke: #A80036; stroke-width: 1.5;" x1="384" x2="476" y1="104.9375" y2="104.9375"/><!--class DataType.Integer--><rect fill="#FEFECE" filter="url(#f12mogxvm18xxq)" height="48" id="DataType.Integer" style="stroke: #A80036; stroke-width: 1.5;" width="77" x="38.5" y="224"/><ellipse cx="53.5" cy="240" fill="#ADD1B2" rx="11" ry="11" style="stroke: #A80036; stroke-width: 1.0;"/><path d="M55.8438,235.6719 L56.0156,235.75 C56.2344,235.4375 56.4375,235.3438 56.7344,235.3438 C57.0313,235.3438 57.3125,235.4844 57.4688,235.75 C57.5625,235.9063 57.5781,236.0313 57.5781,236.4688 L57.5781,237.8906 C57.5781,238.3125 57.5469,238.5 57.4375,238.6563 C57.2656,238.875 57,239.0156 56.7344,239.0156 C56.5156,239.0156 56.2813,238.9063 56.1406,238.7656 C56,238.6406 55.9688,238.5156 55.9063,238.1094 C55.8125,237.7031 55.6406,237.4844 55.1563,237.2031 C54.6875,236.9531 54.0781,236.7969 53.5,236.7969 C51.7656,236.7969 50.5156,238.1094 50.5156,239.8906 L50.5156,240.9844 C50.5156,242.6875 51.8125,243.7813 53.8594,243.7813 C54.625,243.7813 55.3125,243.6563 55.7344,243.3906 C55.9219,243.2969 55.9219,243.2969 56.375,242.8125 C56.5625,242.625 56.7656,242.5469 56.9844,242.5469 C57.4531,242.5469 57.8438,242.9375 57.8438,243.3906 C57.8438,243.7813 57.5156,244.2344 56.9375,244.6406 C56.1875,245.1875 55.0313,245.4844 53.8125,245.4844 C50.9219,245.4844 48.8125,243.5938 48.8125,241.0156 L48.8125,239.8906 C48.8125,237.1719 50.8125,235.0938 53.4375,235.0938 C54.3125,235.0938 54.9063,235.2344 55.8438,235.6719 Z "/><text fill="#000000" font-family="sans-serif" font-size="12" lengthAdjust="spacingAndGlyphs" textLength="45" x="67.5" y="244.1543">Integer</text><line style="stroke: #A80036; stroke-width: 1.5;" x1="39.5" x2="114.5" y1="256" y2="256"/><line style="stroke: #A80036; stroke-width: 1.5;" x1="39.5" x2="114.5" y1="264" y2="264"/><!--class DataType.Boolean--><rect fill="#FEFECE" filter="url(#f12mogxvm18xxq)" height="48" id="DataType.Boolean" style="stroke: #A80036; stroke-width: 1.5;" width="83" x="150.5" y="224"/><ellipse cx="165.5" cy="240" fill="#ADD1B2" rx="11" ry="11" style="stroke: #A80036; stroke-width: 1.0;"/><path d="M167.8438,235.6719 L168.0156,235.75 C168.2344,235.4375 168.4375,235.3438 168.7344,235.3438 C169.0313,235.3438 169.3125,235.4844 169.4688,235.75 C169.5625,235.9063 169.5781,236.0313 169.5781,236.4688 L169.5781,237.8906 C169.5781,238.3125 169.5469,238.5 169.4375,238.6563 C169.2656,238.875 169,239.0156 168.7344,239.0156 C168.5156,239.0156 168.2813,238.9063 168.1406,238.7656 C168,238.6406 167.9688,238.5156 167.9063,238.1094 C167.8125,237.7031 167.6406,237.4844 167.1563,237.2031 C166.6875,236.9531 166.0781,236.7969 165.5,236.7969 C163.7656,236.7969 162.5156,238.1094 162.5156,239.8906 L162.5156,240.9844 C162.5156,242.6875 163.8125,243.7813 165.8594,243.7813 C166.625,243.7813 167.3125,243.6563 167.7344,243.3906 C167.9219,243.2969 167.9219,243.2969 168.375,242.8125 C168.5625,242.625 168.7656,242.5469 168.9844,242.5469 C169.4531,242.5469 169.8438,242.9375 169.8438,243.3906 C169.8438,243.7813 169.5156,244.2344 168.9375,244.6406 C168.1875,245.1875 167.0313,245.4844 165.8125,245.4844 C162.9219,245.4844 160.8125,243.5938 160.8125,241.0156 L160.8125,239.8906 C160.8125,237.1719 162.8125,235.0938 165.4375,235.0938 C166.3125,235.0938 166.9063,235.2344 167.8438,235.6719 Z "/><text fill="#000000" font-family="sans-serif" font-size="12" lengthAdjust="spacingAndGlyphs" textLength="51" x="179.5" y="244.1543">Boolean</text><line style="stroke: #A80036; stroke-width: 1.5;" x1="151.5" x2="232.5" y1="256" y2="256"/><line style="stroke: #A80036; stroke-width: 1.5;" x1="151.5" x2="232.5" y1="264" y2="264"/><!--class DataType.Array--><rect fill="#FEFECE" filter="url(#f12mogxvm18xxq)" height="60.8047" id="DataType.Array" style="stroke: #A80036; stroke-width: 1.5;" width="91" x="268.5" y="217.5"/><ellipse cx="295.65" cy="233.5" fill="#ADD1B2" rx="11" ry="11" style="stroke: #A80036; stroke-width: 1.0;"/><path d="M297.9938,229.1719 L298.1656,229.25 C298.3844,228.9375 298.5875,228.8438 298.8844,228.8438 C299.1813,228.8438 299.4625,228.9844 299.6188,229.25 C299.7125,229.4063 299.7281,229.5313 299.7281,229.9688 L299.7281,231.3906 C299.7281,231.8125 299.6969,232 299.5875,232.1563 C299.4156,232.375 299.15,232.5156 298.8844,232.5156 C298.6656,232.5156 298.4313,232.4063 298.2906,232.2656 C298.15,232.1406 298.1188,232.0156 298.0563,231.6094 C297.9625,231.2031 297.7906,230.9844 297.3063,230.7031 C296.8375,230.4531 296.2281,230.2969 295.65,230.2969 C293.9156,230.2969 292.6656,231.6094 292.6656,233.3906 L292.6656,234.4844 C292.6656,236.1875 293.9625,237.2813 296.0094,237.2813 C296.775,237.2813 297.4625,237.1563 297.8844,236.8906 C298.0719,236.7969 298.0719,236.7969 298.525,236.3125 C298.7125,236.125 298.9156,236.0469 299.1344,236.0469 C299.6031,236.0469 299.9938,236.4375 299.9938,236.8906 C299.9938,237.2813 299.6656,237.7344 299.0875,238.1406 C298.3375,238.6875 297.1813,238.9844 295.9625,238.9844 C293.0719,238.9844 290.9625,237.0938 290.9625,234.5156 L290.9625,233.3906 C290.9625,230.6719 292.9625,228.5938 295.5875,228.5938 C296.4625,228.5938 297.0563,228.7344 297.9938,229.1719 Z "/><text fill="#000000" font-family="sans-serif" font-size="12" lengthAdjust="spacingAndGlyphs" textLength="32" x="312.35" y="237.6543">Array</text><line style="stroke: #A80036; stroke-width: 1.5;" x1="269.5" x2="358.5" y1="249.5" y2="249.5"/><text fill="#000000" font-family="sans-serif" font-size="11" lengthAdjust="spacingAndGlyphs" textLength="79" x="274.5" y="263.7104">Integer length</text><line style="stroke: #A80036; stroke-width: 1.5;" x1="269.5" x2="358.5" y1="270.3047" y2="270.3047"/><!--class DataType.Struct--><rect fill="#FEFECE" filter="url(#f12mogxvm18xxq)" height="48" id="DataType.Struct" style="stroke: #A80036; stroke-width: 1.5;" width="70" x="395" y="224"/><ellipse cx="410" cy="240" fill="#ADD1B2" rx="11" ry="11" style="stroke: #A80036; stroke-width: 1.0;"/><path d="M412.3438,235.6719 L412.5156,235.75 C412.7344,235.4375 412.9375,235.3438 413.2344,235.3438 C413.5313,235.3438 413.8125,235.4844 413.9688,235.75 C414.0625,235.9063 414.0781,236.0313 414.0781,236.4688 L414.0781,237.8906 C414.0781,238.3125 414.0469,238.5 413.9375,238.6563 C413.7656,238.875 413.5,239.0156 413.2344,239.0156 C413.0156,239.0156 412.7813,238.9063 412.6406,238.7656 C412.5,238.6406 412.4688,238.5156 412.4063,238.1094 C412.3125,237.7031 412.1406,237.4844 411.6563,237.2031 C411.1875,236.9531 410.5781,236.7969 410,236.7969 C408.2656,236.7969 407.0156,238.1094 407.0156,239.8906 L407.0156,240.9844 C407.0156,242.6875 408.3125,243.7813 410.3594,243.7813 C411.125,243.7813 411.8125,243.6563 412.2344,243.3906 C412.4219,243.2969 412.4219,243.2969 412.875,242.8125 C413.0625,242.625 413.2656,242.5469 413.4844,242.5469 C413.9531,242.5469 414.3438,242.9375 414.3438,243.3906 C414.3438,243.7813 414.0156,244.2344 413.4375,244.6406 C412.6875,245.1875 411.5313,245.4844 410.3125,245.4844 C407.4219,245.4844 405.3125,243.5938 405.3125,241.0156 L405.3125,239.8906 C405.3125,237.1719 407.3125,235.0938 409.9375,235.0938 C410.8125,235.0938 411.4063,235.2344 412.3438,235.6719 Z "/><text fill="#000000" font-family="sans-serif" font-size="12" lengthAdjust="spacingAndGlyphs" textLength="38" x="424" y="244.1543">Struct</text><line style="stroke: #A80036; stroke-width: 1.5;" x1="396" x2="464" y1="256" y2="256"/><line style="stroke: #A80036; stroke-width: 1.5;" x1="396" x2="464" y1="264" y2="264"/><!--class DataType.Enum--><rect fill="#FEFECE" filter="url(#f12mogxvm18xxq)" height="48" id="DataType.Enum" style="stroke: #A80036; stroke-width: 1.5;" width="67" x="500.5" y="224"/><ellipse cx="515.5" cy="240" fill="#ADD1B2" rx="11" ry="11" style="stroke: #A80036; stroke-width: 1.0;"/><path d="M517.8438,235.6719 L518.0156,235.75 C518.2344,235.4375 518.4375,235.3438 518.7344,235.3438 C519.0313,235.3438 519.3125,235.4844 519.4688,235.75 C519.5625,235.9063 519.5781,236.0313 519.5781,236.4688 L519.5781,237.8906 C519.5781,238.3125 519.5469,238.5 519.4375,238.6563 C519.2656,238.875 519,239.0156 518.7344,239.0156 C518.5156,239.0156 518.2813,238.9063 518.1406,238.7656 C518,238.6406 517.9688,238.5156 517.9063,238.1094 C517.8125,237.7031 517.6406,237.4844 517.1563,237.2031 C516.6875,236.9531 516.0781,236.7969 515.5,236.7969 C513.7656,236.7969 512.5156,238.1094 512.5156,239.8906 L512.5156,240.9844 C512.5156,242.6875 513.8125,243.7813 515.8594,243.7813 C516.625,243.7813 517.3125,243.6563 517.7344,243.3906 C517.9219,243.2969 517.9219,243.2969 518.375,242.8125 C518.5625,242.625 518.7656,242.5469 518.9844,242.5469 C519.4531,242.5469 519.8438,242.9375 519.8438,243.3906 C519.8438,243.7813 519.5156,244.2344 518.9375,244.6406 C518.1875,245.1875 517.0313,245.4844 515.8125,245.4844 C512.9219,245.4844 510.8125,243.5938 510.8125,241.0156 L510.8125,239.8906 C510.8125,237.1719 512.8125,235.0938 515.4375,235.0938 C516.3125,235.0938 516.9063,235.2344 517.8438,235.6719 Z "/><text fill="#000000" font-family="sans-serif" font-size="12" lengthAdjust="spacingAndGlyphs" textLength="35" x="529.5" y="244.1543">Enum</text><line style="stroke: #A80036; stroke-width: 1.5;" x1="501.5" x2="566.5" y1="256" y2="256"/><line style="stroke: #A80036; stroke-width: 1.5;" x1="501.5" x2="566.5" y1="264" y2="264"/><!--class DataType.Mapping--><rect fill="#FEFECE" filter="url(#f12mogxvm18xxq)" height="48" id="DataType.Mapping" style="stroke: #A80036; stroke-width: 1.5;" width="85" x="602.5" y="224"/><ellipse cx="617.5" cy="240" fill="#ADD1B2" rx="11" ry="11" style="stroke: #A80036; stroke-width: 1.0;"/><path d="M619.8438,235.6719 L620.0156,235.75 C620.2344,235.4375 620.4375,235.3438 620.7344,235.3438 C621.0313,235.3438 621.3125,235.4844 621.4688,235.75 C621.5625,235.9063 621.5781,236.0313 621.5781,236.4688 L621.5781,237.8906 C621.5781,238.3125 621.5469,238.5 621.4375,238.6563 C621.2656,238.875 621,239.0156 620.7344,239.0156 C620.5156,239.0156 620.2813,238.9063 620.1406,238.7656 C620,238.6406 619.9688,238.5156 619.9063,238.1094 C619.8125,237.7031 619.6406,237.4844 619.1563,237.2031 C618.6875,236.9531 618.0781,236.7969 617.5,236.7969 C615.7656,236.7969 614.5156,238.1094 614.5156,239.8906 L614.5156,240.9844 C614.5156,242.6875 615.8125,243.7813 617.8594,243.7813 C618.625,243.7813 619.3125,243.6563 619.7344,243.3906 C619.9219,243.2969 619.9219,243.2969 620.375,242.8125 C620.5625,242.625 620.7656,242.5469 620.9844,242.5469 C621.4531,242.5469 621.8438,242.9375 621.8438,243.3906 C621.8438,243.7813 621.5156,244.2344 620.9375,244.6406 C620.1875,245.1875 619.0313,245.4844 617.8125,245.4844 C614.9219,245.4844 612.8125,243.5938 612.8125,241.0156 L612.8125,239.8906 C612.8125,237.1719 614.8125,235.0938 617.4375,235.0938 C618.3125,235.0938 618.9063,235.2344 619.8438,235.6719 Z "/><text fill="#000000" font-family="sans-serif" font-size="12" lengthAdjust="spacingAndGlyphs" textLength="53" x="631.5" y="244.1543">Mapping</text><line style="stroke: #A80036; stroke-width: 1.5;" x1="603.5" x2="686.5" y1="256" y2="256"/><line style="stroke: #A80036; stroke-width: 1.5;" x1="603.5" x2="686.5" y1="264" y2="264"/><!--class DataType.Operator--><rect fill="#FEFECE" filter="url(#f12mogxvm18xxq)" height="53.9375" id="DataType.Operator" style="stroke: #A80036; stroke-width: 1.5;" width="94" x="937" y="59"/><ellipse cx="952" cy="77.9688" fill="#ADD1B2" rx="11" ry="11" style="stroke: #A80036; stroke-width: 1.0;"/><path d="M954.3438,73.6406 L954.5156,73.7188 C954.7344,73.4063 954.9375,73.3125 955.2344,73.3125 C955.5313,73.3125 955.8125,73.4531 955.9688,73.7188 C956.0625,73.875 956.0781,74 956.0781,74.4375 L956.0781,75.8594 C956.0781,76.2813 956.0469,76.4688 955.9375,76.625 C955.7656,76.8438 955.5,76.9844 955.2344,76.9844 C955.0156,76.9844 954.7813,76.875 954.6406,76.7344 C954.5,76.6094 954.4688,76.4844 954.4063,76.0781 C954.3125,75.6719 954.1406,75.4531 953.6563,75.1719 C953.1875,74.9219 952.5781,74.7656 952,74.7656 C950.2656,74.7656 949.0156,76.0781 949.0156,77.8594 L949.0156,78.9531 C949.0156,80.6563 950.3125,81.75 952.3594,81.75 C953.125,81.75 953.8125,81.625 954.2344,81.3594 C954.4219,81.2656 954.4219,81.2656 954.875,80.7813 C955.0625,80.5938 955.2656,80.5156 955.4844,80.5156 C955.9531,80.5156 956.3438,80.9063 956.3438,81.3594 C956.3438,81.75 956.0156,82.2031 955.4375,82.6094 C954.6875,83.1563 953.5313,83.4531 952.3125,83.4531 C949.4219,83.4531 947.3125,81.5625 947.3125,78.9844 L947.3125,77.8594 C947.3125,75.1406 949.3125,73.0625 951.9375,73.0625 C952.8125,73.0625 953.4063,73.2031 954.3438,73.6406 Z "/><text fill="#000000" font-family="sans-serif" font-size="12" font-style="italic" lengthAdjust="spacingAndGlyphs" textLength="66" x="964" y="75.1387">«abstract»</text><text fill="#000000" font-family="sans-serif" font-size="12" lengthAdjust="spacingAndGlyphs" textLength="56" x="969" y="89.1074">Operator</text><line style="stroke: #A80036; stroke-width: 1.5;" x1="938" x2="1030" y1="96.9375" y2="96.9375"/><line style="stroke: #A80036; stroke-width: 1.5;" x1="938" x2="1030" y1="104.9375" y2="104.9375"/><!--class DataType.Comparison--><rect fill="#FEFECE" filter="url(#f12mogxvm18xxq)" height="124.8281" id="DataType.Comparison" style="stroke: #A80036; stroke-width: 1.5;" width="106" x="1089" y="185.5"/><ellipse cx="1104" cy="201.5" fill="#EB937F" rx="11" ry="11" style="stroke: #A80036; stroke-width: 1.0;"/><path d="M1102.2969,202.375 L1102.2969,204.7969 L1106.6563,204.7969 L1106.6563,203.9219 C1106.6563,203.4375 1106.6875,203.2969 1106.7969,203.1406 C1106.9688,202.8906 1107.2344,202.7813 1107.5,202.7813 C1107.7813,202.7813 1108.0625,202.9375 1108.2344,203.1875 C1108.3125,203.3438 1108.3438,203.4844 1108.3438,203.9219 L1108.3438,206.5 L1100.3438,206.5 C1099.9531,206.5 1099.7188,206.4531 1099.5781,206.3281 C1099.3594,206.1719 1099.2188,205.9219 1099.2188,205.6563 C1099.2188,205.3594 1099.375,205.0938 1099.625,204.9219 C1099.7813,204.8125 1099.9375,204.7969 1100.3438,204.7969 L1100.5938,204.7969 L1100.5938,198.2813 L1100.3438,198.2813 C1099.9219,198.2813 1099.7344,198.25 1099.5781,198.1406 C1099.3594,197.9688 1099.2188,197.7188 1099.2188,197.4375 C1099.2188,197.1563 1099.375,196.8594 1099.625,196.7031 C1099.7813,196.6094 1099.9063,196.5938 1100.3438,196.5938 L1107.9688,196.5938 L1107.9688,199.1406 C1107.9688,199.6094 1107.9375,199.75 1107.8281,199.9219 C1107.6563,200.1406 1107.3906,200.2813 1107.125,200.2813 C1106.8438,200.2813 1106.5625,200.125 1106.3906,199.875 C1106.3125,199.7188 1106.2813,199.5469 1106.2813,199.1406 L1106.2813,198.2813 L1102.2969,198.2813 L1102.2969,200.6875 L1103.75,200.6875 L1103.75,200.5625 C1103.75,200.1094 1103.7813,199.9531 1103.8906,199.7813 C1104.0625,199.5625 1104.3281,199.4219 1104.5781,199.4219 C1105.0313,199.4219 1105.3438,199.7344 1105.4063,200.2031 C1105.4219,200.3594 1105.4219,200.4063 1105.4219,200.5625 L1105.4219,202.4844 C1105.4219,202.9375 1105.3906,203.0938 1105.2656,203.25 C1105.1094,203.4688 1104.8438,203.6094 1104.5938,203.6094 C1104.2969,203.6094 1104.0156,203.4531 1103.8594,203.2031 C1103.7813,203.0469 1103.75,202.8906 1103.75,202.4844 L1103.75,202.375 Z "/><text fill="#000000" font-family="sans-serif" font-size="12" lengthAdjust="spacingAndGlyphs" textLength="74" x="1118" y="205.6543">Comparison</text><line style="stroke: #A80036; stroke-width: 1.5;" x1="1090" x2="1194" y1="217.5" y2="217.5"/><text fill="#000000" font-family="sans-serif" font-size="11" lengthAdjust="spacingAndGlyphs" textLength="9" x="1095" y="231.7104">&lt;</text><text fill="#000000" font-family="sans-serif" font-size="11" lengthAdjust="spacingAndGlyphs" textLength="9" x="1095" y="244.5151">&gt;</text><text fill="#000000" font-family="sans-serif" font-size="11" lengthAdjust="spacingAndGlyphs" textLength="18" x="1095" y="257.3198">&lt;=</text><text fill="#000000" font-family="sans-serif" font-size="11" lengthAdjust="spacingAndGlyphs" textLength="18" x="1095" y="270.1245">&gt;=</text><text fill="#000000" font-family="sans-serif" font-size="11" lengthAdjust="spacingAndGlyphs" textLength="28" x="1095" y="282.9292">"=="</text><text fill="#000000" font-family="sans-serif" font-size="11" lengthAdjust="spacingAndGlyphs" textLength="12" x="1095" y="295.7339">!=</text><line style="stroke: #A80036; stroke-width: 1.5;" x1="1090" x2="1194" y1="302.3281" y2="302.3281"/><!--class DataType.BitwiseOperation--><rect fill="#FEFECE" filter="url(#f12mogxvm18xxq)" height="99.2188" id="DataType.BitwiseOperation" style="stroke: #A80036; stroke-width: 1.5;" width="137" x="1230.5" y="198.5"/><ellipse cx="1245.5" cy="214.5" fill="#EB937F" rx="11" ry="11" style="stroke: #A80036; stroke-width: 1.0;"/><path d="M1243.7969,215.375 L1243.7969,217.7969 L1248.1563,217.7969 L1248.1563,216.9219 C1248.1563,216.4375 1248.1875,216.2969 1248.2969,216.1406 C1248.4688,215.8906 1248.7344,215.7813 1249,215.7813 C1249.2813,215.7813 1249.5625,215.9375 1249.7344,216.1875 C1249.8125,216.3438 1249.8438,216.4844 1249.8438,216.9219 L1249.8438,219.5 L1241.8438,219.5 C1241.4531,219.5 1241.2188,219.4531 1241.0781,219.3281 C1240.8594,219.1719 1240.7188,218.9219 1240.7188,218.6563 C1240.7188,218.3594 1240.875,218.0938 1241.125,217.9219 C1241.2813,217.8125 1241.4375,217.7969 1241.8438,217.7969 L1242.0938,217.7969 L1242.0938,211.2813 L1241.8438,211.2813 C1241.4219,211.2813 1241.2344,211.25 1241.0781,211.1406 C1240.8594,210.9688 1240.7188,210.7188 1240.7188,210.4375 C1240.7188,210.1563 1240.875,209.8594 1241.125,209.7031 C1241.2813,209.6094 1241.4063,209.5938 1241.8438,209.5938 L1249.4688,209.5938 L1249.4688,212.1406 C1249.4688,212.6094 1249.4375,212.75 1249.3281,212.9219 C1249.1563,213.1406 1248.8906,213.2813 1248.625,213.2813 C1248.3438,213.2813 1248.0625,213.125 1247.8906,212.875 C1247.8125,212.7188 1247.7813,212.5469 1247.7813,212.1406 L1247.7813,211.2813 L1243.7969,211.2813 L1243.7969,213.6875 L1245.25,213.6875 L1245.25,213.5625 C1245.25,213.1094 1245.2813,212.9531 1245.3906,212.7813 C1245.5625,212.5625 1245.8281,212.4219 1246.0781,212.4219 C1246.5313,212.4219 1246.8438,212.7344 1246.9063,213.2031 C1246.9219,213.3594 1246.9219,213.4063 1246.9219,213.5625 L1246.9219,215.4844 C1246.9219,215.9375 1246.8906,216.0938 1246.7656,216.25 C1246.6094,216.4688 1246.3438,216.6094 1246.0938,216.6094 C1245.7969,216.6094 1245.5156,216.4531 1245.3594,216.2031 C1245.2813,216.0469 1245.25,215.8906 1245.25,215.4844 L1245.25,215.375 Z "/><text fill="#000000" font-family="sans-serif" font-size="12" lengthAdjust="spacingAndGlyphs" textLength="105" x="1259.5" y="218.6543">BitwiseOperation</text><line style="stroke: #A80036; stroke-width: 1.5;" x1="1231.5" x2="1366.5" y1="230.5" y2="230.5"/><text fill="#000000" font-family="sans-serif" font-size="11" lengthAdjust="spacingAndGlyphs" textLength="10" x="1236.5" y="244.7104">&amp;</text><text fill="#000000" font-family="sans-serif" font-size="11" lengthAdjust="spacingAndGlyphs" textLength="4" x="1236.5" y="257.5151">|</text><text fill="#000000" font-family="sans-serif" font-size="11" lengthAdjust="spacingAndGlyphs" textLength="9" x="1236.5" y="270.3198">^</text><text fill="#000000" font-family="sans-serif" font-size="11" lengthAdjust="spacingAndGlyphs" textLength="9" x="1236.5" y="283.1245">~</text><line style="stroke: #A80036; stroke-width: 1.5;" x1="1231.5" x2="1366.5" y1="289.7188" y2="289.7188"/><!--class DataType.ArithmeticOperation--><rect fill="#FEFECE" filter="url(#f12mogxvm18xxq)" height="150.4375" id="DataType.ArithmeticOperation" style="stroke: #A80036; stroke-width: 1.5;" width="157" x="722.5" y="173"/><ellipse cx="737.5" cy="189" fill="#EB937F" rx="11" ry="11" style="stroke: #A80036; stroke-width: 1.0;"/><path d="M735.7969,189.875 L735.7969,192.2969 L740.1563,192.2969 L740.1563,191.4219 C740.1563,190.9375 740.1875,190.7969 740.2969,190.6406 C740.4688,190.3906 740.7344,190.2813 741,190.2813 C741.2813,190.2813 741.5625,190.4375 741.7344,190.6875 C741.8125,190.8438 741.8438,190.9844 741.8438,191.4219 L741.8438,194 L733.8438,194 C733.4531,194 733.2188,193.9531 733.0781,193.8281 C732.8594,193.6719 732.7188,193.4219 732.7188,193.1563 C732.7188,192.8594 732.875,192.5938 733.125,192.4219 C733.2813,192.3125 733.4375,192.2969 733.8438,192.2969 L734.0938,192.2969 L734.0938,185.7813 L733.8438,185.7813 C733.4219,185.7813 733.2344,185.75 733.0781,185.6406 C732.8594,185.4688 732.7188,185.2188 732.7188,184.9375 C732.7188,184.6563 732.875,184.3594 733.125,184.2031 C733.2813,184.1094 733.4063,184.0938 733.8438,184.0938 L741.4688,184.0938 L741.4688,186.6406 C741.4688,187.1094 741.4375,187.25 741.3281,187.4219 C741.1563,187.6406 740.8906,187.7813 740.625,187.7813 C740.3438,187.7813 740.0625,187.625 739.8906,187.375 C739.8125,187.2188 739.7813,187.0469 739.7813,186.6406 L739.7813,185.7813 L735.7969,185.7813 L735.7969,188.1875 L737.25,188.1875 L737.25,188.0625 C737.25,187.6094 737.2813,187.4531 737.3906,187.2813 C737.5625,187.0625 737.8281,186.9219 738.0781,186.9219 C738.5313,186.9219 738.8438,187.2344 738.9063,187.7031 C738.9219,187.8594 738.9219,187.9063 738.9219,188.0625 L738.9219,189.9844 C738.9219,190.4375 738.8906,190.5938 738.7656,190.75 C738.6094,190.9688 738.3438,191.1094 738.0938,191.1094 C737.7969,191.1094 737.5156,190.9531 737.3594,190.7031 C737.2813,190.5469 737.25,190.3906 737.25,189.9844 L737.25,189.875 Z "/><text fill="#000000" font-family="sans-serif" font-size="12" lengthAdjust="spacingAndGlyphs" textLength="125" x="751.5" y="193.1543">ArithmeticOperation</text><line style="stroke: #A80036; stroke-width: 1.5;" x1="723.5" x2="878.5" y1="205" y2="205"/><text fill="#000000" font-family="sans-serif" font-size="11" lengthAdjust="spacingAndGlyphs" textLength="9" x="728.5" y="219.2104">+</text><text fill="#000000" font-family="sans-serif" font-size="11" lengthAdjust="spacingAndGlyphs" textLength="4" x="728.5" y="232.0151">-</text><text fill="#000000" font-family="sans-serif" font-size="11" lengthAdjust="spacingAndGlyphs" textLength="6" x="728.5" y="244.8198">*</text><text fill="#000000" font-family="sans-serif" font-size="11" lengthAdjust="spacingAndGlyphs" textLength="12" x="728.5" y="257.6245">**</text><text fill="#000000" font-family="sans-serif" font-size="11" lengthAdjust="spacingAndGlyphs" textLength="4" x="728.5" y="270.4292">/</text><text fill="#000000" font-family="sans-serif" font-size="11" lengthAdjust="spacingAndGlyphs" textLength="10" x="728.5" y="283.2339">%</text><text fill="#000000" font-family="sans-serif" font-size="11" lengthAdjust="spacingAndGlyphs" textLength="18" x="728.5" y="296.0386">&lt;&lt;</text><text fill="#000000" font-family="sans-serif" font-size="11" lengthAdjust="spacingAndGlyphs" textLength="18" x="728.5" y="308.8433">&gt;&gt;</text><line style="stroke: #A80036; stroke-width: 1.5;" x1="723.5" x2="878.5" y1="315.4375" y2="315.4375"/><!--class DataType.BooleanOperator--><rect fill="#FEFECE" filter="url(#f12mogxvm18xxq)" height="103.2188" id="DataType.BooleanOperator" style="stroke: #A80036; stroke-width: 1.5;" width="139" x="914.5" y="196.5"/><ellipse cx="929.5" cy="212.5" fill="#EB937F" rx="11" ry="11" style="stroke: #A80036; stroke-width: 1.0;"/><path d="M927.7969,213.375 L927.7969,215.7969 L932.1563,215.7969 L932.1563,214.9219 C932.1563,214.4375 932.1875,214.2969 932.2969,214.1406 C932.4688,213.8906 932.7344,213.7813 933,213.7813 C933.2813,213.7813 933.5625,213.9375 933.7344,214.1875 C933.8125,214.3438 933.8438,214.4844 933.8438,214.9219 L933.8438,217.5 L925.8438,217.5 C925.4531,217.5 925.2188,217.4531 925.0781,217.3281 C924.8594,217.1719 924.7188,216.9219 924.7188,216.6563 C924.7188,216.3594 924.875,216.0938 925.125,215.9219 C925.2813,215.8125 925.4375,215.7969 925.8438,215.7969 L926.0938,215.7969 L926.0938,209.2813 L925.8438,209.2813 C925.4219,209.2813 925.2344,209.25 925.0781,209.1406 C924.8594,208.9688 924.7188,208.7188 924.7188,208.4375 C924.7188,208.1563 924.875,207.8594 925.125,207.7031 C925.2813,207.6094 925.4063,207.5938 925.8438,207.5938 L933.4688,207.5938 L933.4688,210.1406 C933.4688,210.6094 933.4375,210.75 933.3281,210.9219 C933.1563,211.1406 932.8906,211.2813 932.625,211.2813 C932.3438,211.2813 932.0625,211.125 931.8906,210.875 C931.8125,210.7188 931.7813,210.5469 931.7813,210.1406 L931.7813,209.2813 L927.7969,209.2813 L927.7969,211.6875 L929.25,211.6875 L929.25,211.5625 C929.25,211.1094 929.2813,210.9531 929.3906,210.7813 C929.5625,210.5625 929.8281,210.4219 930.0781,210.4219 C930.5313,210.4219 930.8438,210.7344 930.9063,211.2031 C930.9219,211.3594 930.9219,211.4063 930.9219,211.5625 L930.9219,213.4844 C930.9219,213.9375 930.8906,214.0938 930.7656,214.25 C930.6094,214.4688 930.3438,214.6094 930.0938,214.6094 C929.7969,214.6094 929.5156,214.4531 929.3594,214.2031 C929.2813,214.0469 929.25,213.8906 929.25,213.4844 L929.25,213.375 Z "/><text fill="#000000" font-family="sans-serif" font-size="12" lengthAdjust="spacingAndGlyphs" textLength="107" x="943.5" y="216.6543">BooleanOperator</text><line style="stroke: #A80036; stroke-width: 1.5;" x1="915.5" x2="1052.5" y1="228.5" y2="228.5"/><text fill="#000000" font-family="sans-serif" font-size="11" lengthAdjust="spacingAndGlyphs" textLength="3" x="920.5" y="242.7104">!</text><text fill="#000000" font-family="sans-serif" font-size="11" lengthAdjust="spacingAndGlyphs" textLength="20" x="920.5" y="255.5151">&amp;&amp;</text><line style="stroke: #000000; stroke-width: 1.0;" x1="920.5" x2="920.5" y1="260.1094" y2="260.1094"/><line style="stroke: #000000; stroke-width: 1.0;" x1="920.5" x2="920.5" y1="260.1094" y2="260.1094"/><line style="stroke: #000000; stroke-width: 1.0;" x1="920.5" x2="920.5" y1="260.1094" y2="260.1094"/><text fill="#000000" font-family="sans-serif" font-size="11" lengthAdjust="spacingAndGlyphs" textLength="28" x="920.5" y="272.3198">"=="</text><text fill="#000000" font-family="sans-serif" font-size="11" lengthAdjust="spacingAndGlyphs" textLength="12" x="920.5" y="285.1245">!=</text><line style="stroke: #A80036; stroke-width: 1.5;" x1="915.5" x2="1052.5" y1="291.7188" y2="291.7188"/><!--class DataType.FixedSizeArray--><rect fill="#FEFECE" filter="url(#f12mogxvm18xxq)" height="48" id="DataType.FixedSizeArray" style="stroke: #A80036; stroke-width: 1.5;" width="120" x="168" y="383"/><ellipse cx="183" cy="399" fill="#ADD1B2" rx="11" ry="11" style="stroke: #A80036; stroke-width: 1.0;"/><path d="M185.3438,394.6719 L185.5156,394.75 C185.7344,394.4375 185.9375,394.3438 186.2344,394.3438 C186.5313,394.3438 186.8125,394.4844 186.9688,394.75 C187.0625,394.9063 187.0781,395.0313 187.0781,395.4688 L187.0781,396.8906 C187.0781,397.3125 187.0469,397.5 186.9375,397.6563 C186.7656,397.875 186.5,398.0156 186.2344,398.0156 C186.0156,398.0156 185.7813,397.9063 185.6406,397.7656 C185.5,397.6406 185.4688,397.5156 185.4063,397.1094 C185.3125,396.7031 185.1406,396.4844 184.6563,396.2031 C184.1875,395.9531 183.5781,395.7969 183,395.7969 C181.2656,395.7969 180.0156,397.1094 180.0156,398.8906 L180.0156,399.9844 C180.0156,401.6875 181.3125,402.7813 183.3594,402.7813 C184.125,402.7813 184.8125,402.6563 185.2344,402.3906 C185.4219,402.2969 185.4219,402.2969 185.875,401.8125 C186.0625,401.625 186.2656,401.5469 186.4844,401.5469 C186.9531,401.5469 187.3438,401.9375 187.3438,402.3906 C187.3438,402.7813 187.0156,403.2344 186.4375,403.6406 C185.6875,404.1875 184.5313,404.4844 183.3125,404.4844 C180.4219,404.4844 178.3125,402.5938 178.3125,400.0156 L178.3125,398.8906 C178.3125,396.1719 180.3125,394.0938 182.9375,394.0938 C183.8125,394.0938 184.4063,394.2344 185.3438,394.6719 Z "/><text fill="#000000" font-family="sans-serif" font-size="12" lengthAdjust="spacingAndGlyphs" textLength="88" x="197" y="403.1543">FixedSizeArray</text><line style="stroke: #A80036; stroke-width: 1.5;" x1="169" x2="287" y1="415" y2="415"/><line style="stroke: #A80036; stroke-width: 1.5;" x1="169" x2="287" y1="423" y2="423"/><!--class DataType.DynamicArray--><rect fill="#FEFECE" filter="url(#f12mogxvm18xxq)" height="48" id="DataType.DynamicArray" style="stroke: #A80036; stroke-width: 1.5;" width="116" x="323" y="383"/><ellipse cx="338" cy="399" fill="#ADD1B2" rx="11" ry="11" style="stroke: #A80036; stroke-width: 1.0;"/><path d="M340.3438,394.6719 L340.5156,394.75 C340.7344,394.4375 340.9375,394.3438 341.2344,394.3438 C341.5313,394.3438 341.8125,394.4844 341.9688,394.75 C342.0625,394.9063 342.0781,395.0313 342.0781,395.4688 L342.0781,396.8906 C342.0781,397.3125 342.0469,397.5 341.9375,397.6563 C341.7656,397.875 341.5,398.0156 341.2344,398.0156 C341.0156,398.0156 340.7813,397.9063 340.6406,397.7656 C340.5,397.6406 340.4688,397.5156 340.4063,397.1094 C340.3125,396.7031 340.1406,396.4844 339.6563,396.2031 C339.1875,395.9531 338.5781,395.7969 338,395.7969 C336.2656,395.7969 335.0156,397.1094 335.0156,398.8906 L335.0156,399.9844 C335.0156,401.6875 336.3125,402.7813 338.3594,402.7813 C339.125,402.7813 339.8125,402.6563 340.2344,402.3906 C340.4219,402.2969 340.4219,402.2969 340.875,401.8125 C341.0625,401.625 341.2656,401.5469 341.4844,401.5469 C341.9531,401.5469 342.3438,401.9375 342.3438,402.3906 C342.3438,402.7813 342.0156,403.2344 341.4375,403.6406 C340.6875,404.1875 339.5313,404.4844 338.3125,404.4844 C335.4219,404.4844 333.3125,402.5938 333.3125,400.0156 L333.3125,398.8906 C333.3125,396.1719 335.3125,394.0938 337.9375,394.0938 C338.8125,394.0938 339.4063,394.2344 340.3438,394.6719 Z "/><text fill="#000000" font-family="sans-serif" font-size="12" lengthAdjust="spacingAndGlyphs" textLength="84" x="352" y="403.1543">DynamicArray</text><line style="stroke: #A80036; stroke-width: 1.5;" x1="324" x2="438" y1="415" y2="415"/><line style="stroke: #A80036; stroke-width: 1.5;" x1="324" x2="438" y1="423" y2="423"/><!--class DataType.KeyType--><rect fill="#FEFECE" filter="url(#f12mogxvm18xxq)" height="48" id="DataType.KeyType" style="stroke: #A80036; stroke-width: 1.5;" width="82" x="542" y="383"/><ellipse cx="557" cy="399" fill="#ADD1B2" rx="11" ry="11" style="stroke: #A80036; stroke-width: 1.0;"/><path d="M559.3438,394.6719 L559.5156,394.75 C559.7344,394.4375 559.9375,394.3438 560.2344,394.3438 C560.5313,394.3438 560.8125,394.4844 560.9688,394.75 C561.0625,394.9063 561.0781,395.0313 561.0781,395.4688 L561.0781,396.8906 C561.0781,397.3125 561.0469,397.5 560.9375,397.6563 C560.7656,397.875 560.5,398.0156 560.2344,398.0156 C560.0156,398.0156 559.7813,397.9063 559.6406,397.7656 C559.5,397.6406 559.4688,397.5156 559.4063,397.1094 C559.3125,396.7031 559.1406,396.4844 558.6563,396.2031 C558.1875,395.9531 557.5781,395.7969 557,395.7969 C555.2656,395.7969 554.0156,397.1094 554.0156,398.8906 L554.0156,399.9844 C554.0156,401.6875 555.3125,402.7813 557.3594,402.7813 C558.125,402.7813 558.8125,402.6563 559.2344,402.3906 C559.4219,402.2969 559.4219,402.2969 559.875,401.8125 C560.0625,401.625 560.2656,401.5469 560.4844,401.5469 C560.9531,401.5469 561.3438,401.9375 561.3438,402.3906 C561.3438,402.7813 561.0156,403.2344 560.4375,403.6406 C559.6875,404.1875 558.5313,404.4844 557.3125,404.4844 C554.4219,404.4844 552.3125,402.5938 552.3125,400.0156 L552.3125,398.8906 C552.3125,396.1719 554.3125,394.0938 556.9375,394.0938 C557.8125,394.0938 558.4063,394.2344 559.3438,394.6719 Z "/><text fill="#000000" font-family="sans-serif" font-size="12" lengthAdjust="spacingAndGlyphs" textLength="50" x="571" y="403.1543">KeyType</text><line style="stroke: #A80036; stroke-width: 1.5;" x1="543" x2="623" y1="415" y2="415"/><line style="stroke: #A80036; stroke-width: 1.5;" x1="543" x2="623" y1="423" y2="423"/><!--class DataType.ValueType--><rect fill="#FEFECE" filter="url(#f12mogxvm18xxq)" height="48" id="DataType.ValueType" style="stroke: #A80036; stroke-width: 1.5;" width="96" x="659" y="383"/><ellipse cx="674" cy="399" fill="#ADD1B2" rx="11" ry="11" style="stroke: #A80036; stroke-width: 1.0;"/><path d="M676.3438,394.6719 L676.5156,394.75 C676.7344,394.4375 676.9375,394.3438 677.2344,394.3438 C677.5313,394.3438 677.8125,394.4844 677.9688,394.75 C678.0625,394.9063 678.0781,395.0313 678.0781,395.4688 L678.0781,396.8906 C678.0781,397.3125 678.0469,397.5 677.9375,397.6563 C677.7656,397.875 677.5,398.0156 677.2344,398.0156 C677.0156,398.0156 676.7813,397.9063 676.6406,397.7656 C676.5,397.6406 676.4688,397.5156 676.4063,397.1094 C676.3125,396.7031 676.1406,396.4844 675.6563,396.2031 C675.1875,395.9531 674.5781,395.7969 674,395.7969 C672.2656,395.7969 671.0156,397.1094 671.0156,398.8906 L671.0156,399.9844 C671.0156,401.6875 672.3125,402.7813 674.3594,402.7813 C675.125,402.7813 675.8125,402.6563 676.2344,402.3906 C676.4219,402.2969 676.4219,402.2969 676.875,401.8125 C677.0625,401.625 677.2656,401.5469 677.4844,401.5469 C677.9531,401.5469 678.3438,401.9375 678.3438,402.3906 C678.3438,402.7813 678.0156,403.2344 677.4375,403.6406 C676.6875,404.1875 675.5313,404.4844 674.3125,404.4844 C671.4219,404.4844 669.3125,402.5938 669.3125,400.0156 L669.3125,398.8906 C669.3125,396.1719 671.3125,394.0938 673.9375,394.0938 C674.8125,394.0938 675.4063,394.2344 676.3438,394.6719 Z "/><text fill="#000000" font-family="sans-serif" font-size="12" lengthAdjust="spacingAndGlyphs" textLength="64" x="688" y="403.1543">ValueType</text><line style="stroke: #A80036; stroke-width: 1.5;" x1="660" x2="754" y1="415" y2="415"/><line style="stroke: #A80036; stroke-width: 1.5;" x1="660" x2="754" y1="423" y2="423"/><!--link DataType.DataType to DataType.Integer--><path d="M362.951,94.108 C299.111,103.563 202.694,125.072 133,173 C114.149,185.964 98.9811,207.314 89.2101,223.758 " fill="none" id="DataType.DataType-DataType.Integer" style="stroke: #A80036; stroke-width: 1.0;"/><polygon fill="none" points="362.1,87.16,382.863,91.394,363.992,101.031,362.1,87.16" style="stroke: #A80036; stroke-width: 1.0;"/><!--link DataType.DataType to DataType.Boolean--><path d="M364.086,110.31 C328.378,124.91 284.785,146.08 251,173 C233.138,187.233 217.279,207.826 206.514,223.676 " fill="none" id="DataType.DataType-DataType.Boolean" style="stroke: #A80036; stroke-width: 1.0;"/><polygon fill="none" points="361.825,103.677,382.999,102.88,366.943,116.708,361.825,103.677" style="stroke: #A80036; stroke-width: 1.0;"/><!--link DataType.DataType to DataType.Array--><path d="M399.143,129.562 C379.046,157.282 353.335,192.745 335.45,217.414 " fill="none" id="DataType.DataType-DataType.Array" style="stroke: #A80036; stroke-width: 1.0;"/><polygon fill="none" points="393.698,125.146,411.104,113.063,405.032,133.364,393.698,125.146" style="stroke: #A80036; stroke-width: 1.0;"/><!--link DataType.Array to DataType.FixedSizeArray--><path d="M288.162,296.169 C272.495,324.771 253.192,360.011 240.745,382.7338 " fill="none" id="DataType.Array-DataType.FixedSizeArray" style="stroke: #A80036; stroke-width: 1.0;"/><polygon fill="none" points="282.076,292.708,297.824,278.53,294.355,299.434,282.076,292.708" style="stroke: #A80036; stroke-width: 1.0;"/><!--link DataType.Array to DataType.DynamicArray--><path d="M334.479,296.988 C346.621,325.441 361.466,360.227 371.071,382.7338 " fill="none" id="DataType.Array-DataType.DynamicArray" style="stroke: #A80036; stroke-width: 1.0;"/><polygon fill="none" points="328.014,299.673,326.602,278.53,340.891,294.178,328.014,299.673" style="stroke: #A80036; stroke-width: 1.0;"/><!--link DataType.DataType to DataType.Struct--><path d="M418.332,133.035 C416.322,162.747 417.112,200.134 420.703,223.809 " fill="none" id="DataType.DataType-DataType.Struct" style="stroke: #A80036; stroke-width: 1.0;"/><polygon fill="none" points="411.372,132.284,420.29,113.063,425.305,133.65,411.372,132.284" style="stroke: #A80036; stroke-width: 1.0;"/><!--link DataType.DataType to DataType.Struct--><path d="M440.281,113.063 C444.108,139.589 444.523,180.924 441.525,210.659 " fill="none" id="DataType.DataType-DataType.Struct" style="stroke: #A80036; stroke-width: 1.0;"/><polygon fill="#FFFFFF" points="439.844,223.809,444.5726,218.3647,441.3657,211.9059,436.6371,217.3502,439.844,223.809" style="stroke: #A80036; stroke-width: 1.0;"/><text fill="#000000" font-family="sans-serif" font-size="13" lengthAdjust="spacingAndGlyphs" textLength="7" x="434.8491" y="133.1452">*</text><!--link DataType.DataType to DataType.Enum--><path d="M457.972,130.034 C477.574,160.19 503.014,199.33 518.926,223.809 " fill="none" id="DataType.DataType-DataType.Enum" style="stroke: #A80036; stroke-width: 1.0;"/><polygon fill="none" points="451.972,133.647,446.941,113.063,463.71,126.017,451.972,133.647" style="stroke: #A80036; stroke-width: 1.0;"/><!--link DataType.DataType to DataType.Mapping--><path d="M495.652,116.364 C524.674,131.064 558.214,150.529 585,173 C602.486,187.67 618.555,208.027 629.654,223.677 " fill="none" id="DataType.DataType-DataType.Mapping" style="stroke: #A80036; stroke-width: 1.0;"/><polygon fill="none" points="492.236,122.486,477.348,107.408,498.39,109.911,492.236,122.486" style="stroke: #A80036; stroke-width: 1.0;"/><!--link DataType.Mapping to DataType.KeyType--><path d="M630.917,284.662 C619.008,314.818 602.298,357.131 592.085,382.9948 " fill="none" id="DataType.Mapping-DataType.KeyType" style="stroke: #A80036; stroke-width: 1.0;"/><polygon fill="#A80036" points="635.852,272.166,629.928,276.2777,631.4449,283.3274,637.3689,279.2157,635.852,272.166" style="stroke: #A80036; stroke-width: 1.0;"/><!--link DataType.Mapping to DataType.ValueType--><path d="M659.083,284.662 C670.992,314.818 687.702,357.131 697.915,382.9948 " fill="none" id="DataType.Mapping-DataType.ValueType" style="stroke: #A80036; stroke-width: 1.0;"/><polygon fill="#A80036" points="654.148,272.166,652.6311,279.2157,658.5551,283.3274,660.072,276.2777,654.148,272.166" style="stroke: #A80036; stroke-width: 1.0;"/><!--link DataType.Operator to DataType.Comparison--><path d="M1025.18,127.267 C1039.74,141.619 1056.18,157.954 1071,173 C1076.75,178.834 1082.72,184.961 1088.66,191.087 " fill="none" id="DataType.Operator-DataType.Comparison" style="stroke: #A80036; stroke-width: 1.0;"/><polygon fill="none" points="1020.19,132.178,1010.84,113.166,1030.01,122.194,1020.19,132.178" style="stroke: #A80036; stroke-width: 1.0;"/><!--link DataType.Operator to DataType.BitwiseOperation--><path d="M1050.81,105.264 C1098.04,119.773 1161.8,142.666 1213,173 C1225.2,180.229 1237.34,189.245 1248.49,198.472 " fill="none" id="DataType.Operator-DataType.BitwiseOperation" style="stroke: #A80036; stroke-width: 1.0;"/><polygon fill="none" points="1048.52,111.885,1031.35,99.469,1052.51,98.466,1048.52,111.885" style="stroke: #A80036; stroke-width: 1.0;"/><!--link DataType.Operator to DataType.ArithmeticOperation--><path d="M939.092,126.263 C921.194,141.912 900.052,160.397 879.762,178.137 " fill="none" id="DataType.Operator-DataType.ArithmeticOperation" style="stroke: #A80036; stroke-width: 1.0;"/><polygon fill="none" points="934.526,120.957,954.191,113.063,943.741,131.497,934.526,120.957" style="stroke: #A80036; stroke-width: 1.0;"/><!--link DataType.Operator to DataType.BooleanOperator--><path d="M984,133.255 C984,153.023 984,176.156 984,196.38 " fill="none" id="DataType.Operator-DataType.BooleanOperator" style="stroke: #A80036; stroke-width: 1.0;"/><polygon fill="none" points="977,133.063,984,113.063,991,133.063,977,133.063" style="stroke: #A80036; stroke-width: 1.0;"/><!--link DataType.DataType to DataType.Operator--><path d="M477.068,86 C630.369,86 783.67,86 936.97,86 " fill="none" id="DataType.DataType-DataType.Operator" style="stroke: #A80036; stroke-width: 1.0;"/><!--
@startuml
skinparam classAttributeIconSize 0

namespace DataType {

  class DataType <<abstract>> {
  }

  class Integer {
  }

  class Boolean {
  }

  class Array {
    Integer length
  }

  class Struct {
  }

  class Enum {
  }

  class Mapping {
  }

  class Operator <<abstract>> {
  }

  enum Comparison {
    <
    >
    <=
    >=
    "=="
    !=
  }

  enum BitwiseOperation {
    &
    |
    ^
    ~
  }

  enum ArithmeticOperation {
    +
    -
    *
    **
    /
    %
    <<
    >>
  }

  enum BooleanOperator {
    !
    &&
    ||
    "=="
    !=
  }

  DataType <|- - Integer
  DataType <|- - Boolean
  DataType <|- - Array
  Array <|- - FixedSizeArray
  Array <|- - DynamicArray
  DataType <|- - Struct
  DataType "*" - -o Struct
  DataType <|- - Enum
  DataType <|- - Mapping
  Mapping *- - KeyType
  Mapping *- - ValueType

  Operator <|- - Comparison
  Operator <|- - BitwiseOperation
  Operator <|- - ArithmeticOperation
  Operator <|- - BooleanOperator

  DataType - Operator
}
@enduml

PlantUML version 1.2018.08(Sun Jun 24 12:31:00 UTC 2018)
(GPL source distribution)
Java Runtime: Java(TM) SE Runtime Environment
JVM: Java HotSpot(TM) 64-Bit Server VM
Java Version: 1.7.0_25-b15
Operating System: Linux
Default Encoding: UTF-8
Language: en
Country: US
--></g></svg>