<?xml version="1.0" encoding="UTF-8" standalone="no"?><svg xmlns="http://www.w3.org/2000/svg" xmlns:xlink="http://www.w3.org/1999/xlink" contentScriptType="application/ecmascript" contentStyleType="text/css" height="567px" preserveAspectRatio="none" style="width:721px;height:567px;" version="1.1" viewBox="0 0 721 567" width="721px" zoomAndPan="magnify"><defs><filter height="300%" id="f877as58bm4my" width="300%" x="-1" y="-1"><feGaussianBlur result="blurOut" stdDeviation="2.0"/><feColorMatrix in="blurOut" result="blurOut2" type="matrix" values="0 0 0 0 0 0 0 0 0 0 0 0 0 0 0 0 0 0 .4 0"/><feOffset dx="4.0" dy="4.0" in="blurOut2" result="blurOut3"/><feBlend in="SourceGraphic" in2="blurOut3" mode="normal"/></filter></defs><g><!--cluster Statement--><polygon fill="#FFFFFF" filter="url(#f877as58bm4my)" points="22,24,109,24,116,46.2969,699,46.2969,699,555,22,555,22,24" style="stroke: #000000; stroke-width: 1.5;"/><line style="stroke: #000000; stroke-width: 1.5;" x1="22" x2="116" y1="46.2969" y2="46.2969"/><text fill="#000000" font-family="sans-serif" font-size="14" font-weight="bold" lengthAdjust="spacingAndGlyphs" textLength="81" x="26" y="38.9951">Statement</text><!--class Statement.Statement--><rect fill="#FEFECE" filter="url(#f877as58bm4my)" height="48" id="Statement.Statement" style="stroke: #A80036; stroke-width: 1.5;" width="98" x="290" y="59"/><ellipse cx="305" cy="75" fill="#ADD1B2" rx="11" ry="11" style="stroke: #A80036; stroke-width: 1.0;"/><path d="M307.3438,70.6719 L307.5156,70.75 C307.7344,70.4375 307.9375,70.3438 308.2344,70.3438 C308.5313,70.3438 308.8125,70.4844 308.9688,70.75 C309.0625,70.9063 309.0781,71.0313 309.0781,71.4688 L309.0781,72.8906 C309.0781,73.3125 309.0469,73.5 308.9375,73.6563 C308.7656,73.875 308.5,74.0156 308.2344,74.0156 C308.0156,74.0156 307.7813,73.9063 307.6406,73.7656 C307.5,73.6406 307.4688,73.5156 307.4063,73.1094 C307.3125,72.7031 307.1406,72.4844 306.6563,72.2031 C306.1875,71.9531 305.5781,71.7969 305,71.7969 C303.2656,71.7969 302.0156,73.1094 302.0156,74.8906 L302.0156,75.9844 C302.0156,77.6875 303.3125,78.7813 305.3594,78.7813 C306.125,78.7813 306.8125,78.6563 307.2344,78.3906 C307.4219,78.2969 307.4219,78.2969 307.875,77.8125 C308.0625,77.625 308.2656,77.5469 308.4844,77.5469 C308.9531,77.5469 309.3438,77.9375 309.3438,78.3906 C309.3438,78.7813 309.0156,79.2344 308.4375,79.6406 C307.6875,80.1875 306.5313,80.4844 305.3125,80.4844 C302.4219,80.4844 300.3125,78.5938 300.3125,76.0156 L300.3125,74.8906 C300.3125,72.1719 302.3125,70.0938 304.9375,70.0938 C305.8125,70.0938 306.4063,70.2344 307.3438,70.6719 Z "/><text fill="#000000" font-family="sans-serif" font-size="12" lengthAdjust="spacingAndGlyphs" textLength="66" x="319" y="79.1543">Statement</text><line style="stroke: #A80036; stroke-width: 1.5;" x1="291" x2="387" y1="91" y2="91"/><line style="stroke: #A80036; stroke-width: 1.5;" x1="291" x2="387" y1="99" y2="99"/><!--class Statement.Expression--><rect fill="#FEFECE" filter="url(#f877as58bm4my)" height="48" id="Statement.Expression" style="stroke: #A80036; stroke-width: 1.5;" width="100" x="289" y="167"/><ellipse cx="304" cy="183" fill="#ADD1B2" rx="11" ry="11" style="stroke: #A80036; stroke-width: 1.0;"/><path d="M306.3438,178.6719 L306.5156,178.75 C306.7344,178.4375 306.9375,178.3438 307.2344,178.3438 C307.5313,178.3438 307.8125,178.4844 307.9688,178.75 C308.0625,178.9063 308.0781,179.0313 308.0781,179.4688 L308.0781,180.8906 C308.0781,181.3125 308.0469,181.5 307.9375,181.6563 C307.7656,181.875 307.5,182.0156 307.2344,182.0156 C307.0156,182.0156 306.7813,181.9063 306.6406,181.7656 C306.5,181.6406 306.4688,181.5156 306.4063,181.1094 C306.3125,180.7031 306.1406,180.4844 305.6563,180.2031 C305.1875,179.9531 304.5781,179.7969 304,179.7969 C302.2656,179.7969 301.0156,181.1094 301.0156,182.8906 L301.0156,183.9844 C301.0156,185.6875 302.3125,186.7813 304.3594,186.7813 C305.125,186.7813 305.8125,186.6563 306.2344,186.3906 C306.4219,186.2969 306.4219,186.2969 306.875,185.8125 C307.0625,185.625 307.2656,185.5469 307.4844,185.5469 C307.9531,185.5469 308.3438,185.9375 308.3438,186.3906 C308.3438,186.7813 308.0156,187.2344 307.4375,187.6406 C306.6875,188.1875 305.5313,188.4844 304.3125,188.4844 C301.4219,188.4844 299.3125,186.5938 299.3125,184.0156 L299.3125,182.8906 C299.3125,180.1719 301.3125,178.0938 303.9375,178.0938 C304.8125,178.0938 305.4063,178.2344 306.3438,178.6719 Z "/><text fill="#000000" font-family="sans-serif" font-size="12" lengthAdjust="spacingAndGlyphs" textLength="68" x="318" y="187.1543">Expression</text><line style="stroke: #A80036; stroke-width: 1.5;" x1="290" x2="388" y1="199" y2="199"/><line style="stroke: #A80036; stroke-width: 1.5;" x1="290" x2="388" y1="207" y2="207"/><!--class Statement.Operator--><rect fill="#FEFECE" filter="url(#f877as58bm4my)" height="53.9375" id="Statement.Operator" style="stroke: #A80036; stroke-width: 1.5;" width="94" x="292" y="275"/><ellipse cx="307" cy="293.9688" fill="#ADD1B2" rx="11" ry="11" style="stroke: #A80036; stroke-width: 1.0;"/><path d="M309.3438,289.6406 L309.5156,289.7188 C309.7344,289.4063 309.9375,289.3125 310.2344,289.3125 C310.5313,289.3125 310.8125,289.4531 310.9688,289.7188 C311.0625,289.875 311.0781,290 311.0781,290.4375 L311.0781,291.8594 C311.0781,292.2813 311.0469,292.4688 310.9375,292.625 C310.7656,292.8438 310.5,292.9844 310.2344,292.9844 C310.0156,292.9844 309.7813,292.875 309.6406,292.7344 C309.5,292.6094 309.4688,292.4844 309.4063,292.0781 C309.3125,291.6719 309.1406,291.4531 308.6563,291.1719 C308.1875,290.9219 307.5781,290.7656 307,290.7656 C305.2656,290.7656 304.0156,292.0781 304.0156,293.8594 L304.0156,294.9531 C304.0156,296.6563 305.3125,297.75 307.3594,297.75 C308.125,297.75 308.8125,297.625 309.2344,297.3594 C309.4219,297.2656 309.4219,297.2656 309.875,296.7813 C310.0625,296.5938 310.2656,296.5156 310.4844,296.5156 C310.9531,296.5156 311.3438,296.9063 311.3438,297.3594 C311.3438,297.75 311.0156,298.2031 310.4375,298.6094 C309.6875,299.1563 308.5313,299.4531 307.3125,299.4531 C304.4219,299.4531 302.3125,297.5625 302.3125,294.9844 L302.3125,293.8594 C302.3125,291.1406 304.3125,289.0625 306.9375,289.0625 C307.8125,289.0625 308.4063,289.2031 309.3438,289.6406 Z "/><text fill="#000000" font-family="sans-serif" font-size="12" font-style="italic" lengthAdjust="spacingAndGlyphs" textLength="66" x="319" y="291.1387">«abstract»</text><text fill="#000000" font-family="sans-serif" font-size="12" lengthAdjust="spacingAndGlyphs" textLength="56" x="324" y="305.1074">Operator</text><line style="stroke: #A80036; stroke-width: 1.5;" x1="293" x2="385" y1="312.9375" y2="312.9375"/><line style="stroke: #A80036; stroke-width: 1.5;" x1="293" x2="385" y1="320.9375" y2="320.9375"/><!--class Statement.Comparison--><rect fill="#FEFECE" filter="url(#f877as58bm4my)" height="124.8281" id="Statement.Comparison" style="stroke: #A80036; stroke-width: 1.5;" width="106" x="38" y="401.5"/><ellipse cx="53" cy="417.5" fill="#EB937F" rx="11" ry="11" style="stroke: #A80036; stroke-width: 1.0;"/><path d="M51.2969,418.375 L51.2969,420.7969 L55.6563,420.7969 L55.6563,419.9219 C55.6563,419.4375 55.6875,419.2969 55.7969,419.1406 C55.9688,418.8906 56.2344,418.7813 56.5,418.7813 C56.7813,418.7813 57.0625,418.9375 57.2344,419.1875 C57.3125,419.3438 57.3438,419.4844 57.3438,419.9219 L57.3438,422.5 L49.3438,422.5 C48.9531,422.5 48.7188,422.4531 48.5781,422.3281 C48.3594,422.1719 48.2188,421.9219 48.2188,421.6563 C48.2188,421.3594 48.375,421.0938 48.625,420.9219 C48.7813,420.8125 48.9375,420.7969 49.3438,420.7969 L49.5938,420.7969 L49.5938,414.2813 L49.3438,414.2813 C48.9219,414.2813 48.7344,414.25 48.5781,414.1406 C48.3594,413.9688 48.2188,413.7188 48.2188,413.4375 C48.2188,413.1563 48.375,412.8594 48.625,412.7031 C48.7813,412.6094 48.9063,412.5938 49.3438,412.5938 L56.9688,412.5938 L56.9688,415.1406 C56.9688,415.6094 56.9375,415.75 56.8281,415.9219 C56.6563,416.1406 56.3906,416.2813 56.125,416.2813 C55.8438,416.2813 55.5625,416.125 55.3906,415.875 C55.3125,415.7188 55.2813,415.5469 55.2813,415.1406 L55.2813,414.2813 L51.2969,414.2813 L51.2969,416.6875 L52.75,416.6875 L52.75,416.5625 C52.75,416.1094 52.7813,415.9531 52.8906,415.7813 C53.0625,415.5625 53.3281,415.4219 53.5781,415.4219 C54.0313,415.4219 54.3438,415.7344 54.4063,416.2031 C54.4219,416.3594 54.4219,416.4063 54.4219,416.5625 L54.4219,418.4844 C54.4219,418.9375 54.3906,419.0938 54.2656,419.25 C54.1094,419.4688 53.8438,419.6094 53.5938,419.6094 C53.2969,419.6094 53.0156,419.4531 52.8594,419.2031 C52.7813,419.0469 52.75,418.8906 52.75,418.4844 L52.75,418.375 Z "/><text fill="#000000" font-family="sans-serif" font-size="12" lengthAdjust="spacingAndGlyphs" textLength="74" x="67" y="421.6543">Comparison</text><line style="stroke: #A80036; stroke-width: 1.5;" x1="39" x2="143" y1="433.5" y2="433.5"/><text fill="#000000" font-family="sans-serif" font-size="11" lengthAdjust="spacingAndGlyphs" textLength="9" x="44" y="447.7104">&lt;</text><text fill="#000000" font-family="sans-serif" font-size="11" lengthAdjust="spacingAndGlyphs" textLength="9" x="44" y="460.5151">&gt;</text><text fill="#000000" font-family="sans-serif" font-size="11" lengthAdjust="spacingAndGlyphs" textLength="18" x="44" y="473.3198">&lt;=</text><text fill="#000000" font-family="sans-serif" font-size="11" lengthAdjust="spacingAndGlyphs" textLength="18" x="44" y="486.1245">&gt;=</text><text fill="#000000" font-family="sans-serif" font-size="11" lengthAdjust="spacingAndGlyphs" textLength="28" x="44" y="498.9292">"=="</text><text fill="#000000" font-family="sans-serif" font-size="11" lengthAdjust="spacingAndGlyphs" textLength="12" x="44" y="511.7339">!=</text><line style="stroke: #A80036; stroke-width: 1.5;" x1="39" x2="143" y1="518.3281" y2="518.3281"/><!--class Statement.BitwiseOperation--><rect fill="#FEFECE" filter="url(#f877as58bm4my)" height="99.2188" id="Statement.BitwiseOperation" style="stroke: #A80036; stroke-width: 1.5;" width="137" x="179.5" y="414.5"/><ellipse cx="194.5" cy="430.5" fill="#EB937F" rx="11" ry="11" style="stroke: #A80036; stroke-width: 1.0;"/><path d="M192.7969,431.375 L192.7969,433.7969 L197.1563,433.7969 L197.1563,432.9219 C197.1563,432.4375 197.1875,432.2969 197.2969,432.1406 C197.4688,431.8906 197.7344,431.7813 198,431.7813 C198.2813,431.7813 198.5625,431.9375 198.7344,432.1875 C198.8125,432.3438 198.8438,432.4844 198.8438,432.9219 L198.8438,435.5 L190.8438,435.5 C190.4531,435.5 190.2188,435.4531 190.0781,435.3281 C189.8594,435.1719 189.7188,434.9219 189.7188,434.6563 C189.7188,434.3594 189.875,434.0938 190.125,433.9219 C190.2813,433.8125 190.4375,433.7969 190.8438,433.7969 L191.0938,433.7969 L191.0938,427.2813 L190.8438,427.2813 C190.4219,427.2813 190.2344,427.25 190.0781,427.1406 C189.8594,426.9688 189.7188,426.7188 189.7188,426.4375 C189.7188,426.1563 189.875,425.8594 190.125,425.7031 C190.2813,425.6094 190.4063,425.5938 190.8438,425.5938 L198.4688,425.5938 L198.4688,428.1406 C198.4688,428.6094 198.4375,428.75 198.3281,428.9219 C198.1563,429.1406 197.8906,429.2813 197.625,429.2813 C197.3438,429.2813 197.0625,429.125 196.8906,428.875 C196.8125,428.7188 196.7813,428.5469 196.7813,428.1406 L196.7813,427.2813 L192.7969,427.2813 L192.7969,429.6875 L194.25,429.6875 L194.25,429.5625 C194.25,429.1094 194.2813,428.9531 194.3906,428.7813 C194.5625,428.5625 194.8281,428.4219 195.0781,428.4219 C195.5313,428.4219 195.8438,428.7344 195.9063,429.2031 C195.9219,429.3594 195.9219,429.4063 195.9219,429.5625 L195.9219,431.4844 C195.9219,431.9375 195.8906,432.0938 195.7656,432.25 C195.6094,432.4688 195.3438,432.6094 195.0938,432.6094 C194.7969,432.6094 194.5156,432.4531 194.3594,432.2031 C194.2813,432.0469 194.25,431.8906 194.25,431.4844 L194.25,431.375 Z "/><text fill="#000000" font-family="sans-serif" font-size="12" lengthAdjust="spacingAndGlyphs" textLength="105" x="208.5" y="434.6543">BitwiseOperation</text><line style="stroke: #A80036; stroke-width: 1.5;" x1="180.5" x2="315.5" y1="446.5" y2="446.5"/><text fill="#000000" font-family="sans-serif" font-size="11" lengthAdjust="spacingAndGlyphs" textLength="10" x="185.5" y="460.7104">&amp;</text><text fill="#000000" font-family="sans-serif" font-size="11" lengthAdjust="spacingAndGlyphs" textLength="4" x="185.5" y="473.5151">|</text><text fill="#000000" font-family="sans-serif" font-size="11" lengthAdjust="spacingAndGlyphs" textLength="9" x="185.5" y="486.3198">^</text><text fill="#000000" font-family="sans-serif" font-size="11" lengthAdjust="spacingAndGlyphs" textLength="9" x="185.5" y="499.1245">~</text><line style="stroke: #A80036; stroke-width: 1.5;" x1="180.5" x2="315.5" y1="505.7188" y2="505.7188"/><!--class Statement.ArithmeticOperation--><rect fill="#FEFECE" filter="url(#f877as58bm4my)" height="150.4375" id="Statement.ArithmeticOperation" style="stroke: #A80036; stroke-width: 1.5;" width="157" x="351.5" y="389"/><ellipse cx="366.5" cy="405" fill="#EB937F" rx="11" ry="11" style="stroke: #A80036; stroke-width: 1.0;"/><path d="M364.7969,405.875 L364.7969,408.2969 L369.1563,408.2969 L369.1563,407.4219 C369.1563,406.9375 369.1875,406.7969 369.2969,406.6406 C369.4688,406.3906 369.7344,406.2813 370,406.2813 C370.2813,406.2813 370.5625,406.4375 370.7344,406.6875 C370.8125,406.8438 370.8438,406.9844 370.8438,407.4219 L370.8438,410 L362.8438,410 C362.4531,410 362.2188,409.9531 362.0781,409.8281 C361.8594,409.6719 361.7188,409.4219 361.7188,409.1563 C361.7188,408.8594 361.875,408.5938 362.125,408.4219 C362.2813,408.3125 362.4375,408.2969 362.8438,408.2969 L363.0938,408.2969 L363.0938,401.7813 L362.8438,401.7813 C362.4219,401.7813 362.2344,401.75 362.0781,401.6406 C361.8594,401.4688 361.7188,401.2188 361.7188,400.9375 C361.7188,400.6563 361.875,400.3594 362.125,400.2031 C362.2813,400.1094 362.4063,400.0938 362.8438,400.0938 L370.4688,400.0938 L370.4688,402.6406 C370.4688,403.1094 370.4375,403.25 370.3281,403.4219 C370.1563,403.6406 369.8906,403.7813 369.625,403.7813 C369.3438,403.7813 369.0625,403.625 368.8906,403.375 C368.8125,403.2188 368.7813,403.0469 368.7813,402.6406 L368.7813,401.7813 L364.7969,401.7813 L364.7969,404.1875 L366.25,404.1875 L366.25,404.0625 C366.25,403.6094 366.2813,403.4531 366.3906,403.2813 C366.5625,403.0625 366.8281,402.9219 367.0781,402.9219 C367.5313,402.9219 367.8438,403.2344 367.9063,403.7031 C367.9219,403.8594 367.9219,403.9063 367.9219,404.0625 L367.9219,405.9844 C367.9219,406.4375 367.8906,406.5938 367.7656,406.75 C367.6094,406.9688 367.3438,407.1094 367.0938,407.1094 C366.7969,407.1094 366.5156,406.9531 366.3594,406.7031 C366.2813,406.5469 366.25,406.3906 366.25,405.9844 L366.25,405.875 Z "/><text fill="#000000" font-family="sans-serif" font-size="12" lengthAdjust="spacingAndGlyphs" textLength="125" x="380.5" y="409.1543">ArithmeticOperation</text><line style="stroke: #A80036; stroke-width: 1.5;" x1="352.5" x2="507.5" y1="421" y2="421"/><text fill="#000000" font-family="sans-serif" font-size="11" lengthAdjust="spacingAndGlyphs" textLength="9" x="357.5" y="435.2104">+</text><text fill="#000000" font-family="sans-serif" font-size="11" lengthAdjust="spacingAndGlyphs" textLength="4" x="357.5" y="448.0151">-</text><text fill="#000000" font-family="sans-serif" font-size="11" lengthAdjust="spacingAndGlyphs" textLength="6" x="357.5" y="460.8198">*</text><text fill="#000000" font-family="sans-serif" font-size="11" lengthAdjust="spacingAndGlyphs" textLength="12" x="357.5" y="473.6245">**</text><text fill="#000000" font-family="sans-serif" font-size="11" lengthAdjust="spacingAndGlyphs" textLength="4" x="357.5" y="486.4292">/</text><text fill="#000000" font-family="sans-serif" font-size="11" lengthAdjust="spacingAndGlyphs" textLength="10" x="357.5" y="499.2339">%</text><text fill="#000000" font-family="sans-serif" font-size="11" lengthAdjust="spacingAndGlyphs" textLength="18" x="357.5" y="512.0386">&lt;&lt;</text><text fill="#000000" font-family="sans-serif" font-size="11" lengthAdjust="spacingAndGlyphs" textLength="18" x="357.5" y="524.8433">&gt;&gt;</text><line style="stroke: #A80036; stroke-width: 1.5;" x1="352.5" x2="507.5" y1="531.4375" y2="531.4375"/><!--class Statement.BooleanOperator--><rect fill="#FEFECE" filter="url(#f877as58bm4my)" height="103.2188" id="Statement.BooleanOperator" style="stroke: #A80036; stroke-width: 1.5;" width="139" x="543.5" y="412.5"/><ellipse cx="558.5" cy="428.5" fill="#EB937F" rx="11" ry="11" style="stroke: #A80036; stroke-width: 1.0;"/><path d="M556.7969,429.375 L556.7969,431.7969 L561.1563,431.7969 L561.1563,430.9219 C561.1563,430.4375 561.1875,430.2969 561.2969,430.1406 C561.4688,429.8906 561.7344,429.7813 562,429.7813 C562.2813,429.7813 562.5625,429.9375 562.7344,430.1875 C562.8125,430.3438 562.8438,430.4844 562.8438,430.9219 L562.8438,433.5 L554.8438,433.5 C554.4531,433.5 554.2188,433.4531 554.0781,433.3281 C553.8594,433.1719 553.7188,432.9219 553.7188,432.6563 C553.7188,432.3594 553.875,432.0938 554.125,431.9219 C554.2813,431.8125 554.4375,431.7969 554.8438,431.7969 L555.0938,431.7969 L555.0938,425.2813 L554.8438,425.2813 C554.4219,425.2813 554.2344,425.25 554.0781,425.1406 C553.8594,424.9688 553.7188,424.7188 553.7188,424.4375 C553.7188,424.1563 553.875,423.8594 554.125,423.7031 C554.2813,423.6094 554.4063,423.5938 554.8438,423.5938 L562.4688,423.5938 L562.4688,426.1406 C562.4688,426.6094 562.4375,426.75 562.3281,426.9219 C562.1563,427.1406 561.8906,427.2813 561.625,427.2813 C561.3438,427.2813 561.0625,427.125 560.8906,426.875 C560.8125,426.7188 560.7813,426.5469 560.7813,426.1406 L560.7813,425.2813 L556.7969,425.2813 L556.7969,427.6875 L558.25,427.6875 L558.25,427.5625 C558.25,427.1094 558.2813,426.9531 558.3906,426.7813 C558.5625,426.5625 558.8281,426.4219 559.0781,426.4219 C559.5313,426.4219 559.8438,426.7344 559.9063,427.2031 C559.9219,427.3594 559.9219,427.4063 559.9219,427.5625 L559.9219,429.4844 C559.9219,429.9375 559.8906,430.0938 559.7656,430.25 C559.6094,430.4688 559.3438,430.6094 559.0938,430.6094 C558.7969,430.6094 558.5156,430.4531 558.3594,430.2031 C558.2813,430.0469 558.25,429.8906 558.25,429.4844 L558.25,429.375 Z "/><text fill="#000000" font-family="sans-serif" font-size="12" lengthAdjust="spacingAndGlyphs" textLength="107" x="572.5" y="432.6543">BooleanOperator</text><line style="stroke: #A80036; stroke-width: 1.5;" x1="544.5" x2="681.5" y1="444.5" y2="444.5"/><text fill="#000000" font-family="sans-serif" font-size="11" lengthAdjust="spacingAndGlyphs" textLength="3" x="549.5" y="458.7104">!</text><text fill="#000000" font-family="sans-serif" font-size="11" lengthAdjust="spacingAndGlyphs" textLength="20" x="549.5" y="471.5151">&amp;&amp;</text><line style="stroke: #000000; stroke-width: 1.0;" x1="549.5" x2="549.5" y1="476.1094" y2="476.1094"/><line style="stroke: #000000; stroke-width: 1.0;" x1="549.5" x2="549.5" y1="476.1094" y2="476.1094"/><line style="stroke: #000000; stroke-width: 1.0;" x1="549.5" x2="549.5" y1="476.1094" y2="476.1094"/><text fill="#000000" font-family="sans-serif" font-size="11" lengthAdjust="spacingAndGlyphs" textLength="28" x="549.5" y="488.3198">"=="</text><text fill="#000000" font-family="sans-serif" font-size="11" lengthAdjust="spacingAndGlyphs" textLength="12" x="549.5" y="501.1245">!=</text><line style="stroke: #A80036; stroke-width: 1.5;" x1="544.5" x2="681.5" y1="507.7188" y2="507.7188"/><!--link Statement.Statement to Statement.Expression--><path d="M339,120.338 C339,135.681 339,153.098 339,166.678 " fill="none" id="Statement.Statement-Statement.Expression" style="stroke: #A80036; stroke-width: 1.0;"/><polygon fill="#A80036" points="339,107,335,113,339,119,343,113,339,107" style="stroke: #A80036; stroke-width: 1.0;"/><text fill="#000000" font-family="sans-serif" font-size="13" lengthAdjust="spacingAndGlyphs" textLength="7" x="331.1469" y="156.0045">*</text><!--link Statement.Expression to Statement.Operator--><path d="M339,228.339 C339,243.564 339,260.924 339,274.857 " fill="none" id="Statement.Expression-Statement.Operator" style="stroke: #A80036; stroke-width: 1.0;"/><polygon fill="#A80036" points="339,215.116,335,221.116,339,227.116,343,221.116,339,215.116" style="stroke: #A80036; stroke-width: 1.0;"/><text fill="#000000" font-family="sans-serif" font-size="13" lengthAdjust="spacingAndGlyphs" textLength="7" x="331.1906" y="263.9353">*</text><!--link Statement.Operator to Statement.Comparison--><path d="M272.86,328.48 C238.188,343.439 195.985,364.263 162,389 C155.954,393.401 149.981,398.349 144.22,403.547 " fill="none" id="Statement.Operator-Statement.Comparison" style="stroke: #A80036; stroke-width: 1.0;"/><polygon fill="none" points="270.611,321.833,291.764,320.576,276.012,334.75,270.611,321.833" style="stroke: #A80036; stroke-width: 1.0;"/><!--link Statement.Operator to Statement.BitwiseOperation--><path d="M314.232,346.548 C302.307,367.516 287.964,392.734 275.679,414.333 " fill="none" id="Statement.Operator-Statement.BitwiseOperation" style="stroke: #A80036; stroke-width: 1.0;"/><polygon fill="none" points="308.204,342.987,324.177,329.063,320.374,349.908,308.204,342.987" style="stroke: #A80036; stroke-width: 1.0;"/><!--link Statement.Operator to Statement.ArithmeticOperation--><path d="M363.907,346.793 C371.328,359.84 379.674,374.515 387.874,388.932 " fill="none" id="Statement.Operator-Statement.ArithmeticOperation" style="stroke: #A80036; stroke-width: 1.0;"/><polygon fill="none" points="357.626,349.908,353.823,329.063,369.796,342.987,357.626,349.908" style="stroke: #A80036; stroke-width: 1.0;"/><!--link Statement.Operator to Statement.BooleanOperator--><path d="M404.809,328.057 C441.719,343.37 487.865,364.668 526,389 C536.865,395.933 547.822,404.116 558.123,412.467 " fill="none" id="Statement.Operator-Statement.BooleanOperator" style="stroke: #A80036; stroke-width: 1.0;"/><polygon fill="none" points="402.079,334.503,386.173,320.503,407.338,321.528,402.079,334.503" style="stroke: #A80036; stroke-width: 1.0;"/><!--
@startuml
skinparam classAttributeIconSize 0

namespace Statement {

  class Statement {
  }

  class Expression {
  }

  class Operator <<abstract>> {
  }

  enum Comparison {
    <
    >
    <=
    >=
    "=="
    !=
  }

  enum BitwiseOperation {
    &
    |
    ^
    ~
  }

  enum ArithmeticOperation {
    +
    -
    *
    **
    /
    %
    <<
    >>
  }

  enum BooleanOperator {
    !
    &&
    ||
    "=="
    !=
  }

  Statement *- - "*" Expression
  Expression *- - "*" Operator
  Operator <|- - Comparison
  Operator <|- - BitwiseOperation
  Operator <|- - ArithmeticOperation
  Operator <|- - BooleanOperator
}
@enduml

PlantUML version 1.2018.08(Sun Jun 24 12:31:00 UTC 2018)
(GPL source distribution)
Java Runtime: Java(TM) SE Runtime Environment
JVM: Java HotSpot(TM) 64-Bit Server VM
Java Version: 1.7.0_25-b15
Operating System: Linux
Default Encoding: UTF-8
Language: en
Country: US
--></g></svg>